<svg width="1071" height="1255" viewBox="0 0 1071 1255" fill="none" xmlns="http://www.w3.org/2000/svg">
<path d="M587.249 6.36302C587.915 12.2297 587.782 13.963 586.582 13.2964C584.849 12.2297 584.982 13.0297 588.582 27.163C589.515 31.163 590.182 34.6297 589.915 34.763C589.382 35.2964 583.249 20.2297 581.115 13.4297C580.182 10.6297 579.915 7.56302 580.315 6.49635C580.715 5.42969 580.449 4.49635 579.782 4.49635C578.982 4.49635 578.449 6.36302 578.449 8.76302C578.449 12.763 578.315 12.763 575.915 10.6297C574.582 9.29635 573.115 8.76302 572.715 9.42969C572.315 9.96302 572.182 16.363 572.315 23.6964C572.582 34.6297 572.315 36.363 570.849 34.363C569.249 32.2297 569.115 32.363 567.915 35.2964C567.249 37.0297 566.582 37.6964 566.582 36.763C566.449 35.963 565.915 35.163 565.115 35.163C562.849 35.163 563.649 51.2964 566.315 61.963C570.315 77.563 570.582 79.163 569.382 79.163C568.182 79.163 557.649 55.0297 558.182 53.563C558.315 52.8964 557.915 52.4964 557.115 52.4964C555.115 52.4964 555.515 65.963 557.915 77.563C560.182 88.763 565.515 104.763 570.849 116.763C574.315 124.63 588.982 146.896 592.582 149.83C593.649 150.763 594.449 151.83 594.449 152.363C594.449 152.763 574.849 153.163 550.715 153.296C476.982 153.563 452.982 157.296 373.782 181.163C360.582 185.163 344.449 191.163 331.782 196.896C329.249 198.096 322.982 200.63 317.782 202.63C312.715 204.63 306.849 207.563 304.982 209.296C303.115 211.163 301.249 212.096 300.715 211.563C300.182 211.163 299.782 211.43 299.782 212.363C299.782 213.43 298.715 213.83 297.115 213.43C295.649 213.03 294.715 213.296 295.115 213.83C295.515 214.496 294.449 215.963 292.849 217.03C291.249 218.23 290.449 219.163 291.249 219.163C291.915 219.163 293.649 218.363 295.115 217.43C298.182 215.296 302.449 213.696 302.449 214.496C302.449 214.763 299.649 216.63 296.182 218.63C269.915 233.43 248.849 246.763 222.049 265.43C214.849 270.363 207.115 275.43 204.982 276.496C202.849 277.563 201.115 279.163 201.115 280.096C201.115 281.03 199.782 282.363 198.182 283.296C186.715 289.43 138.449 335.03 119.782 357.296C118.049 359.43 112.715 365.963 108.182 371.83C103.649 377.696 98.4486 384.23 96.7152 386.496C94.9819 388.63 88.8486 397.43 83.2486 405.83C77.6486 414.23 71.5152 423.296 69.7819 426.096C67.9152 428.763 66.4486 431.43 66.4486 432.096C66.4486 432.63 64.0486 436.763 61.1152 441.163C58.1819 445.563 55.7819 450.363 55.9152 451.83C55.9152 453.696 56.1819 453.963 56.7152 452.496C57.1152 451.43 58.8486 449.03 60.4486 447.163C62.0486 445.296 66.1819 439.563 69.5152 434.496C85.2486 410.63 101.382 389.43 118.982 369.163C140.849 344.23 173.782 312.63 193.115 298.096C198.582 293.963 204.049 289.563 205.115 288.363C206.982 286.363 249.649 257.43 266.849 246.63C288.849 232.763 317.649 219.03 340.849 211.03C356.182 205.83 363.915 204.096 353.782 208.096C323.649 219.963 304.849 228.763 283.915 240.763C269.382 249.163 266.982 251.563 279.115 245.43C300.715 234.763 317.249 227.163 329.115 222.63C336.049 219.83 344.449 216.496 347.782 215.163C356.049 211.83 388.449 202.63 403.782 199.43C417.382 196.496 434.449 194.363 434.449 195.563C434.449 195.963 430.982 197.03 426.849 197.83C412.982 200.63 376.315 212.23 353.115 221.163C330.315 229.83 303.915 242.896 277.115 258.496C272.315 261.163 266.315 264.63 263.782 266.096C257.515 269.696 223.382 292.763 215.782 298.63C212.449 301.163 205.382 306.63 199.915 310.896C189.249 319.163 167.382 340.23 156.182 353.163C145.382 365.83 134.049 379.43 129.915 385.03C125.515 390.896 117.115 400.63 108.715 409.83C101.249 417.83 99.2486 420.63 86.4486 439.83C76.4486 454.896 73.3819 460.496 60.7152 485.696C37.5152 532.096 26.3152 562.496 14.5819 611.163C8.9819 634.096 8.1819 638.096 3.64857 666.496C-1.55143 698.63 -1.15143 772.096 4.5819 812.496C7.7819 835.43 15.3819 873.43 19.7819 888.23C24.4486 903.83 35.9152 935.696 39.5152 942.763C40.9819 945.563 44.1819 952.896 46.5819 959.163C58.8486 990.496 97.3819 1057.7 113.115 1075.16C115.382 1077.7 113.115 1073.56 108.049 1065.83C94.1819 1044.9 92.7152 1042.36 82.5819 1022.23C56.3152 969.83 40.4486 930.363 31.9152 896.096C26.3152 873.963 19.5152 839.03 20.5819 837.963C21.2486 837.163 21.9152 839.696 25.7819 857.163C28.9819 872.496 45.3819 924.496 52.1819 941.163C64.4486 971.43 88.5819 1018.5 97.1152 1029.16C98.3152 1030.63 100.982 1035.16 103.115 1039.16C107.382 1047.43 125.115 1072.9 134.982 1085.16C144.982 1097.7 146.449 1099.3 154.182 1107.83C158.315 1112.23 163.249 1118.23 165.382 1121.16C169.115 1126.5 201.382 1156.76 202.182 1155.83C202.449 1155.56 197.515 1150.1 191.382 1143.56C185.115 1137.16 178.315 1129.56 176.182 1126.9C174.182 1124.23 167.782 1116.76 162.182 1110.23C128.182 1071.16 98.8486 1024.23 74.7152 970.496C67.7819 955.296 59.3819 930.496 60.1819 928.096C60.4486 927.296 62.0486 930.896 63.6486 935.963C67.5152 947.43 80.1819 976.496 84.7152 984.496C86.5819 987.83 90.1819 994.63 92.7152 999.83C97.7819 1009.83 126.715 1054.5 128.715 1055.3C129.515 1055.56 132.182 1059.16 134.715 1063.3C137.382 1067.43 142.849 1074.76 146.849 1079.43C150.849 1084.23 155.649 1090.5 157.515 1093.56C159.515 1096.5 163.782 1102.1 167.115 1105.83C170.449 1109.56 173.115 1113.3 173.115 1114.23C173.115 1115.16 176.982 1120.1 181.782 1125.16C186.582 1130.36 189.915 1133.03 188.982 1131.16C188.182 1129.3 186.315 1126.76 184.849 1125.3C183.382 1123.96 182.715 1122.5 183.115 1122.1C183.649 1121.56 184.715 1122.1 185.515 1123.16C186.449 1124.23 189.382 1126.36 192.315 1127.83C195.115 1129.3 200.982 1133.43 205.115 1137.16C218.715 1149.03 231.915 1159.83 234.182 1161.03C235.515 1161.7 240.315 1165.56 245.115 1169.83C261.515 1184.1 273.382 1192.1 295.115 1203.83C300.315 1206.63 307.782 1211.16 311.782 1213.83C318.049 1218.1 336.582 1227.56 354.449 1235.56C362.715 1239.3 385.382 1247.16 387.649 1247.16C388.849 1247.16 384.449 1244.76 377.915 1241.83C371.382 1238.9 364.049 1235.3 361.782 1233.83C359.382 1232.36 353.249 1229.43 348.049 1227.3C334.449 1221.7 294.182 1195.83 292.582 1191.56C292.182 1190.76 295.782 1192.9 300.449 1196.5C308.582 1202.63 350.182 1224.63 348.449 1221.83C348.049 1221.16 342.715 1217.56 336.715 1214.1C322.449 1205.56 311.782 1198.36 288.982 1181.83C257.115 1158.76 211.515 1113.03 192.315 1085.03C190.715 1082.76 185.649 1075.3 180.982 1068.36C176.182 1061.43 170.582 1052.76 168.449 1049.16C166.315 1045.43 163.915 1041.43 163.115 1040.23C162.449 1039.03 160.849 1036.36 159.649 1034.23C158.449 1032.23 156.315 1028.36 154.849 1025.83C153.382 1023.16 148.449 1013.96 143.782 1005.16C139.249 996.363 134.582 988.63 133.649 988.096C132.582 987.563 131.782 986.363 131.782 985.563C131.782 984.763 128.182 976.63 123.782 967.563C119.382 958.363 115.782 950.63 115.782 950.23C115.782 949.963 114.315 947.43 112.449 944.763C110.582 942.096 109.115 939.03 109.115 937.83C108.982 936.763 107.915 933.43 106.449 930.496C104.982 927.563 103.915 924.363 103.782 923.296C103.782 922.23 102.315 917.163 100.582 911.963C78.0486 847.03 68.0486 770.363 74.1819 711.163C74.9819 703.43 76.3152 690.496 77.2486 682.496C78.0486 674.363 79.2486 667.296 79.9152 666.496C80.5819 665.83 81.1152 663.296 81.1152 660.763C81.1152 658.23 81.9152 653.163 82.9819 649.43C83.9152 645.563 85.5152 639.163 86.4486 635.163C92.7152 607.296 107.649 561.163 114.315 548.896C114.982 547.563 117.249 542.896 119.115 538.496C124.182 527.03 146.715 487.163 156.315 473.163C169.649 453.296 192.449 426.496 215.782 403.163C238.715 380.23 255.249 366.63 277.782 352.496C285.115 347.83 295.649 341.296 301.115 337.83C322.715 324.096 365.382 302.896 367.249 304.896C367.515 305.163 363.515 307.43 358.182 309.696C335.515 319.696 279.782 352.896 257.782 369.296C237.649 384.363 223.115 398.763 196.715 429.83C194.715 432.23 193.249 434.496 193.649 434.763C193.915 435.03 197.115 431.83 200.582 427.563C204.182 423.43 209.115 418.23 211.515 416.096C213.782 413.963 215.782 411.43 215.782 410.363C215.782 409.296 216.449 408.496 217.249 408.496C217.915 408.496 218.182 409.03 217.782 409.83C217.382 410.496 217.649 411.163 218.449 411.163C219.382 411.163 219.782 410.363 219.382 409.296C218.982 408.23 223.649 402.496 231.515 394.763C249.782 376.63 268.849 361.83 286.315 351.963C297.382 345.696 296.049 348.896 284.715 355.83C279.915 358.763 273.649 363.163 270.849 365.563C268.049 367.963 263.115 371.563 259.782 373.563C256.449 375.43 252.849 378.23 251.782 379.83C250.849 381.296 243.382 388.763 235.515 396.363C227.649 403.963 221.115 410.896 221.115 411.83C221.115 412.63 217.515 416.363 213.249 419.963C208.849 423.563 204.315 428.363 203.115 430.763C202.049 433.03 198.315 438.23 194.982 442.096C191.649 445.963 186.182 453.03 182.849 457.83C179.649 462.63 174.582 469.83 171.649 473.83C163.382 485.563 145.382 515.563 140.849 525.43C138.582 530.363 135.115 538.096 133.115 542.496C130.982 546.896 128.449 553.563 127.382 557.163C126.315 560.896 123.515 568.363 121.115 573.83C116.849 583.696 110.449 602.63 110.449 605.163C110.449 610.496 124.315 580.363 126.982 569.296C127.515 567.296 130.315 561.296 133.382 555.963C136.449 550.763 141.115 542.496 143.782 537.563C146.582 532.763 151.515 525.163 154.715 520.896C158.049 516.63 163.249 508.896 166.449 503.83C173.382 492.896 179.782 484.496 186.715 477.43C191.782 472.496 194.582 470.896 192.315 474.23C190.582 476.763 195.249 471.563 205.782 459.03C233.649 426.23 255.782 403.963 276.715 388.096C290.715 377.563 325.382 353.563 325.915 354.23C326.182 354.363 323.249 356.63 319.515 359.163C299.915 372.363 276.315 390.896 260.449 405.296C227.782 435.03 207.382 458.23 184.582 491.83C179.115 499.83 173.115 509.83 171.115 513.83C169.249 517.83 166.715 522.63 165.649 524.496C164.582 526.363 162.449 530.496 161.115 533.83C159.649 537.163 157.515 541.563 156.315 543.83C151.115 553.03 143.782 568.763 142.982 572.096C142.449 574.23 140.982 578.496 139.649 581.83C132.582 599.83 130.449 605.963 130.982 607.03C131.382 607.696 130.849 609.83 129.915 611.963C128.315 615.296 121.649 642.63 116.449 667.83C114.715 676.096 112.982 693.163 113.915 692.096C114.182 691.83 115.649 685.03 117.249 677.03C120.582 658.763 127.249 631.43 130.449 622.63C131.649 618.896 134.982 608.63 137.782 599.83C140.582 591.03 143.515 582.363 144.582 580.496C147.249 575.296 154.449 559.43 156.715 553.296C157.915 550.363 160.182 545.963 161.782 543.83C163.382 541.563 167.249 534.23 170.449 527.43C173.649 520.763 176.715 515.163 177.249 515.163C177.915 515.163 179.915 512.363 181.649 508.763C183.382 505.296 187.649 498.763 190.982 494.096C194.315 489.563 197.115 485.43 197.115 485.03C197.115 484.23 212.715 463.963 216.049 460.23C216.982 459.296 220.449 455.43 223.782 451.696C250.982 421.563 264.982 408.096 279.782 397.83C282.315 396.096 287.515 392.096 291.382 389.163C310.982 373.83 331.249 361.43 358.449 347.83C382.582 335.696 391.249 332.096 409.782 326.23C417.915 323.696 428.715 320.096 434.049 318.363C439.249 316.63 445.115 315.163 446.982 315.163C448.715 315.163 451.915 314.496 454.049 313.696C467.249 308.63 524.715 302.496 547.115 303.696C555.249 304.23 567.382 304.63 574.315 304.763C583.115 304.896 586.982 305.563 587.382 306.763C587.782 307.696 584.182 312.896 579.515 318.23C567.249 331.963 562.449 339.163 553.915 356.23C541.649 381.03 536.049 405.296 546.449 388.496C551.115 380.896 551.115 383.696 546.582 395.03C544.315 400.23 542.182 406.763 541.649 409.296C540.982 413.296 541.115 413.83 543.515 413.83C546.982 413.83 547.782 416.23 547.782 427.163C547.782 435.163 548.182 436.363 550.449 437.163C551.915 437.563 553.115 439.163 553.115 440.63C553.115 441.963 553.382 443.163 553.649 443.163C554.049 443.163 556.982 440.363 560.182 437.03L566.182 431.03L564.982 436.096C564.449 438.896 563.382 443.563 562.582 446.496C560.182 455.83 560.982 456.096 565.915 447.296C574.182 432.496 585.782 416.096 594.582 407.03C599.249 402.23 601.649 400.096 599.782 402.363C588.049 416.63 584.715 421.163 579.249 430.096C575.915 435.696 573.115 440.496 573.115 441.03C573.115 441.43 571.915 444.363 570.449 447.563C566.982 455.163 563.782 464.363 563.782 467.03C563.782 468.23 565.649 465.296 567.649 460.496C569.782 455.696 574.182 448.763 577.382 444.896C580.449 441.03 585.249 435.163 587.782 431.696C601.649 412.896 633.782 385.296 660.449 369.163C666.315 365.696 675.382 359.963 680.715 356.363C703.515 341.296 754.715 318.496 783.915 310.496C790.849 308.496 797.782 306.363 799.515 305.696C801.249 305.03 805.649 304.496 809.515 304.496C813.382 304.496 820.315 303.163 825.115 301.43C832.182 299.03 835.649 296.63 843.382 289.163C852.582 279.963 852.849 279.696 854.449 270.23C856.315 259.03 855.649 256.363 847.649 240.096C841.115 227.03 835.515 218.763 830.715 215.43C828.715 213.963 821.115 206.63 813.782 199.03C795.115 179.83 795.782 180.496 787.249 173.83C783.115 170.496 778.449 166.763 777.115 165.563C775.649 164.23 769.249 159.83 762.849 155.696C756.315 151.563 747.249 145.296 742.449 141.83C730.715 133.163 719.915 126.896 718.315 127.963C717.649 128.363 717.249 127.963 717.382 127.163C717.915 125.163 705.649 116.496 701.115 115.563C697.515 114.896 683.249 104.363 673.782 95.4297L668.582 90.4964L672.449 95.163C674.582 97.6964 681.115 104.763 686.982 110.763C692.849 116.763 697.382 122.096 696.982 122.496C696.582 122.763 692.715 119.83 688.315 115.83C680.182 108.23 678.982 107.296 680.582 110.096C681.249 111.43 681.115 111.43 679.915 110.363C678.982 109.563 678.049 107.696 677.782 106.363C677.649 104.896 676.715 103.963 675.915 104.096C675.115 104.363 674.582 103.963 674.849 103.43C674.982 102.896 672.182 99.163 668.582 95.163C664.982 91.163 662.582 88.763 663.249 89.8297C664.182 91.563 664.049 91.563 661.782 89.8297C657.782 86.763 647.515 74.4964 630.049 52.2297C628.715 50.4964 629.782 52.763 632.582 57.163C639.382 68.363 648.182 79.563 658.582 90.4964C663.515 95.563 669.515 102.23 671.782 105.163C676.182 110.763 679.515 113.296 680.715 111.963C681.115 111.696 682.849 113.03 684.715 115.296C688.449 119.696 698.982 127.296 701.915 127.696C702.982 127.83 709.115 131.963 715.515 136.63C721.915 141.43 730.715 147.83 735.115 150.763C739.515 153.696 748.182 160.096 754.182 164.896C760.315 169.696 766.049 173.963 766.849 174.23C767.782 174.496 768.049 175.163 767.649 175.696C766.715 176.63 757.382 171.296 750.182 165.563C747.782 163.696 740.715 159.03 734.449 155.43C720.715 147.43 698.449 133.696 690.715 128.23C687.515 126.096 684.049 124.096 682.982 123.963C681.915 123.83 680.315 122.896 679.382 121.83C678.049 120.23 678.182 120.23 680.449 121.83C681.915 122.896 681.249 121.696 678.849 119.163C676.582 116.63 672.982 112.363 670.849 109.83C663.115 100.363 650.049 87.2964 648.715 87.563C647.915 87.6964 646.715 86.6297 645.915 85.163C643.249 79.963 638.582 74.4964 638.449 76.363C638.449 77.8297 638.049 77.8297 636.182 76.363C634.715 75.163 634.849 75.963 636.982 78.763C638.582 81.163 640.315 83.163 640.849 83.163C641.249 83.163 640.982 82.4964 640.049 81.563C639.115 80.6297 638.449 79.2964 638.449 78.6297C638.582 77.8297 639.649 78.6297 641.115 80.363C642.582 81.963 643.515 83.8297 643.249 84.363C642.982 84.763 644.182 86.6297 645.915 88.4964C647.782 90.363 649.115 91.0297 649.115 90.0964C649.115 89.0297 651.382 90.6297 654.182 93.4297C661.915 101.163 677.382 120.496 675.782 120.496C672.315 120.496 657.782 108.763 644.982 95.563C624.982 75.0297 616.049 63.963 608.715 51.563C602.315 40.763 589.115 9.29635 589.115 4.76302C589.115 3.56302 588.449 1.56302 587.649 0.496354C586.715 -0.970312 586.582 0.763021 587.249 6.36302ZM701.649 121.296C702.049 122.363 701.915 122.896 701.115 122.496C700.315 122.096 699.782 121.163 699.782 120.363C699.782 118.496 700.715 118.896 701.649 121.296ZM707.382 123.43C706.182 124.23 706.315 124.496 707.782 124.63C708.849 124.763 710.315 124.763 710.849 124.63C711.515 124.496 711.649 125.03 711.115 125.83C710.582 126.763 709.382 126.763 707.649 125.696C706.049 124.896 705.249 123.963 705.649 123.563C706.049 123.03 705.649 121.83 704.715 120.763C703.249 119.03 703.515 118.896 706.049 120.63C708.182 121.83 708.582 122.763 707.382 123.43ZM460.449 180.496C458.315 181.03 454.315 181.563 451.782 181.563C448.049 181.696 447.649 181.43 449.782 180.496C451.249 179.83 455.115 179.43 458.449 179.43C463.915 179.43 464.049 179.563 460.449 180.496ZM446.182 182.496C445.782 182.896 438.982 184.496 430.982 185.963C422.982 187.43 412.315 189.83 407.115 191.296C402.049 192.63 396.982 193.83 395.782 193.83C392.715 193.696 406.315 188.63 413.782 187.163C417.382 186.363 424.049 185.03 428.449 183.963C436.449 182.096 447.515 181.163 446.182 182.496ZM441.782 195.163C438.182 196.763 437.115 196.763 437.115 195.163C437.115 194.363 438.715 193.83 440.849 193.963C444.049 193.963 444.182 194.096 441.782 195.163ZM407.382 263.963C406.982 264.363 405.782 264.496 404.849 264.096C403.782 263.696 404.182 263.296 405.649 263.296C407.115 263.163 407.915 263.563 407.382 263.963ZM397.382 267.163C394.982 268.63 392.182 269.83 391.115 269.83C390.182 269.83 388.449 270.63 387.382 271.696C386.315 272.763 379.782 275.83 372.982 278.496C359.915 283.563 343.382 291.696 329.782 299.43C325.382 302.096 317.249 306.63 311.782 309.83C306.315 312.896 298.982 317.563 295.515 320.096C292.182 322.496 287.515 325.163 285.249 325.963C282.982 326.763 281.115 328.23 281.115 329.296C281.115 330.363 280.449 331.163 279.649 331.163C277.515 331.163 264.049 340.896 249.249 353.163C232.849 366.763 161.115 438.63 161.115 441.43C161.115 442.763 166.049 438.496 172.849 431.43C183.915 419.963 187.782 417.163 187.782 420.496C187.782 421.296 185.382 424.496 182.315 427.563C179.382 430.63 171.115 439.963 164.049 448.23C151.915 462.496 147.782 467.43 142.049 475.296C136.715 482.496 141.382 473.163 149.115 461.296C153.515 454.496 157.115 448.363 157.115 447.83C157.115 445.83 148.182 455.696 141.515 465.163C130.182 481.296 119.782 499.03 106.849 523.83C100.049 537.03 94.4486 547.43 94.4486 547.03C94.4486 544.763 110.715 510.896 119.249 495.563C129.782 476.763 148.182 448.23 154.982 440.23C157.249 437.563 161.382 432.363 164.182 428.763C166.982 425.03 170.315 421.03 171.649 419.563C172.849 418.23 177.249 412.896 181.382 407.83C187.649 399.963 197.782 389.563 220.449 367.83C226.849 361.563 240.982 349.83 250.582 342.763C257.915 337.296 294.182 313.163 303.915 307.163C310.849 302.896 348.315 284.496 355.115 281.963C358.982 280.496 364.849 278.096 368.049 276.63C371.115 275.163 377.382 272.63 381.782 271.03C386.182 269.43 391.915 267.43 394.449 266.363C401.249 263.83 402.449 264.096 397.382 267.163ZM678.315 347.696C678.049 347.963 676.315 348.896 674.449 349.696C671.249 351.163 671.249 351.163 673.649 349.296C675.782 347.563 680.182 346.096 678.315 347.696ZM637.115 370.496C636.182 371.563 634.849 372.496 634.049 372.496C633.249 372.496 633.782 371.563 635.249 370.496C638.582 367.963 639.249 367.963 637.115 370.496ZM204.715 456.096C203.515 457.296 202.049 457.963 201.515 457.43C201.115 456.896 201.782 455.563 203.249 454.63C206.582 452.096 207.649 453.296 204.715 456.096ZM82.0486 472.096C78.9819 477.43 57.9152 521.963 55.1152 529.03C50.3152 540.896 43.5152 555.43 44.5819 551.163C48.4486 536.23 78.8486 471.163 81.9152 471.163C82.3152 471.163 82.3152 471.563 82.0486 472.096ZM126.849 499.83C126.449 501.03 125.782 501.696 125.515 501.296C125.115 500.896 125.249 500.096 125.782 499.296C126.982 497.163 127.782 497.563 126.849 499.83ZM133.782 550.63C132.715 553.296 131.782 555.83 131.782 556.23C131.782 556.63 131.382 556.63 130.982 556.096C129.915 555.163 133.382 545.83 134.715 545.83C135.382 545.83 134.849 547.963 133.782 550.63ZM38.4486 573.163C36.0486 580.096 33.9152 585.696 33.5152 585.43C33.2486 585.03 34.8486 579.03 37.1152 571.83C39.5152 564.763 41.6486 559.296 42.0486 559.563C42.3152 559.963 40.7152 566.096 38.4486 573.163ZM32.7152 591.43C32.3152 592.496 31.9152 592.096 31.9152 590.63C31.7819 589.163 32.1819 588.363 32.5819 588.896C32.9819 589.296 33.1152 590.496 32.7152 591.43ZM29.6486 603.03C29.1152 605.296 28.4486 607.03 28.1819 606.63C27.7819 606.363 27.9152 604.096 28.4486 601.83C29.6486 596.363 30.7152 597.43 29.6486 603.03ZM69.1152 709.83C69.1152 710.496 68.4486 711.163 67.6486 711.163C66.9819 711.163 66.7152 710.496 67.1152 709.83C67.5152 709.03 68.1819 708.496 68.5819 708.496C68.8486 708.496 69.1152 709.03 69.1152 709.83ZM65.3819 755.163L64.4486 769.163L63.7819 752.496C63.3819 743.296 63.3819 730.363 63.7819 723.83L64.3152 711.83L65.3819 726.496C65.9152 734.496 65.9152 747.43 65.3819 755.163ZM67.3819 719.43C66.9819 720.496 66.5819 720.096 66.5819 718.63C66.4486 717.163 66.8486 716.363 67.2486 716.896C67.6486 717.296 67.7819 718.496 67.3819 719.43ZM117.649 1029.3C118.049 1030.36 117.915 1030.9 117.115 1030.5C116.315 1030.1 115.782 1029.16 115.782 1028.36C115.782 1026.5 116.715 1026.9 117.649 1029.3Z" fill="#8F76E8"/>
<path d="M582.583 3.16341C582.716 4.23008 583.249 6.63008 583.783 8.49674L584.849 11.8301L584.983 8.49674C584.983 6.63008 584.449 4.23008 583.783 3.16341C582.583 1.43008 582.449 1.43008 582.583 3.16341Z" fill="#8F76E8"/>
<path d="M555.915 49.2966C555.915 50.7632 556.315 51.1632 556.715 50.0966C557.115 49.1632 556.981 47.9632 556.581 47.5632C556.181 47.0299 555.781 47.8299 555.915 49.2966Z" fill="#8F76E8"/>
<path d="M630.582 70.7632C631.515 72.3632 632.582 73.4299 632.982 73.0299C633.382 72.7632 632.582 71.4299 631.249 70.0966C628.982 67.9632 628.849 67.9632 630.582 70.7632Z" fill="#8F76E8"/>
<path d="M707.115 133.03C710.048 135.697 712.981 137.83 713.648 137.83C714.315 137.83 714.581 137.697 714.315 137.43C714.048 137.163 711.115 135.03 707.781 132.63L701.781 128.23L707.115 133.03Z" fill="#8F76E8"/>
<path d="M285.781 217.83C285.381 218.63 285.915 218.763 286.981 218.363C289.381 217.43 289.781 216.496 287.915 216.496C287.115 216.496 286.181 217.03 285.781 217.83Z" fill="#8F76E8"/>
<path d="M274.448 223.163C273.248 223.963 273.115 224.497 274.048 224.497C274.848 224.497 276.048 223.83 276.448 223.163C277.515 221.563 276.981 221.563 274.448 223.163Z" fill="#8F76E8"/>
<path d="M268.582 230.497C263.516 233.83 258.982 236.897 258.582 237.43C257.249 238.897 276.316 228.23 278.449 226.363C282.316 222.63 277.516 224.63 268.582 230.497Z" fill="#8F76E8"/>
<path d="M895.649 308.096C897.783 310.896 902.316 316.096 905.649 319.563C917.783 332.63 936.449 359.963 949.649 384.096C1000.05 476.896 1009.38 586.096 974.849 681.696C954.849 737.43 917.383 790.496 870.183 830.096C854.849 843.163 827.516 860.23 808.183 869.163C789.916 877.563 762.716 887.696 754.183 889.43C751.783 889.83 748.049 891.03 745.783 892.096C741.916 893.83 742.183 893.83 749.116 893.163C767.383 891.163 794.983 882.23 820.449 870.23C830.716 865.296 840.316 860.63 841.783 859.563C845.783 856.896 847.116 857.563 843.649 860.496C839.916 863.43 841.916 864.096 845.916 861.163C848.983 858.896 852.316 858.496 850.983 860.763C849.383 863.163 853.649 861.163 862.716 855.03C867.249 851.963 871.916 849.43 873.383 849.296C876.049 849.163 888.583 840.363 908.849 824.363C927.783 809.296 950.316 785.43 969.916 759.696C985.783 738.63 1002.32 709.696 1010.58 687.83C1013.38 680.496 1014.32 678.23 1017.65 670.763C1018.85 667.963 1019.25 665.963 1018.72 666.363C1018.05 666.763 1018.58 663.696 1020.05 659.43C1028.32 634.496 1034.18 600.896 1035.52 570.496C1037.12 534.23 1032.18 500.63 1019.52 463.83C1009.25 433.83 999.916 414.63 990.316 404.096C988.183 401.83 986.449 399.43 986.449 398.896C986.449 397.563 980.849 392.496 979.249 392.496C978.583 392.496 979.249 393.83 980.716 395.43C982.183 397.163 985.116 403.03 987.116 408.496C989.116 413.963 993.916 426.63 997.783 436.496C1006.98 460.096 1009.38 467.83 1008.85 471.43C1008.58 473.43 1006.85 469.83 1003.92 461.163C990.583 421.563 974.983 391.03 955.116 365.83C949.916 359.296 927.116 335.03 916.583 324.763C913.116 321.296 906.583 315.03 902.316 310.763C893.516 302.23 889.516 300.496 895.649 308.096ZM867.783 847.696C867.783 848.23 854.583 856.496 853.649 856.496C851.649 856.496 855.383 853.43 860.849 850.496C867.649 847.03 867.783 846.896 867.783 847.696Z" fill="#8F76E8"/>
<path d="M768.449 319.297C756.049 323.563 739.382 330.497 731.515 334.497C723.782 338.497 716.715 341.83 715.915 341.83C715.115 341.83 711.649 343.83 708.182 346.363C704.582 348.763 699.782 351.83 697.382 353.163C694.849 354.363 693.249 355.697 693.515 356.097C693.915 356.497 696.582 355.563 699.382 354.097C702.182 352.497 707.782 349.83 711.782 347.963C715.782 346.23 723.382 342.763 728.449 340.497C733.649 338.23 744.049 333.963 751.782 331.03C759.515 328.23 766.982 325.297 768.449 324.497C774.982 321.43 787.649 316.63 792.982 315.163C797.382 313.963 798.449 313.297 796.982 312.363C794.049 310.497 792.582 310.897 768.449 319.297Z" fill="#8F76E8"/>
<path d="M853.115 324.763C847.249 326.363 839.249 332.23 834.849 338.096C830.715 343.563 825.115 355.696 825.115 359.163C825.115 362.896 824.449 362.63 819.115 356.63C812.449 349.296 802.449 344.763 802.449 349.03C802.449 350.23 800.049 351.296 796.182 351.963C792.715 352.63 790.049 353.696 790.182 354.496C790.449 356.63 795.782 356.896 801.382 355.163C806.315 353.83 806.849 353.963 814.449 359.296C820.982 363.83 822.715 365.963 823.915 370.363C824.849 373.43 826.582 379.03 827.915 382.763C829.249 386.63 829.915 389.83 829.382 389.83C828.849 389.83 825.249 388.63 821.382 387.163C807.915 382.096 790.715 384.363 780.849 392.496C775.649 396.896 769.115 408.896 769.115 414.23C769.115 416.896 771.249 419.163 773.782 419.163C774.315 419.163 776.849 412.363 777.649 408.23C778.715 403.296 784.449 396.896 790.982 393.563C794.982 391.43 798.849 390.63 805.782 390.63C819.115 390.63 829.915 394.763 843.115 405.163C860.715 418.896 871.249 431.43 880.182 449.43C886.449 461.963 895.115 492.763 898.582 515.163C900.715 529.163 902.049 533.696 907.115 544.096C910.715 551.43 913.915 556.496 915.115 556.496C916.182 556.496 917.115 557.03 917.115 557.83C917.115 559.563 916.982 559.563 912.182 557.163C906.315 554.23 896.182 553.163 893.782 555.163C890.849 557.696 892.449 558.763 900.182 559.83C910.315 561.163 916.982 564.63 924.049 572.096C932.849 581.563 936.049 588.63 936.849 599.83C938.449 625.163 926.049 645.696 898.315 663.83C891.249 668.496 884.982 672.896 884.582 673.696C882.982 676.363 881.649 675.296 881.382 671.03C880.715 662.896 874.849 654.496 867.782 651.696C860.715 648.896 845.515 653.963 847.249 658.496C847.915 660.096 849.115 660.363 852.982 659.563C864.182 657.296 872.449 660.096 873.782 666.896C874.182 668.896 875.115 672.363 875.649 674.763C876.715 678.63 876.182 679.696 868.849 688.763C864.449 694.096 858.982 701.696 856.849 705.43C854.715 709.296 852.449 712.763 852.049 713.03C851.515 713.296 850.982 708.63 850.982 702.496C850.715 693.03 850.182 690.363 846.982 684.363C842.849 676.763 835.782 671.03 827.382 668.496C823.515 667.296 821.782 667.43 820.315 668.63C817.382 671.03 818.049 672.496 822.315 672.496C824.449 672.496 826.449 672.896 826.715 673.43C826.982 674.096 829.382 675.563 832.049 676.763C840.982 680.896 847.649 695.963 845.782 707.83C845.249 710.763 842.315 721.83 839.115 732.496C831.115 758.496 829.115 767.563 829.115 777.563V785.83L821.515 779.696C805.915 767.03 793.115 765.03 777.782 773.163C772.849 775.83 767.115 779.163 765.115 780.763C762.049 783.03 759.915 783.43 753.249 782.896C748.449 782.63 744.315 781.43 742.849 780.23C740.715 778.23 740.182 778.23 737.782 780.096C736.049 781.43 735.649 782.363 736.715 782.763C737.515 783.03 739.515 784.496 741.249 785.963C742.849 787.296 744.582 788.496 744.982 788.496C745.382 788.496 748.849 788.896 752.582 789.296C756.715 789.83 760.582 789.43 762.315 788.63C765.649 786.763 765.649 786.896 763.115 792.896C757.249 807.03 766.315 825.03 780.715 827.963C786.582 829.163 795.115 826.363 799.649 821.696C806.849 814.496 804.582 800.496 796.315 800.496C790.715 800.496 788.582 806.896 792.582 811.296C793.782 812.63 795.515 813.296 796.582 812.896C799.915 811.696 798.582 814.763 794.315 818.363C787.115 824.496 775.649 822.096 770.449 813.43C768.582 810.496 767.782 806.763 767.782 801.696C767.782 795.43 768.449 793.03 772.182 787.696C785.515 767.563 814.582 771.963 826.982 796.23C830.449 802.896 830.049 818.63 826.315 825.963C820.982 836.496 814.982 842.496 804.315 847.963C795.649 852.363 792.982 853.03 785.382 853.03C775.249 853.03 764.849 850.63 759.515 846.896C757.649 845.563 755.515 844.496 754.849 844.496C752.582 844.496 744.049 834.496 740.715 827.83C732.715 811.83 722.315 805.163 705.782 805.296C691.782 805.43 673.782 815.03 670.182 824.363L668.849 827.83L665.782 824.23C664.182 822.23 662.449 819.83 662.182 818.896C661.649 817.43 661.115 817.43 659.382 819.03C656.182 821.696 656.582 822.896 662.315 828.496C666.182 832.363 667.115 833.963 665.915 835.163C663.382 837.696 664.049 861.696 666.849 866.763C669.515 871.83 668.849 872.096 660.982 868.496C653.249 865.03 642.315 865.03 634.449 868.63C625.649 872.63 624.049 876.23 629.782 878.896C634.582 881.163 635.782 880.896 635.782 877.696C635.782 875.83 637.249 874.363 640.715 873.03C648.182 869.83 655.649 871.963 670.182 881.03C674.982 884.096 678.315 885.296 680.582 884.763L683.915 884.096L681.249 881.296C676.982 876.63 671.782 865.03 670.449 857.03C668.849 847.296 670.049 838.763 674.049 830.63C677.915 822.896 682.049 819.03 691.515 814.363C697.782 811.163 699.649 810.896 709.115 811.43C718.049 811.963 720.315 812.63 724.449 815.696C730.582 820.496 734.049 825.963 735.915 834.496C737.249 840.63 737.115 841.963 734.582 846.763C727.915 859.963 713.115 863.03 705.115 852.763C701.515 848.23 701.782 845.83 705.782 845.83C710.449 845.83 712.449 840.763 709.115 837.296C706.182 834.363 701.915 835.43 698.982 839.963C690.449 852.896 708.315 869.296 724.449 863.163C730.982 860.63 738.449 853.563 740.049 848.23C740.849 845.43 742.049 843.163 742.715 843.163C744.315 843.163 759.915 855.43 759.115 856.23C758.849 856.496 757.515 856.363 756.182 855.83C754.849 855.163 753.249 854.896 752.715 855.03C752.182 855.03 750.049 853.696 748.182 851.83C746.182 850.096 744.449 848.763 744.182 848.896C744.049 849.163 744.449 853.03 745.115 857.43C746.449 865.83 745.382 871.963 742.049 874.096C740.982 874.763 741.249 875.163 742.849 875.163C746.182 875.163 751.249 869.296 752.315 864.496C752.849 861.83 753.915 860.496 755.515 860.496C756.715 860.496 759.249 859.563 760.982 858.363C763.649 856.496 764.982 856.363 771.915 857.83C776.315 858.763 782.849 859.163 786.849 858.763C794.582 857.83 812.449 849.43 821.782 842.363C828.582 837.03 833.782 827.03 835.115 816.763L836.049 809.83L839.249 816.363C843.382 824.496 847.515 828.496 849.115 825.83C849.782 824.763 849.115 822.363 847.115 819.296C832.049 796.363 830.449 767.963 842.849 744.096C850.982 728.363 866.449 722.363 884.182 727.696C893.115 730.363 897.515 734.096 901.515 742.363C906.582 752.63 906.449 761.83 901.249 769.963C891.515 785.43 868.715 782.496 866.849 765.43C866.315 760.496 866.582 758.496 868.449 756.496C871.382 753.296 873.115 753.03 873.115 755.83C873.115 758.096 876.182 758.496 879.915 756.496C883.249 754.63 883.249 749.03 879.915 747.163C871.249 742.63 859.649 751.696 860.449 762.496C860.582 764.63 860.849 767.83 860.849 769.43C861.249 774.096 869.915 782.896 875.249 783.963C877.782 784.363 879.782 785.163 879.782 785.696C879.782 786.096 877.649 788.496 875.115 791.03C871.249 794.763 864.449 808.23 865.782 809.563C866.049 809.83 869.915 806.363 874.582 801.963C879.115 797.43 885.115 791.83 887.782 789.43C893.115 784.896 907.649 767.03 910.449 761.83C914.315 754.496 908.049 736.63 898.715 728.63L892.715 723.43L895.382 719.696C900.449 712.23 905.115 700.896 905.115 695.83C905.115 689.163 899.382 679.163 895.649 679.163C893.649 679.163 893.115 679.83 893.649 681.163C894.049 682.363 895.382 686.763 896.449 691.163C898.315 698.23 898.315 699.563 896.315 705.43C895.115 708.896 892.982 713.963 891.515 716.763C888.582 721.83 887.649 721.963 876.715 719.83C871.915 718.896 858.315 722.096 853.782 725.296C851.249 727.03 849.115 727.963 849.115 727.43C849.115 727.03 851.382 722.896 854.049 718.496C868.982 693.963 893.782 669.563 910.715 662.63C927.115 655.83 946.849 657.163 957.515 665.83C959.649 667.43 960.049 667.43 961.249 665.83C963.515 662.23 961.915 660.363 953.115 656.496C945.782 653.163 942.715 652.63 933.249 652.496C923.915 652.496 922.315 652.23 924.049 650.763C927.915 647.696 934.582 636.63 939.249 625.163C946.315 608.363 956.315 600.496 970.582 600.496C975.382 600.496 978.182 597.83 976.315 595.03C974.182 591.43 955.915 595.296 948.449 601.03C946.049 602.896 943.782 604.496 943.382 604.496C943.115 604.496 942.849 602.23 942.715 599.43C942.315 591.163 939.249 583.03 932.715 573.563C925.915 563.563 924.315 557.163 925.515 544.363C926.449 533.696 932.182 523.696 940.182 518.763C950.315 512.363 962.849 512.23 970.315 518.496C975.115 522.63 975.782 522.63 975.782 518.63C975.782 516.763 974.582 514.496 972.982 513.296C970.449 511.563 970.315 510.896 971.649 507.03C974.715 498.363 972.315 496.23 967.649 503.563C964.982 507.563 964.182 507.83 957.249 507.963C953.115 507.963 948.182 508.363 946.182 508.896C942.715 509.83 942.582 509.696 943.782 506.63C945.382 502.23 941.915 490.363 938.449 488.496C937.115 487.83 934.315 487.163 932.315 487.163C926.715 487.163 920.315 482.496 919.115 477.43C918.049 473.43 918.049 473.296 917.515 476.63C917.249 478.496 917.649 481.563 918.315 483.563C919.782 487.563 929.649 495.163 933.115 495.163C935.249 495.163 939.782 503.43 939.782 507.163C939.782 507.83 936.849 511.696 933.115 515.83C924.849 524.896 921.515 531.43 920.315 540.63C918.715 553.296 918.049 553.696 913.515 544.896C908.315 535.03 904.449 522.63 901.115 504.63C899.782 496.896 897.515 485.963 896.315 480.496C893.382 466.763 894.315 452.763 898.849 443.163C907.515 424.896 925.515 416.496 942.449 423.03C950.982 426.363 950.449 426.23 950.449 424.363C950.449 423.563 948.715 421.163 946.582 419.03C942.849 415.43 942.049 415.163 932.182 415.163C920.715 415.163 912.315 418.23 904.182 425.03C899.249 429.163 892.049 442.763 890.982 450.096C890.449 452.896 889.782 455.163 889.249 455.163C888.849 455.163 885.915 449.83 882.849 443.43C876.049 429.296 868.849 419.696 856.449 408.63C851.382 403.963 844.982 398.23 842.449 395.83C834.315 388.363 831.115 380.23 831.115 367.163C831.115 353.83 833.915 346.763 842.582 338.096C856.182 324.763 878.449 326.23 890.049 341.43C893.249 345.563 893.782 347.43 893.649 354.63C893.515 366.896 888.315 373.296 877.249 374.763C872.582 375.43 871.382 375.03 867.782 371.43C862.849 366.496 862.182 361.163 866.849 362.23C872.049 363.563 873.649 361.43 871.115 356.496C869.382 353.163 868.315 352.363 866.049 353.03C864.449 353.43 862.715 353.83 862.182 353.83C860.715 353.83 857.115 361.296 857.115 364.496C857.115 371.83 865.782 380.496 873.249 380.496C876.449 380.496 876.849 381.03 877.515 387.563C878.982 401.83 883.782 408.096 894.449 409.43C902.449 410.496 909.782 405.296 912.182 396.896C913.515 392.23 913.649 390.23 912.582 389.563C910.049 387.83 909.515 388.363 905.915 394.496C900.582 403.563 895.115 405.43 888.715 400.363C884.849 397.43 881.782 388.496 882.982 383.83C883.382 382.23 885.782 379.43 888.449 377.696C890.982 375.963 894.582 371.696 896.449 368.096C898.449 364.63 900.182 361.83 900.449 361.83C900.715 361.83 904.582 363.43 908.982 365.296C916.849 368.763 921.915 368.763 920.849 365.563C920.449 364.63 916.182 361.83 911.382 359.163C903.382 355.03 902.315 353.963 900.982 349.163C898.715 340.763 890.315 330.63 882.315 326.63C876.715 323.83 873.382 323.163 866.582 323.296C861.649 323.296 855.649 323.963 853.115 324.763ZM910.582 393.963C909.915 395.696 909.249 396.496 909.249 395.563C909.115 393.563 910.582 389.563 911.249 390.23C911.649 390.496 911.249 392.23 910.582 393.963Z" fill="#8F76E8"/>
<path d="M762.316 362.763C762.183 363.43 762.316 365.963 762.449 368.497C762.849 380.097 746.316 385.563 732.983 378.23C722.849 372.763 721.783 377.43 731.649 383.963C742.316 390.897 756.716 389.163 764.983 379.83C768.983 375.163 771.383 367.563 769.916 363.83C769.249 361.83 762.583 360.897 762.316 362.763Z" fill="#8F76E8"/>
<path d="M990.584 401.83C992.45 405.963 993.117 406.63 993.117 405.03C993.117 404.23 992.184 402.496 990.984 401.03C989.117 398.63 989.117 398.63 990.584 401.83Z" fill="#8F76E8"/>
<path d="M800.18 412.63C794.714 416.097 795.647 417.83 802.58 417.83C805.514 417.83 809.78 418.763 812.047 419.963C818.047 423.03 819.247 420.497 814.18 415.563C808.18 409.963 805.247 409.297 800.18 412.63Z" fill="#8F76E8"/>
<path d="M777.649 431.163C748.182 435.163 724.716 450.23 707.782 475.963C699.116 489.297 694.449 504.23 693.516 521.83C692.582 540.097 695.249 553.03 703.249 569.563C708.316 579.963 711.116 583.83 720.849 593.563C734.049 606.763 742.716 612.363 759.382 618.363C770.316 622.23 772.316 622.497 788.449 622.497C807.382 622.363 814.716 620.897 829.916 613.697C842.049 607.963 853.249 599.297 861.782 588.897C892.182 552.097 891.116 496.763 859.382 462.23C852.849 455.03 838.716 444.63 829.382 439.963C815.249 432.763 793.249 429.163 777.649 431.163ZM813.116 451.163C830.582 457.163 846.982 469.43 855.649 482.897C863.516 495.297 866.716 506.23 867.382 523.83C867.916 538.097 867.649 540.897 864.849 549.83C855.649 578.363 835.916 597.163 806.716 605.163C796.716 607.963 777.382 607.297 767.116 603.83C744.582 596.097 726.316 581.163 717.916 563.03C711.782 550.097 709.116 539.43 709.116 527.83C709.249 490.497 731.916 460.497 768.449 449.563C779.516 446.23 800.982 447.03 813.116 451.163Z" fill="#8F76E8"/>
<path d="M765.515 457.03C741.249 466.096 724.182 484.496 717.782 508.496C713.115 525.963 716.582 550.763 725.915 566.096C732.982 577.696 747.249 590.096 759.115 595.163C770.315 599.83 787.515 602.496 797.782 601.163C825.382 597.696 847.649 579.563 857.782 552.496C861.115 543.83 861.649 540.496 861.649 527.163C861.782 514.363 861.249 510.363 858.715 502.896C850.582 479.43 831.115 461.43 807.649 455.83C794.449 452.763 775.649 453.296 765.515 457.03ZM779.249 466.496C773.782 479.43 775.515 495.83 783.915 510.763C786.049 514.63 787.249 517.83 786.715 517.83C784.715 517.83 761.515 493.296 759.249 488.896C755.382 481.296 757.115 472.496 763.649 466.63C766.849 463.83 780.315 459.03 780.849 460.496C781.115 461.163 780.315 463.83 779.249 466.496ZM804.182 461.83C820.449 467.963 824.849 480.763 815.382 494.496C811.115 500.763 794.182 517.83 792.982 517.163C792.449 516.763 794.182 511.563 796.849 505.43C801.249 495.563 801.782 493.43 801.782 483.163C801.649 474.496 800.982 470.363 798.849 465.43C797.249 461.963 796.182 459.163 796.449 459.163C796.715 459.163 800.182 460.363 804.182 461.83ZM791.649 483.963C791.915 496.096 789.249 503.296 787.115 496.496C785.649 491.963 786.182 476.763 787.915 473.563L789.649 470.496L790.582 473.83C791.115 475.696 791.515 480.23 791.649 483.963ZM752.315 498.496C756.982 500.763 779.382 522.63 778.182 523.83C777.782 524.23 773.382 522.63 768.315 520.23C756.315 514.63 741.649 513.563 729.915 517.563L722.182 520.23L722.982 514.63C723.515 511.696 724.982 507.43 726.182 505.163C730.715 497.43 743.249 494.23 752.315 498.496ZM845.382 498.763C849.915 501.43 853.782 508.096 855.249 515.83C856.049 520.496 855.915 520.896 853.649 519.83C843.515 515.563 839.782 514.896 828.982 515.43C819.782 515.83 816.315 516.63 810.582 519.696C806.715 521.696 802.849 523.03 802.049 522.763C799.915 522.096 819.249 502.23 825.115 499.03C831.115 495.963 840.182 495.83 845.382 498.763ZM758.849 526.096L761.782 527.696L758.449 528.63C751.382 530.63 734.449 529.563 734.449 527.03C734.449 524.496 754.449 523.696 758.849 526.096ZM843.382 526.363C845.249 528.096 841.915 529.163 832.715 529.563C827.382 529.83 821.649 529.43 819.782 528.763L816.449 527.43L819.782 525.963C823.249 524.496 841.782 524.763 843.382 526.363ZM768.315 543.03C754.982 555.563 751.249 557.83 743.782 557.83C736.582 557.83 730.182 554.23 726.449 548.23C723.915 543.963 721.782 536.763 722.715 535.83C722.982 535.563 725.915 536.23 729.115 537.43C740.982 541.563 765.249 538.496 775.115 531.696C777.115 530.23 777.915 530.23 778.315 531.43C778.582 532.363 774.049 537.563 768.315 543.03ZM807.115 533.963C810.182 536.096 827.115 540.496 832.315 540.496C835.515 540.496 841.782 539.296 846.315 537.696C850.982 536.23 854.982 535.296 855.249 535.563C856.715 536.896 851.382 549.696 848.182 552.763C836.715 563.43 828.449 561.43 810.315 543.563C803.782 537.163 798.449 531.563 798.449 530.896C798.449 529.963 804.315 531.963 807.115 533.963ZM783.249 546.763C775.115 562.496 773.915 577.563 779.782 589.163L782.315 594.096L776.849 593.296C761.382 590.763 753.915 579.83 758.982 566.763C760.449 562.763 764.982 557.296 772.982 549.43C779.515 543.03 785.515 537.83 786.315 537.83C787.115 537.83 785.782 541.83 783.249 546.763ZM807.515 551.83C820.849 565.963 822.849 570.763 818.982 580.23C816.049 587.163 810.182 591.963 802.849 593.296C797.382 594.363 796.449 593.563 798.449 589.83C803.649 580.096 802.582 560.096 796.182 547.296C791.115 537.163 791.115 537.43 794.049 539.03C795.515 539.696 801.515 545.563 807.515 551.83ZM790.982 560.63C792.182 567.03 791.915 575.963 790.315 580.096C788.982 583.563 788.715 583.696 787.782 581.163C786.449 577.963 786.049 561.696 787.249 558.63C788.582 555.296 790.049 556.096 790.982 560.63Z" fill="#8F76E8"/>
<path d="M177.114 450.763C171.781 457.296 168.981 461.03 170.981 459.163C174.714 455.83 188.314 439.163 187.248 439.163C186.981 439.163 182.448 444.363 177.114 450.763Z" fill="#8F76E8"/>
<path d="M928.582 443.297C925.782 445.43 925.115 447.163 925.115 451.563C925.115 459.297 927.515 463.297 934.182 466.897C939.515 469.83 940.315 469.963 946.849 468.363C958.449 465.697 963.515 458.097 959.782 449.163L958.715 446.497L957.782 449.163C955.382 456.363 954.182 457.963 949.249 460.497C942.049 464.097 938.182 463.83 933.915 459.697C929.649 455.297 929.515 454.097 933.649 452.63C937.249 451.163 938.582 447.697 936.982 443.43C935.649 439.697 933.115 439.697 928.582 443.297Z" fill="#8F76E8"/>
<path d="M164.981 465.43C163.248 467.563 163.381 467.696 165.515 465.963C166.715 465.03 167.781 463.963 167.781 463.696C167.781 462.63 166.715 463.296 164.981 465.43Z" fill="#8F76E8"/>
<path d="M362.448 472.097C353.514 473.03 331.248 478.23 320.448 481.83C305.781 486.763 286.048 497.03 268.581 508.497C252.981 518.763 230.314 540.097 222.714 551.43C218.448 557.963 218.714 560.097 223.114 555.163C224.448 553.697 225.781 552.763 226.181 553.163C226.448 553.43 223.114 557.83 218.448 562.763C207.514 574.763 190.848 599.697 181.648 617.963C177.648 626.097 174.581 633.03 174.848 633.297C175.114 633.563 177.914 629.963 181.114 625.163C184.181 620.23 186.981 616.63 187.248 616.897C187.648 617.163 184.581 623.697 180.581 631.297C167.248 656.763 157.381 685.963 155.114 707.297C154.048 717.297 155.781 713.163 162.181 690.497C165.114 680.23 169.248 667.03 171.381 661.163C182.048 633.03 205.381 593.963 221.648 577.163C224.714 574.097 225.648 572.63 212.714 591.697C196.181 615.963 175.248 664.363 168.048 695.163C161.114 724.763 158.048 751.43 158.181 783.83C158.181 798.23 158.048 799.43 156.448 795.697C155.514 793.43 154.981 790.097 155.114 788.23C155.381 786.363 154.981 784.097 154.448 783.163C152.981 780.763 152.848 797.697 154.448 813.163C155.114 820.497 156.048 831.03 156.448 836.497C156.981 841.963 157.914 849.163 158.714 852.497C159.381 855.83 160.181 860.23 160.448 862.497C160.714 864.63 161.381 868.497 161.914 870.763C162.448 873.697 162.314 875.163 161.248 875.163C160.448 875.163 159.781 873.83 159.781 872.097C159.781 870.497 158.848 867.43 157.781 865.297C155.248 860.497 151.114 839.83 149.114 822.497C146.581 800.497 146.181 747.297 148.448 731.83C149.514 724.497 150.714 714.897 151.114 710.497C151.914 702.763 157.514 676.497 159.381 671.697C159.914 670.097 159.781 669.697 158.714 670.363C156.581 671.697 156.714 671.03 159.781 663.697C161.248 660.23 162.314 657.163 162.048 656.897C160.848 655.83 155.914 670.097 156.714 672.097C157.381 673.697 157.114 673.963 155.648 673.163C154.581 672.63 154.181 672.497 154.714 673.163C155.248 673.697 154.314 676.897 152.581 680.363C145.648 694.097 138.448 722.363 134.448 751.83C129.781 785.297 129.381 786.097 129.248 764.097C129.114 747.697 129.648 741.83 132.314 730.097C135.648 715.03 138.048 696.363 135.648 703.83C133.914 709.03 128.314 734.23 127.248 741.43C126.848 744.63 125.514 749.697 124.581 752.763C119.781 767.03 119.381 829.697 123.914 868.497C125.648 884.763 133.648 924.097 138.048 939.03C139.914 945.297 142.448 954.363 143.781 959.163C145.781 966.63 147.781 971.697 153.114 983.83C153.781 985.297 155.914 990.363 157.781 995.163C167.114 1018.1 187.114 1053.03 207.381 1081.83C220.048 1099.83 249.514 1131.3 269.114 1147.7C284.581 1160.63 310.048 1178.9 330.314 1191.56C349.914 1203.83 382.181 1219.83 389.781 1221.16C392.714 1221.56 397.514 1223.03 400.448 1224.5C403.381 1225.83 413.914 1229.3 423.781 1232.36C433.648 1235.43 442.848 1238.5 444.048 1239.16C445.381 1239.96 447.781 1240.5 449.381 1240.5C451.114 1240.5 456.981 1241.96 462.714 1243.83C484.448 1250.76 533.781 1255.96 563.781 1254.5C575.114 1253.96 586.448 1253.56 588.848 1253.7C591.381 1253.7 594.314 1253.3 595.514 1252.63C596.848 1251.83 586.981 1251.43 569.514 1251.43C542.714 1251.43 523.781 1250.1 503.114 1246.9C488.181 1244.5 496.581 1244.23 516.048 1246.36C525.781 1247.56 539.781 1248.36 547.114 1248.36L560.448 1248.1L548.448 1246.5C541.914 1245.56 534.714 1244.5 532.448 1244.1C530.314 1243.7 522.714 1242.63 515.781 1241.83C500.714 1239.96 482.848 1236.76 479.114 1235.3C477.648 1234.63 473.114 1233.43 469.114 1232.5C457.914 1229.96 417.381 1215.96 409.381 1211.96C405.514 1209.96 396.848 1205.96 390.314 1203.16C383.648 1200.23 373.381 1194.76 367.381 1190.76C361.381 1186.9 350.448 1179.83 343.114 1175.3C335.781 1170.76 328.048 1165.7 325.781 1164.1C323.648 1162.5 318.048 1158.5 313.381 1155.3C308.714 1152.23 305.114 1149.3 305.514 1149.03C305.781 1148.63 310.848 1151.7 316.581 1155.7C358.581 1184.5 399.114 1204.36 442.448 1217.03C451.648 1219.7 461.781 1222.76 465.114 1223.83C475.648 1227.3 489.381 1229.56 503.114 1230.36C514.314 1230.9 515.648 1230.76 511.514 1229.56C508.714 1228.76 506.448 1227.56 506.448 1227.03C506.448 1225.3 511.914 1224.76 516.181 1226.1C522.714 1228.1 577.114 1228.9 593.781 1227.3C623.248 1224.5 635.381 1222.9 646.448 1220.36C661.381 1216.9 687.781 1208.5 687.781 1207.16C687.781 1206.63 689.381 1205.7 691.514 1205.16C695.381 1204.23 711.114 1197.7 718.181 1194.1C725.248 1190.5 722.981 1189.83 714.848 1193.3C710.581 1195.03 706.314 1196.5 705.381 1196.5C704.448 1196.5 702.314 1197.43 700.714 1198.5C698.981 1199.56 694.048 1201.03 689.648 1201.7C685.381 1202.36 672.848 1204.76 661.781 1207.03C650.848 1209.43 637.248 1211.83 631.781 1212.63C626.314 1213.3 617.914 1214.36 613.114 1215.03C596.714 1217.43 543.648 1213.96 511.781 1208.5C496.581 1205.83 461.914 1196.9 465.781 1196.63C466.581 1196.5 474.981 1198.23 484.448 1200.36C494.048 1202.5 507.781 1205.03 515.114 1206.1C531.514 1208.23 597.114 1208.36 603.114 1206.1C606.181 1205.03 602.581 1204.76 586.714 1205.16C575.514 1205.3 562.314 1205.03 557.381 1204.36C552.448 1203.7 542.181 1202.63 534.448 1201.83C480.314 1196.5 414.981 1173.3 376.181 1145.56C361.514 1135.16 342.581 1118.23 351.114 1123.3C354.048 1125.03 361.514 1129.96 367.648 1134.36C379.514 1142.76 381.914 1144.1 403.114 1154.76C420.314 1163.43 435.781 1170.23 436.448 1169.56C436.848 1169.16 433.381 1167.16 428.714 1165.03C421.648 1161.7 410.314 1155.56 402.314 1150.5C401.114 1149.83 394.181 1145.56 386.981 1141.3C342.181 1114.63 309.648 1081.96 269.781 1023.83C266.314 1018.63 262.448 1013.3 261.114 1011.83C258.581 1008.9 250.314 993.963 241.648 976.497C212.181 917.297 196.848 848.23 198.981 784.497C200.714 730.497 212.714 677.297 231.914 638.63C239.114 624.097 240.848 621.563 242.581 622.63C243.248 623.03 243.781 622.497 243.781 621.563C243.781 619.43 259.114 593.03 260.981 591.83C261.781 591.43 259.381 596.63 255.914 603.43C252.314 610.23 246.981 621.697 243.914 628.897C236.848 645.43 223.781 684.363 223.781 688.763C223.781 690.63 223.381 692.497 222.848 693.03C221.781 694.097 219.914 703.43 216.448 726.497C213.381 746.097 212.448 784.23 214.314 809.83C215.781 829.697 216.714 835.163 219.781 843.83C220.314 845.163 221.114 838.363 221.514 828.497C222.981 798.097 227.781 776.097 238.714 749.83C248.981 725.563 258.048 713.43 281.114 692.897C292.981 682.363 294.314 680.763 294.448 676.497C294.581 663.963 301.781 636.897 309.381 620.497C316.448 605.163 333.248 581.697 345.248 570.363C362.981 553.83 387.248 544.763 409.781 546.363C428.581 547.697 442.314 553.43 451.514 563.83C454.714 567.43 456.581 568.897 456.181 567.43C454.981 562.897 442.048 550.497 434.581 546.763C430.581 544.763 428.314 543.163 429.514 543.163C432.714 543.163 442.314 547.163 448.048 550.897C456.181 556.23 467.914 573.83 467.648 580.363C467.648 581.563 466.448 579.43 464.981 575.83C463.514 572.097 461.648 568.497 460.848 567.83C459.781 566.897 459.648 567.297 460.448 569.163C462.314 574.097 465.381 583.83 466.448 588.497C467.248 591.83 467.114 593.697 465.914 595.163C464.848 596.23 463.381 599.43 462.581 602.097C460.981 606.897 456.314 611.43 446.581 617.297L442.048 620.097L449.248 619.697L456.448 619.163L451.914 621.297C446.714 623.563 438.848 623.03 432.714 619.83C430.714 618.897 429.114 618.497 429.114 619.03C429.114 621.03 421.914 618.763 419.514 615.963C417.248 613.163 417.248 613.163 417.114 616.763C417.114 619.163 418.848 622.497 422.181 626.097C428.448 633.297 429.114 633.83 432.848 633.83C434.581 633.83 435.781 634.63 435.781 635.83C435.781 636.897 436.848 637.83 438.181 637.83C439.514 637.83 441.248 638.497 442.048 639.297C443.648 640.897 465.114 640.363 469.781 638.63C471.248 638.097 470.314 638.897 467.781 640.497C460.181 645.03 468.048 642.497 481.914 635.83C500.048 627.163 507.514 617.163 512.714 594.63C517.781 572.097 508.048 534.897 492.714 518.23C463.781 486.763 408.581 467.297 362.448 472.097ZM494.581 532.763C496.714 536.63 494.848 535.563 491.648 530.763C489.381 527.697 489.248 527.03 490.848 528.363C492.181 529.43 493.914 531.43 494.581 532.763ZM223.781 564.897C223.781 565.163 222.581 566.497 221.114 567.83C217.914 570.63 217.514 569.697 220.581 566.63C222.581 564.63 223.781 563.963 223.781 564.897ZM198.181 599.43C197.114 601.163 195.114 604.497 193.914 606.897C192.581 609.43 191.248 611.163 190.848 610.763C190.581 610.363 191.248 608.497 192.314 606.63C193.514 604.763 195.381 601.697 196.448 599.83C197.648 597.963 198.848 596.497 199.248 596.497C199.781 596.497 199.248 597.83 198.181 599.43ZM160.448 826.897C159.914 830.363 159.114 832.363 158.848 831.43C158.448 830.497 158.581 826.897 159.114 823.43C159.648 819.963 160.448 817.963 160.714 818.897C161.114 819.83 160.981 823.43 160.448 826.897ZM161.381 837.697C161.648 839.963 161.514 841.43 160.848 841.03C159.781 840.363 159.248 833.83 160.314 833.83C160.581 833.83 161.114 835.563 161.381 837.697ZM164.714 856.763C164.314 857.83 163.914 857.43 163.914 855.963C163.781 854.497 164.181 853.697 164.581 854.23C164.981 854.63 165.114 855.83 164.714 856.763ZM174.048 904.763C173.648 905.83 173.248 905.43 173.248 903.963C173.114 902.497 173.514 901.697 173.914 902.23C174.314 902.63 174.448 903.83 174.048 904.763Z" fill="#8F76E8"/>
<path d="M1047.91 513.297C1047.91 514.763 1048.31 515.163 1048.71 514.097C1049.11 513.163 1048.98 511.963 1048.58 511.563C1048.18 511.03 1047.78 511.83 1047.91 513.297Z" fill="#8F76E8"/>
<path d="M1049.12 517.43C1049.12 518.096 1050.32 526.896 1051.78 537.163C1055.25 560.763 1056.58 583.563 1054.45 580.096C1053.52 578.763 1053.25 576.763 1053.65 575.696C1054.58 573.163 1052.05 555.296 1050.32 552.496C1049.52 551.296 1049.38 556.23 1049.92 565.163C1050.98 583.563 1048.58 615.563 1044.98 632.363C1043.52 639.43 1040.85 651.696 1039.25 659.83C1035.78 675.963 1025.52 708.23 1021.12 716.096C1019.52 718.896 1018.72 719.963 1019.25 718.496C1020.72 714.496 1030.18 676.63 1031.12 671.163C1032.32 663.563 1029.92 669.03 1023.78 687.43C1015.65 711.963 1003.78 735.163 984.315 764.63C968.849 788.096 965.382 792.496 946.582 811.563C894.982 864.096 837.649 897.163 770.449 913.296C745.382 919.43 709.115 923.696 709.115 920.63C709.115 920.096 715.915 918.896 724.182 918.096C732.849 917.163 739.649 915.83 740.449 914.896C741.249 913.963 744.849 913.03 748.449 912.763C755.515 912.496 785.115 903.296 785.115 901.563C785.115 899.83 779.515 900.363 772.315 902.496C742.715 911.563 692.315 915.43 667.382 910.63C662.049 909.563 652.449 907.83 646.049 906.496C625.649 902.763 597.782 892.23 576.049 880.363C560.982 872.096 534.449 852.23 520.049 838.496C498.582 818.096 485.249 802.096 467.249 775.163C435.915 728.363 410.982 705.563 379.649 695.03C359.115 688.096 338.049 688.096 314.982 695.296C310.182 696.763 306.449 698.363 306.849 698.763C307.249 699.163 310.449 698.496 314.049 697.43C324.449 694.23 351.382 694.496 365.515 697.696C386.449 702.63 405.249 713.83 421.782 731.43C436.049 746.496 445.249 760.363 461.915 792.763C478.049 823.696 478.449 824.496 490.315 842.496C507.515 868.896 518.982 882.363 539.915 901.163C552.449 912.363 557.649 916.496 569.115 923.963C596.049 941.43 622.449 952.763 655.782 960.763C670.849 964.363 675.249 964.763 701.782 965.43C734.315 966.23 753.649 964.496 780.582 958.496C798.182 954.496 800.982 954.363 793.115 957.963C786.315 961.03 762.449 967.163 756.449 967.296C754.315 967.296 750.049 968.23 747.115 969.296C741.782 971.03 741.915 971.163 751.649 970.496C763.115 969.696 783.382 965.696 798.849 961.03C810.182 957.696 816.982 955.296 844.982 944.23C854.049 940.63 861.649 937.963 861.915 938.23C862.582 938.896 841.915 949.03 836.982 950.496C835.249 951.03 833.249 951.963 832.449 952.496C829.915 954.496 796.982 965.83 782.315 969.83C726.315 985.163 665.915 983.43 612.715 965.03C573.915 951.696 525.249 916.496 498.182 882.23C479.649 858.763 471.515 845.296 454.449 809.963C447.249 794.896 439.515 779.43 437.515 775.696C435.515 771.963 432.582 766.896 431.249 764.363C426.315 755.696 411.915 737.03 404.849 730.23C377.115 704.096 321.782 700.763 288.315 723.43C278.315 730.096 266.182 742.896 260.182 753.163C249.515 771.163 241.115 797.563 241.115 812.896V818.496L245.115 811.296C247.382 807.296 249.115 803.43 249.115 802.496C249.115 801.696 253.515 796.63 258.982 791.43C270.182 780.496 278.582 776.096 293.915 772.896C311.782 769.296 329.249 774.23 342.449 786.63C357.115 800.363 365.515 814.496 374.315 840.496C383.115 866.096 390.582 886.496 391.915 889.03C392.715 890.496 394.582 894.896 395.915 898.896C401.915 916.363 425.782 956.763 440.982 975.163C458.849 996.896 492.582 1027.03 513.915 1040.5C524.182 1046.9 558.449 1063.7 573.649 1069.7C620.715 1088.76 670.715 1094.36 731.782 1087.7C753.515 1085.3 751.382 1085.7 778.449 1078.23C819.649 1066.9 842.982 1056.76 886.849 1031.16C911.649 1016.63 963.249 972.23 981.515 949.43C988.449 940.896 989.649 938.23 984.315 943.563C982.315 945.563 980.182 946.763 979.382 946.23C978.582 945.696 978.449 946.096 979.115 947.163C979.782 948.23 979.515 948.63 978.315 948.23C976.182 947.43 967.782 954.096 951.782 969.296C935.915 984.363 923.915 994.096 910.582 1003.03C897.115 1011.96 895.782 1012.9 895.782 1012.1C895.782 1011.83 899.115 1009.3 903.382 1006.5C919.249 995.963 955.915 963.83 971.515 946.896C984.849 932.23 1000.45 911.83 1009.52 897.296C1013.12 891.43 1018.45 883.163 1021.12 879.163C1027.12 870.096 1028.98 866.496 1024.85 871.696C1017.78 880.63 1017.25 880.763 1021.78 872.496C1037.12 844.763 1053.12 810.63 1051.52 809.163C1051.25 808.896 1047.38 815.296 1042.85 823.563C1016.85 871.03 986.849 909.03 947.382 944.763C931.249 959.43 926.449 963.03 905.782 976.63C891.115 986.363 862.315 1003.16 860.582 1003.16C860.182 1003.16 856.182 1004.9 851.515 1007.03C821.249 1021.03 782.449 1032.23 749.782 1036.5C737.915 1037.96 706.715 1038.5 696.449 1037.3C693.515 1036.9 679.782 1036.1 665.782 1035.43C651.915 1034.76 638.982 1033.56 637.115 1032.9C634.582 1031.83 636.049 1031.56 643.782 1031.96L653.782 1032.5L640.449 1029.3C628.315 1026.36 608.849 1019.83 602.849 1016.76C601.515 1015.96 595.915 1013.83 590.449 1011.83C578.449 1007.43 571.382 1003.56 561.649 996.496C554.182 990.896 551.649 987.83 558.182 992.096C565.115 996.763 567.115 997.83 574.315 1001.3C578.182 1003.16 583.649 1005.03 586.315 1005.43C588.982 1005.96 594.182 1007.7 597.782 1009.43C601.515 1011.03 606.582 1012.5 609.115 1012.5C611.649 1012.5 617.115 1013.83 621.115 1015.3C625.115 1016.76 638.315 1019.43 650.449 1021.16C662.582 1023.03 676.182 1025.16 680.715 1025.96C689.782 1027.56 718.982 1027.83 721.515 1026.23C722.449 1025.7 724.582 1025.43 726.315 1025.7C728.315 1025.96 729.115 1025.56 728.582 1024.63C727.915 1023.56 728.715 1023.56 731.382 1024.63C733.915 1025.56 735.249 1025.56 735.515 1024.63C735.782 1023.83 738.582 1023.16 741.782 1023.16C748.449 1023.16 771.649 1018.9 786.049 1015.03C791.382 1013.7 797.115 1012.5 798.849 1012.5C800.449 1012.5 802.982 1011.7 804.449 1010.63C805.915 1009.56 810.182 1007.83 813.782 1006.76C842.315 998.096 895.649 968.096 924.182 944.763C935.915 935.163 942.182 928.363 933.782 934.363C930.849 936.496 926.715 939.83 924.449 941.83C919.115 946.63 894.849 962.763 882.449 969.696C852.449 986.496 820.582 998.896 782.449 1008.63C764.715 1013.03 758.582 1013.96 740.715 1014.76C729.115 1015.43 718.715 1015.43 717.382 1014.9C716.182 1014.36 719.382 1013.96 724.449 1013.83C741.249 1013.7 760.049 1011.3 771.649 1007.83C777.915 1005.96 786.449 1003.56 790.449 1002.36C798.182 1000.1 816.582 993.43 832.449 987.163C876.449 969.696 914.315 945.963 956.449 909.43C962.315 904.363 968.182 898.896 969.515 897.296C970.982 895.83 973.915 892.363 976.315 889.83C978.582 887.296 983.782 880.896 987.782 875.83C991.782 870.63 997.249 863.696 999.915 860.096C1004.98 853.83 1019.78 830.363 1027.52 816.496C1031.92 808.63 1047.52 770.23 1050.32 760.496C1051.25 757.163 1052.58 753.03 1053.25 751.163C1057.12 740.496 1064.45 707.43 1067.25 688.096C1069.78 670.63 1070.45 660.363 1070.45 640.23C1070.45 626.23 1070.18 615.03 1069.78 615.43C1069.38 615.696 1068.72 622.23 1068.32 629.963C1066.98 653.563 1064.45 670.63 1062.18 671.963C1060.85 672.896 1060.98 669.963 1063.65 649.83C1066.18 630.896 1065.12 568.896 1062.32 570.496C1060.98 571.43 1060.18 568.63 1057.78 553.163C1055.52 538.763 1050.58 516.496 1049.65 516.496C1049.38 516.496 1049.12 516.896 1049.12 517.43ZM1056.98 589.563C1056.98 592.23 1056.45 597.163 1055.92 600.496C1054.98 605.696 1054.72 605.03 1054.58 594.763C1054.45 587.163 1054.98 583.296 1055.78 583.83C1056.58 584.23 1057.12 586.896 1056.98 589.563ZM1055.38 618.096C1054.98 619.163 1054.58 618.763 1054.58 617.296C1054.45 615.83 1054.85 615.03 1055.25 615.563C1055.65 615.963 1055.78 617.163 1055.38 618.096ZM1061.25 680.63C1060.05 683.696 1059.92 683.563 1059.92 679.163C1059.78 676.096 1060.18 675.03 1061.12 675.963C1062.05 676.896 1062.05 678.496 1061.25 680.63ZM340.715 765.83C348.715 767.696 365.915 775.963 372.982 781.296C376.182 783.83 379.515 785.83 380.449 785.83C383.515 785.83 399.249 803.83 405.915 815.163C409.649 821.43 418.049 836.63 424.449 849.163C430.982 861.563 440.582 878.23 445.782 885.963C455.649 900.363 458.982 905.83 457.915 905.83C456.315 905.83 430.715 865.43 421.782 848.496C410.449 827.43 397.915 807.163 390.582 797.963C382.582 788.096 359.515 773.963 341.115 767.696C331.782 764.496 331.649 763.83 340.715 765.83ZM466.049 915.963C465.782 916.23 463.782 914.363 461.782 911.563L458.182 906.496L462.449 910.896C464.849 913.296 466.449 915.563 466.049 915.963ZM803.782 953.03C803.782 953.296 802.849 953.963 801.649 954.363C800.582 954.763 800.049 954.63 800.449 953.83C801.249 952.496 803.782 951.963 803.782 953.03ZM690.849 1022.76C689.915 1023.03 688.315 1023.03 687.515 1022.76C686.582 1022.36 687.249 1022.1 689.115 1022.1C690.982 1022.1 691.649 1022.36 690.849 1022.76Z" fill="#8F76E8"/>
<path d="M151.781 532.496C150.981 533.963 150.714 535.163 150.981 535.163C151.381 535.163 152.314 533.963 153.114 532.496C153.914 531.03 154.181 529.83 153.914 529.83C153.514 529.83 152.581 531.03 151.781 532.496Z" fill="#8F76E8"/>
<path d="M148.581 538.763C147.781 540.63 147.914 540.763 149.248 539.563C150.181 538.63 150.581 537.563 150.181 537.163C149.781 536.763 148.981 537.43 148.581 538.763Z" fill="#8F76E8"/>
<path d="M946.713 540.496C943.38 543.696 942.98 548.096 945.647 554.23C948.713 561.43 953.513 564.896 961.78 565.563C971.38 566.363 976.713 564.096 977.78 558.896C979.113 553.43 977.913 552.896 972.847 557.163C969.113 560.363 967.78 560.63 962.447 559.963C958.313 559.43 955.513 558.096 953.513 555.83C949.647 551.43 949.647 550.63 953.78 547.963C957.78 545.296 958.047 543.03 954.713 540.096C951.513 537.163 950.18 537.296 946.713 540.496Z" fill="#8F76E8"/>
<path d="M145.382 545.163C143.115 550.097 143.515 551.163 145.915 546.763C147.115 544.63 147.782 542.63 147.382 542.363C147.115 542.097 146.182 543.297 145.382 545.163Z" fill="#8F76E8"/>
<path d="M214.582 562.096C212.715 565.163 212.715 565.163 215.649 562.63C218.582 559.963 218.982 559.163 217.382 559.163C216.849 559.163 215.649 560.496 214.582 562.096Z" fill="#8F76E8"/>
<path d="M888.58 588.63C884.447 591.963 884.98 592.763 892.847 595.03C898.447 596.63 898.447 596.63 898.447 602.763C898.447 608.097 897.78 609.43 893.514 613.297C890.18 616.363 887.247 617.83 884.58 617.83C877.647 617.83 870.58 615.163 865.647 610.897C863.114 608.63 860.847 607.03 860.58 607.297C860.447 607.563 858.98 609.963 857.38 612.763C853.247 619.563 845.114 626.497 838.98 628.497C832.447 630.63 830.847 632.097 832.714 633.963C833.78 635.03 836.314 634.897 841.914 633.697C851.114 631.697 857.514 625.963 859.914 617.697L861.647 612.23L864.18 615.697C867.514 620.363 870.447 621.83 880.714 623.963C891.514 626.23 896.58 629.83 898.447 636.497C899.247 639.297 899.78 642.097 899.647 642.763C899.514 643.297 899.514 644.763 899.647 645.83C899.78 648.363 902.847 644.097 904.847 638.363C906.047 634.63 905.78 633.43 902.98 629.43C901.247 626.763 898.847 624.097 897.647 623.43C895.78 622.363 896.047 621.43 899.78 616.23C904.98 608.897 906.447 600.097 903.38 594.23C899.38 586.497 893.914 584.497 888.58 588.63Z" fill="#8F76E8"/>
<path d="M106.448 619.697C105.781 621.697 105.114 624.63 105.248 626.23C105.248 627.964 106.048 626.764 107.114 623.164C109.248 616.63 108.714 613.964 106.448 619.697Z" fill="#8F76E8"/>
<path d="M239.115 627.963C234.182 639.563 231.782 645.963 231.915 647.563C231.915 648.496 232.449 647.963 233.115 646.496C239.515 631.963 242.582 624.096 241.915 623.563C241.515 623.163 240.315 625.163 239.115 627.963Z" fill="#8F76E8"/>
<path d="M966.45 627.43C963.25 632.63 962.85 642.097 965.783 644.497C968.05 646.497 968.583 645.563 969.65 636.497C970.05 633.163 970.716 628.897 971.25 626.763C972.45 621.697 969.783 622.097 966.45 627.43Z" fill="#8F76E8"/>
<path d="M115.383 632.097C114.849 632.497 114.449 633.83 114.449 635.03C114.583 636.763 114.849 636.763 115.916 634.763C117.383 632.23 116.983 630.363 115.383 632.097Z" fill="#8F76E8"/>
<path d="M100.448 648.497C99.9151 650.763 99.7818 653.03 100.182 653.297C100.582 653.697 101.248 652.097 101.782 649.83C102.315 647.563 102.448 645.297 102.048 645.03C101.648 644.63 100.982 646.23 100.448 648.497Z" fill="#8F76E8"/>
<path d="M96.181 670.23C95.2477 673.697 94.4477 678.23 94.581 680.23C94.7143 683.163 94.981 682.763 96.581 677.83C97.6477 674.497 98.3143 670.097 98.181 667.83C97.781 664.23 97.6477 664.497 96.181 670.23Z" fill="#8F76E8"/>
<path d="M812.05 694.096C809.517 696.63 810.183 702.763 813.117 704.896C815.783 706.763 815.65 706.896 809.917 708.363C806.717 709.163 802.983 709.43 801.917 709.03C800.717 708.496 798.85 709.03 797.65 709.963C795.783 711.43 795.917 711.83 798.717 713.296C806.317 717.563 818.45 714.096 822.05 706.63C824.183 702.096 824.183 701.563 822.05 697.163C819.65 692.23 815.25 690.896 812.05 694.096Z" fill="#8F76E8"/>
<path d="M928.316 694.363C916.049 699.697 913.782 717.163 923.382 731.43C927.382 737.43 928.582 737.697 929.649 733.03C930.316 730.497 929.649 728.63 927.116 725.697C920.849 718.097 923.649 703.83 932.049 700.363C935.249 699.03 936.316 699.163 938.449 701.163C939.916 702.497 941.116 704.363 941.116 705.43C941.116 709.03 943.516 707.03 945.649 701.697C946.849 698.63 947.782 695.963 947.516 695.83C943.116 692.23 934.716 691.563 928.316 694.363Z" fill="#8F76E8"/>
<path d="M111.781 702.763C111.781 708.497 112.448 708.23 113.515 702.097C114.048 699.697 113.781 697.83 113.115 697.83C112.315 697.83 111.781 699.963 111.781 702.763Z" fill="#8F76E8"/>
<path d="M394.449 711.563C394.449 711.963 396.049 713.163 397.916 714.497C399.916 715.697 400.983 716.097 400.583 715.297C399.649 713.83 394.449 710.63 394.449 711.563Z" fill="#8F76E8"/>
<path d="M402.848 717.43C403.381 718.23 406.315 720.896 409.515 723.296C413.248 726.363 414.315 726.763 412.448 724.63C409.381 721.163 401.515 715.163 402.848 717.43Z" fill="#8F76E8"/>
<path d="M784.58 731.03C782.314 733.563 782.447 733.697 787.514 737.03C790.447 738.897 793.914 742.23 795.247 744.363C798.58 749.963 801.38 750.897 800.314 746.097C798.847 740.497 793.114 730.097 790.98 729.297C787.78 728.097 786.98 728.23 784.58 731.03Z" fill="#8F76E8"/>
<path d="M80.3145 736.363C78.5812 742.896 80.3145 783.696 83.1145 802.496C87.7812 833.43 89.1145 840.896 93.1145 857.296C98.3145 879.296 101.381 888.763 114.581 923.03C115.248 924.763 116.181 925.83 116.581 925.43C116.981 925.03 114.848 917.696 111.781 908.896C106.181 892.896 95.2479 852.096 93.7812 841.696C93.3812 838.496 92.1812 832.23 91.1145 827.83C90.1812 823.43 88.7145 814.363 87.7812 807.83C85.7812 792.63 84.3145 783.696 82.8479 777.83C82.3145 775.296 81.7812 763.696 81.7812 752.096C81.7812 740.63 81.7812 731.163 81.7812 731.163C81.6479 731.163 80.9812 733.563 80.3145 736.363Z" fill="#8F76E8"/>
<path d="M763.915 755.696C761.381 758.363 758.181 760.763 756.848 761.296C752.581 762.63 754.315 764.63 759.381 764.23C764.981 763.83 769.648 758.763 768.848 753.963C768.448 751.163 768.181 751.296 763.915 755.696Z" fill="#8F76E8"/>
<path d="M301.114 793.696C301.114 796.096 300.848 796.23 296.981 794.23C293.514 792.496 292.048 792.496 286.981 793.83C283.781 794.763 281.114 796.23 281.114 797.03C281.114 797.83 283.914 802.363 287.248 807.163L293.248 815.83L288.848 816.496C284.981 817.163 283.781 816.63 278.314 810.896C274.981 807.43 271.381 804.496 270.181 804.496C263.114 804.496 261.914 808.763 267.114 814.896C271.381 819.963 271.248 821.296 266.848 822.23C264.314 822.763 262.181 822.096 260.448 820.496C256.714 817.163 251.781 819.03 251.781 823.83C251.781 825.83 250.314 829.296 248.581 831.563C245.514 835.696 241.648 845.43 242.714 846.496C242.981 846.896 246.448 844.896 250.314 842.363C259.381 836.23 268.981 831.83 279.114 829.163C288.314 826.763 307.381 826.496 317.381 828.63C327.648 830.896 343.781 839.43 354.048 848.096C358.848 852.23 362.581 854.763 362.181 853.696C361.781 852.63 360.314 848.363 358.981 844.096C357.248 838.496 355.114 835.03 351.381 831.696C347.248 827.83 346.314 826.363 346.981 823.696C347.914 820.363 345.914 815.163 343.781 815.163C343.248 815.163 340.848 816.63 338.581 818.496C335.648 821.03 333.781 821.696 331.248 821.03C329.248 820.63 327.514 819.83 327.114 819.296C326.848 818.763 328.981 815.696 331.781 812.363C337.914 805.43 338.181 804.096 333.648 802.096C329.381 800.096 327.114 801.296 319.381 809.83C314.581 815.163 312.581 816.496 309.248 816.496C303.514 816.496 303.914 814.23 311.781 804.496C315.514 799.963 318.448 795.43 318.448 794.496C318.448 792.363 314.181 791.163 306.848 791.163C302.048 791.163 301.114 791.563 301.114 793.696Z" fill="#8F76E8"/>
<path d="M634.581 829.697C635.915 835.43 632.848 842.763 628.315 844.763C626.715 845.563 623.248 845.83 620.715 845.297C616.848 844.63 616.315 843.963 616.715 841.43C617.115 839.563 616.448 837.563 615.248 836.63C613.381 835.03 612.715 835.163 610.448 837.163C604.048 843.03 610.048 851.43 620.715 851.563C633.381 851.697 640.315 845.163 640.448 832.897C640.448 825.83 640.315 825.43 636.981 825.297C633.648 825.163 633.648 825.297 634.581 829.697Z" fill="#8F76E8"/>
<path d="M543.514 829.963C546.714 833.83 552.314 836.496 557.114 836.496C565.648 836.496 572.048 842.23 577.781 854.763C579.781 859.296 582.314 863.296 583.514 863.83C586.314 864.896 586.714 864.096 585.114 859.963C583.114 854.63 583.514 839.83 585.648 834.496C587.514 830.096 587.514 829.83 585.248 829.83C582.314 829.83 578.448 835.163 578.448 839.43C578.314 842.096 578.181 842.23 576.714 840.363C572.181 834.496 554.981 827.163 545.514 827.163C541.248 827.163 541.248 827.163 543.514 829.963Z" fill="#8F76E8"/>
<path d="M283.115 838.496C270.448 841.163 255.382 849.163 247.782 857.296C240.715 864.763 240.182 867.03 241.915 878.096C242.715 882.496 243.382 883.163 250.315 885.696C264.715 890.896 279.915 902.896 287.782 915.03C292.848 923.163 292.848 924.496 287.382 924.496C283.648 924.496 282.315 923.563 278.848 918.63C273.782 911.43 262.715 902.496 253.782 898.363C245.248 894.23 243.782 894.363 243.782 898.763C243.782 903.696 244.448 904.496 253.782 910.763C258.182 913.83 264.048 918.63 266.982 921.563C271.915 926.763 271.915 927.03 269.382 928.363C265.115 930.63 263.915 930.23 255.915 923.696C249.248 918.096 248.448 917.83 248.048 920.23C247.782 921.696 248.848 925.83 250.448 929.296C252.048 932.63 253.648 937.563 254.048 940.096C254.448 942.496 255.248 944.896 255.915 945.296C256.582 945.563 259.915 944.496 263.382 942.763C278.582 935.03 298.715 932.63 317.515 936.23C329.382 938.496 345.915 947.296 354.715 955.963C363.648 964.763 371.382 976.23 368.848 977.163C363.782 978.896 362.048 977.83 351.515 967.163C339.915 955.163 331.382 949.963 317.782 946.363C307.782 943.696 288.315 943.963 279.648 947.03C273.782 949.03 261.648 954.496 260.048 955.83C259.782 956.096 262.582 964.763 263.248 965.696C263.515 965.963 266.182 964.63 269.382 962.896C280.182 956.496 288.315 954.763 302.448 955.43C314.048 955.963 316.448 956.63 325.382 961.03C331.382 963.963 338.715 969.03 343.248 973.43L351.115 980.896L345.515 982.23C340.048 983.43 339.648 983.296 334.315 978.496C327.248 972.096 314.582 966.23 305.648 965.03C296.715 963.963 285.382 965.963 275.515 970.363L267.915 973.696L269.915 978.763C272.715 985.43 272.315 985.163 276.848 981.963C289.382 973.163 311.782 974.096 324.715 983.963C330.048 987.963 330.182 989.03 325.782 991.963C322.582 994.096 322.182 994.096 319.382 991.563C314.848 987.43 302.182 984.096 295.515 985.163C286.582 986.763 278.448 990.763 278.448 993.563C278.448 994.896 282.182 1001.3 286.715 1007.96C291.248 1014.5 298.315 1025.03 302.582 1031.3L310.315 1042.76L316.982 1043.43C327.382 1044.5 344.448 1053.3 354.982 1063.3C362.582 1070.36 371.782 1081.43 371.782 1083.56C371.782 1083.83 369.915 1084.5 367.515 1085.03C363.515 1085.83 362.582 1085.16 353.248 1075.56C343.782 1065.83 326.715 1054.36 323.382 1055.56C321.915 1055.96 348.315 1082.5 357.515 1089.7C364.715 1095.16 364.715 1095.16 378.582 1095.83C403.515 1097.16 419.248 1103.03 434.048 1116.9C441.915 1124.23 451.382 1136.1 450.182 1137.03C450.048 1137.3 448.448 1137.96 446.848 1138.36C444.315 1139.16 442.048 1137.56 433.515 1129.3C418.182 1114.5 399.915 1105.83 383.782 1105.83H377.782L384.448 1110.63C388.182 1113.3 393.782 1116.63 396.982 1118.1C400.182 1119.56 408.848 1124.36 416.048 1128.76C432.182 1138.36 440.048 1141.43 467.248 1148.5C478.848 1151.56 489.515 1154.63 490.848 1155.43C495.382 1157.83 516.182 1164.5 518.982 1164.5C520.582 1164.5 523.382 1162.76 525.382 1160.63C530.315 1155.43 538.448 1154.5 544.315 1158.5C546.982 1160.23 548.448 1162.36 548.315 1164.23C548.182 1166.9 548.982 1167.16 554.448 1167.16C559.382 1167.16 562.582 1166.1 568.582 1162.5C581.382 1154.76 601.115 1148.63 613.248 1148.5C622.715 1148.5 640.982 1152.5 651.248 1156.9L661.782 1161.43L673.782 1159.03C680.448 1157.7 689.382 1155.43 693.648 1153.96C698.048 1152.36 702.982 1151.16 704.715 1151.16C708.315 1151.16 708.715 1149.56 705.648 1147.03C704.448 1145.96 700.182 1145.43 694.182 1145.43C686.182 1145.56 683.915 1146.23 678.048 1149.83C671.382 1153.96 668.315 1154.23 663.782 1151.16C660.848 1149.16 668.182 1142.9 677.915 1139.16C684.448 1136.76 687.782 1136.36 697.248 1136.76C707.115 1137.16 709.648 1137.83 716.315 1141.7C723.248 1145.56 724.448 1145.83 727.915 1144.5C730.048 1143.56 731.782 1142.36 731.782 1141.7C731.782 1141.16 728.982 1138.5 725.648 1135.96C719.782 1131.43 708.182 1126.9 698.315 1125.16C687.115 1123.16 666.448 1130.36 655.915 1139.83C650.582 1144.76 650.182 1144.9 646.315 1143.03L642.315 1141.16L646.982 1135.7C652.982 1128.63 662.182 1122.76 672.715 1119.3C682.715 1115.96 702.048 1115.56 712.848 1118.36C720.048 1120.36 735.915 1129.7 738.848 1133.83C741.515 1137.56 743.248 1137.83 748.315 1135.83C751.648 1134.36 752.848 1133.3 752.182 1131.7C750.848 1128.23 735.648 1116.63 726.448 1112.1L717.782 1107.83L694.048 1108.23C672.448 1108.63 669.648 1109.03 662.048 1112.1C651.648 1116.36 643.382 1122.36 635.782 1131.7C629.915 1138.76 626.582 1140.5 622.715 1137.96C619.248 1135.83 630.448 1121.43 643.115 1111.83C645.648 1109.7 647.515 1107.83 647.115 1107.43C646.715 1107.03 643.248 1106.23 639.382 1105.7C635.648 1105.03 627.115 1103.3 620.448 1101.83C601.648 1097.43 600.048 1097.3 595.115 1099.96C590.848 1102.23 590.582 1102.23 587.115 1099.96C584.315 1098.1 583.915 1097.3 585.248 1095.7C587.115 1093.43 587.382 1093.7 580.315 1090.63C575.782 1088.63 574.315 1088.5 572.048 1089.96C569.782 1091.3 568.848 1091.3 565.915 1089.43C564.048 1088.1 562.448 1086.63 562.448 1085.96C562.448 1085.3 560.715 1084.1 558.448 1083.16C555.248 1081.83 554.182 1081.83 552.448 1083.56C551.248 1084.9 549.115 1085.43 546.848 1085.03C541.648 1084.1 540.982 1083.3 542.582 1080.23C544.315 1076.9 544.048 1076.63 531.782 1070.1C526.315 1067.3 518.315 1063.03 514.182 1060.63C509.915 1058.23 506.448 1056.63 506.448 1057.03C506.448 1057.3 510.182 1061.16 514.848 1065.56C524.715 1075.16 529.382 1082.76 526.315 1084.63C522.048 1087.3 518.848 1085.83 512.848 1078.1C498.182 1059.16 470.315 1048.5 445.382 1052.36C438.448 1053.56 431.248 1055.96 422.848 1059.96C412.448 1064.9 409.382 1067.16 401.648 1075.83C393.915 1084.5 392.048 1085.83 388.182 1085.83C385.782 1085.83 383.782 1085.3 383.782 1084.76C383.782 1082.9 390.582 1073.43 396.182 1067.3C403.382 1059.3 419.115 1049.43 430.582 1045.7C438.848 1043.03 442.982 1042.5 456.448 1042.63C472.848 1042.63 474.582 1043.03 497.782 1051.83C499.248 1052.5 494.315 1048.36 486.715 1042.9C477.248 1035.96 471.382 1032.5 467.782 1031.96C462.315 1031.16 461.382 1030.1 463.782 1027.7C464.848 1026.63 457.915 1018.63 434.848 994.763C433.648 993.563 430.848 991.963 428.582 991.43C424.982 990.496 424.848 990.23 426.715 988.496C428.715 986.63 428.582 986.096 425.382 982.896C422.048 979.296 421.915 979.163 419.248 981.696C416.582 983.963 416.182 984.096 411.515 981.83L406.448 979.563L410.582 975.43C414.448 971.563 414.582 970.896 413.115 966.496C412.315 963.963 410.848 961.83 409.915 961.83C408.982 961.83 404.848 965.43 400.715 969.83C394.182 976.63 392.448 977.83 388.448 977.83C383.915 977.83 383.782 977.696 385.248 974.763C387.382 970.763 394.048 962.096 399.382 956.363L403.915 951.563L398.315 943.296C395.382 938.763 391.115 934.23 388.982 933.163C381.115 929.03 362.448 932.096 357.248 938.363C355.382 940.63 351.515 940.23 348.048 937.43C346.715 936.363 347.248 935.163 350.715 932.096C357.915 925.563 368.182 921.696 378.715 921.696C388.448 921.696 388.315 921.83 383.515 914.763C381.248 911.696 380.048 911.163 374.582 911.163C362.715 911.163 350.715 916.496 339.782 926.896C337.382 929.163 335.515 929.696 333.115 929.163C326.848 927.563 326.848 925.83 333.115 920.23C346.715 908.096 359.115 901.83 369.782 901.83C376.715 901.83 377.515 900.896 375.515 895.163L374.048 890.763L366.582 891.563C358.182 892.496 345.782 897.03 337.782 902.096C329.248 907.43 317.115 919.163 317.115 921.963C317.115 923.963 316.182 924.496 311.782 924.496C308.848 924.496 306.448 923.83 306.448 923.163C306.448 917.563 318.982 902.896 330.448 895.163C339.782 888.896 354.182 883.163 363.115 882.23L369.915 881.563L368.048 875.563C366.582 871.296 365.515 869.83 364.048 870.496C362.715 870.896 358.715 867.563 352.182 860.63C344.448 852.23 340.182 848.896 332.582 845.163C316.048 837.163 299.515 834.896 283.115 838.496ZM309.782 848.496C314.182 849.163 321.515 851.696 326.048 853.83C334.848 858.23 349.515 870.496 348.715 872.896C348.448 873.696 346.315 874.896 343.782 875.563C339.782 876.63 339.115 876.23 335.648 872.096C330.582 865.963 318.315 859.696 307.782 857.83C291.515 855.03 273.915 860.23 262.715 871.296C258.182 875.83 256.982 876.363 253.382 875.696C247.648 874.496 248.048 872.096 254.982 865.43C263.248 857.43 274.048 851.296 283.915 849.163C294.448 846.896 299.515 846.763 309.782 848.496ZM315.248 871.03C318.448 872.496 323.248 875.296 325.915 877.296L330.715 881.03L327.782 883.43C323.782 886.63 322.315 886.496 314.582 881.563C308.982 878.23 306.315 877.43 300.048 877.296C292.182 877.296 282.448 880.63 278.048 885.03C275.915 887.163 275.648 887.163 271.782 884.896C269.648 883.696 267.782 882.096 267.782 881.563C267.782 879.03 282.315 870.23 289.782 868.363C295.782 866.763 308.582 868.096 315.248 871.03ZM307.115 890.363C312.582 892.763 312.715 893.296 308.715 898.23C305.915 901.83 305.382 901.963 302.048 900.363C298.982 899.03 297.782 899.03 295.648 900.363C293.248 901.696 292.448 901.43 288.982 897.696C284.582 893.03 284.715 892.496 290.848 890.23C296.715 888.096 301.648 888.096 307.115 890.363ZM387.115 944.763C391.382 946.63 391.382 948.496 387.115 952.496C384.448 954.896 383.382 955.296 382.182 954.096C379.915 951.83 376.048 952.096 374.582 954.763C373.382 957.03 373.115 957.03 369.515 954.363C364.048 950.363 364.048 946.896 369.382 944.096C374.048 941.696 380.982 941.963 387.115 944.763ZM401.248 990.896C418.715 995.696 436.315 1008.23 445.782 1022.63C448.448 1026.63 450.448 1030.23 450.182 1030.36C450.048 1030.63 447.915 1031.16 445.515 1031.56C441.782 1032.36 440.848 1031.83 437.382 1027.43C426.448 1013.7 416.982 1006.63 402.982 1001.96C386.715 996.496 374.715 996.096 358.448 1000.5C345.382 1003.96 335.382 1010.1 321.648 1023.43C316.315 1028.36 311.115 1032.5 309.915 1032.5C303.248 1032.5 307.915 1022.9 320.715 1010.63C329.115 1002.5 345.115 993.696 357.115 990.63C367.915 987.83 390.582 987.963 401.248 990.896ZM308.582 998.496C313.648 1000.63 313.515 1002.63 307.915 1007.7C305.115 1010.23 304.982 1010.23 303.248 1007.83C301.648 1005.56 300.848 1005.43 296.315 1006.9C291.782 1008.23 290.848 1008.23 289.515 1006.23C286.982 1003.03 287.382 1000.9 290.715 998.63C294.448 995.963 302.448 995.963 308.582 998.496ZM393.782 1010.5C404.715 1013.43 415.648 1019.56 423.115 1027.16L429.382 1033.56L425.248 1035.83L420.982 1037.96L414.715 1032.36C400.715 1019.96 380.982 1015.03 364.315 1019.83C355.115 1022.5 349.248 1025.83 341.648 1032.76C336.582 1037.43 335.915 1037.7 331.915 1036.36C329.648 1035.56 327.782 1034.36 327.782 1033.7C327.782 1031.56 339.382 1021.03 346.048 1017.03C359.648 1009.03 378.315 1006.5 393.782 1010.5ZM395.248 1032.36C399.115 1033.96 403.782 1037.03 405.648 1039.03L409.248 1042.76L405.915 1045.03C401.382 1047.83 400.182 1047.7 394.982 1043.83C389.648 1039.83 379.648 1037.43 372.448 1038.63C366.048 1039.7 362.848 1041.16 358.448 1045.3C355.515 1047.96 354.715 1048.23 351.782 1046.76C346.848 1044.23 346.982 1041.16 352.448 1037.03C364.048 1028.23 381.248 1026.36 395.248 1032.36ZM386.448 1051.96C389.382 1053.16 391.782 1054.63 391.782 1055.16C391.782 1055.83 389.915 1057.83 387.648 1059.83C383.782 1062.9 383.248 1063.03 381.115 1061.16C379.915 1060.1 378.448 1059.16 377.782 1059.16C377.115 1059.16 375.648 1060.1 374.448 1061.16C372.315 1063.03 371.782 1062.9 367.915 1059.83C362.848 1055.43 362.715 1054.5 367.515 1051.96C372.315 1049.3 379.782 1049.3 386.448 1051.96ZM468.582 1063.3C479.382 1065.3 492.315 1071.83 500.048 1079.43C507.115 1086.36 507.515 1088.5 502.182 1090.36C499.115 1091.43 497.782 1090.9 492.182 1085.96C474.715 1070.36 453.248 1067.56 432.182 1077.96C427.515 1080.1 421.648 1084.1 418.848 1086.63C414.848 1090.36 413.248 1091.16 410.182 1090.5C404.848 1089.3 404.848 1088.36 409.648 1083.16C426.048 1065.3 444.715 1058.9 468.582 1063.3ZM472.048 1085.96C478.982 1088.63 486.448 1094.36 486.448 1096.9C486.448 1098.76 482.182 1101.7 479.648 1101.83C478.448 1101.83 476.715 1100.9 475.648 1099.7C468.182 1090.76 447.248 1090.1 437.248 1098.63C433.115 1102.1 432.448 1101.96 425.248 1096.9C424.048 1096.1 431.648 1090.76 439.115 1087.03C449.248 1082.1 461.248 1081.7 472.048 1085.96ZM563.115 1099.7C578.582 1104.63 595.648 1117.96 603.515 1131.3C607.515 1137.83 607.248 1139.16 602.048 1139.16C598.315 1139.16 596.848 1138.1 592.582 1132.5C578.982 1114.63 559.648 1105.7 534.715 1105.7C511.115 1105.7 491.515 1114.9 477.782 1132.5C472.982 1138.63 472.048 1139.3 468.582 1138.63C466.448 1138.1 464.315 1137.56 464.048 1137.16C463.648 1136.76 465.648 1133.16 468.582 1128.9C474.982 1119.56 486.715 1109.7 498.182 1103.96C506.048 1100.1 509.915 1098.76 521.782 1095.96C523.248 1095.56 530.715 1095.56 538.448 1095.83C548.848 1096.1 555.248 1097.16 563.115 1099.7ZM466.848 1106.5C470.715 1109.03 470.448 1111.3 465.648 1114.5C463.248 1116.1 461.782 1116.23 459.782 1115.16C458.048 1114.23 456.182 1114.23 453.782 1115.43C450.715 1116.76 449.915 1116.63 446.182 1112.76L441.915 1108.63L447.915 1105.83C454.582 1102.76 461.515 1102.9 466.848 1106.5ZM623.115 1106.1C627.248 1107.96 627.248 1109.43 623.515 1113.43C620.448 1116.63 616.315 1117.43 615.515 1115.03C615.115 1113.83 614.315 1113.83 612.182 1115.03C607.782 1117.3 605.648 1116.76 603.115 1113.03C600.982 1109.83 600.982 1109.43 603.248 1107.03C605.915 1104.1 617.382 1103.43 623.115 1106.1ZM552.448 1118.1C561.382 1120.36 570.582 1125.83 578.715 1133.56C582.982 1137.56 586.448 1141.3 586.448 1141.83C586.448 1142.36 584.582 1143.56 582.315 1144.5C578.582 1146.1 578.048 1145.96 574.982 1142.76C566.848 1133.96 552.848 1126.9 540.182 1125.16C527.648 1123.56 510.048 1129.7 498.582 1139.96C492.715 1145.16 492.315 1145.43 487.782 1143.83L483.248 1142.23L490.448 1134.63C505.782 1118.5 529.248 1112.23 552.448 1118.1ZM549.382 1138.76C555.915 1141.3 565.382 1147.16 566.048 1149.16C566.182 1149.83 564.582 1151.56 562.315 1152.9C558.315 1155.16 558.182 1155.16 554.315 1151.96C545.515 1144.5 528.315 1143.7 518.848 1150.23C513.248 1154.1 510.448 1154.63 506.182 1152.36C503.515 1150.9 503.515 1150.9 506.715 1147.56C515.782 1137.83 536.182 1133.56 549.382 1138.76Z" fill="#8F76E8"/>
<path d="M840.983 867.163L837.783 869.963L842.183 867.83C846.317 865.83 847.65 864.497 845.25 864.497C844.583 864.497 842.717 865.697 840.983 867.163Z" fill="#8F76E8"/>
<path d="M787.115 899.163C786.715 899.83 787.249 900.497 788.315 900.497C789.382 900.497 790.715 899.83 791.115 899.163C791.515 898.363 790.982 897.83 789.915 897.83C788.849 897.83 787.515 898.363 787.115 899.163Z" fill="#8F76E8"/>
<path d="M117.115 928.097C117.249 930.097 122.315 939.83 122.449 938.097C122.449 935.963 118.849 927.163 117.915 927.163C117.382 927.163 117.115 927.563 117.115 928.097Z" fill="#8F76E8"/>
<path d="M851.647 1067.56C842.181 1072.76 841.514 1073.43 843.247 1075.7C844.981 1078.1 845.247 1078.1 849.381 1074.76C858.047 1067.83 864.447 1061.83 863.114 1061.96C862.447 1061.96 857.247 1064.5 851.647 1067.56Z" fill="#8F76E8"/>
<path d="M828.048 1078.9C822.848 1080.9 822.448 1081.43 823.115 1084.76C824.182 1089.43 820.848 1091.16 817.248 1087.96C814.315 1085.3 814.582 1085.3 805.515 1087.96L798.182 1090.1L801.782 1093.83L805.382 1097.56L801.915 1099.83C798.582 1102.1 798.315 1101.96 793.782 1097.96C791.115 1095.7 788.182 1093.83 787.248 1093.83C786.315 1093.83 777.248 1096.23 767.248 1099.16C757.248 1102.1 746.315 1104.5 743.115 1104.5C736.182 1104.5 735.648 1105.7 740.848 1108.76C745.248 1111.43 758.582 1124.23 760.448 1127.7C761.782 1129.96 762.448 1129.83 771.782 1125.16C777.248 1122.5 784.848 1118.23 788.448 1115.83C792.182 1113.56 798.982 1109.16 803.782 1106.36C819.248 1097.16 837.115 1083.83 837.115 1081.7C837.115 1077.56 834.182 1076.76 828.048 1078.9ZM777.115 1104.5C779.648 1105.3 782.982 1106.76 784.315 1107.83C786.715 1109.56 786.715 1109.96 784.582 1113.16C782.182 1116.9 778.315 1117.56 775.782 1114.5C774.182 1112.5 771.115 1113.03 772.448 1115.16C772.848 1115.7 771.915 1116.5 770.582 1116.9C768.848 1117.3 766.582 1116.1 763.915 1113.3C759.915 1109.16 759.782 1108.9 762.048 1106.9C764.182 1105.03 767.382 1103.7 771.115 1103.3C771.915 1103.3 774.582 1103.83 777.115 1104.5Z" fill="#8F76E8"/>
<path d="M605.782 1159.3C602.182 1159.83 594.582 1161.56 589.115 1163.3L579.115 1166.36L588.449 1167.56C598.315 1168.9 645.115 1166.23 645.115 1164.5C645.115 1161.56 617.249 1157.83 605.782 1159.3Z" fill="#8F76E8"/>
<path d="M534.048 1233.96C535.115 1235.03 536.181 1235.03 538.048 1233.96C540.181 1232.76 539.915 1232.63 536.581 1232.5C533.648 1232.5 532.981 1232.9 534.048 1233.96Z" fill="#8F76E8"/>
<path d="M539.116 1236.23C540.449 1237.56 568.582 1239.43 567.249 1238.1C566.449 1237.3 566.049 1237.3 549.116 1235.83C541.916 1235.3 538.316 1235.43 539.116 1236.23Z" fill="#8F76E8"/>
<path d="M578.183 1236.1C579.116 1236.5 580.316 1236.36 580.716 1235.96C581.249 1235.56 580.449 1235.16 578.983 1235.3C577.516 1235.3 577.116 1235.7 578.183 1236.1Z" fill="#8F76E8"/>
<path d="M600.849 1250.76C601.782 1251.16 602.982 1251.03 603.382 1250.63C603.915 1250.23 603.115 1249.83 601.649 1249.96C600.182 1249.96 599.782 1250.36 600.849 1250.76Z" fill="#8F76E8"/>
</svg>
