<svg width="1256" height="807" viewBox="0 0 1256 807" fill="none" xmlns="http://www.w3.org/2000/svg">
<path d="M600.405 4.53606C587.205 7.06939 569.872 10.2694 561.739 11.7361C535.605 16.6694 496.272 23.7361 440.272 33.7361L385.339 43.4694L370.272 52.1361C344.272 67.0694 228.539 131.336 188.405 153.069L165.739 165.336L153.739 179.603C139.472 196.536 89.472 255.203 53.072 297.869C38.5386 314.669 26.1386 329.736 25.472 331.203C22.0053 337.869 -0.394708 401.469 0.00529167 403.469C0.405292 405.736 22.672 417.869 166.405 493.736C207.872 515.736 248.672 537.336 257.072 541.869C265.472 546.403 286.272 557.603 303.072 566.536C320.005 575.603 337.339 584.803 341.739 587.203C346.139 589.603 356.939 595.203 365.739 599.869C374.539 604.403 384.139 609.603 387.072 611.203C390.005 612.803 396.939 616.536 402.405 619.469C417.605 627.736 479.472 661.069 487.072 665.203C490.805 667.203 497.605 670.936 502.405 673.603C521.072 683.603 585.072 718.669 596.405 724.936C602.939 728.536 608.405 732.136 608.672 732.669C608.805 733.336 605.605 735.869 601.339 738.403C582.005 750.003 565.472 760.536 562.805 762.936C559.072 766.269 558.939 769.203 562.139 773.203C565.605 777.469 568.405 776.403 586.539 764.669C594.805 759.203 602.005 755.069 602.272 755.336C602.539 755.603 597.072 762.936 590.005 771.736L577.205 787.603L580.405 790.536C582.139 792.136 584.539 793.203 585.605 792.803C586.672 792.403 592.005 786.003 597.605 778.669C606.672 766.803 610.405 762.536 610.405 764.269C610.405 764.669 607.605 772.536 604.272 781.736C600.939 791.069 598.539 799.469 598.805 800.403C599.605 802.536 606.405 804.403 607.739 802.936C608.272 802.403 611.339 794.003 614.539 784.536L620.405 767.203L621.072 786.536L621.739 805.869L626.672 806.269L631.605 806.669L632.005 786.269L632.405 765.869L637.472 781.869C644.805 804.936 644.405 804.403 649.339 803.336C651.605 802.936 653.872 802.136 654.272 801.736C654.672 801.469 652.405 793.469 649.339 784.136C646.272 774.803 643.739 766.269 643.739 765.203C643.739 764.269 648.939 770.403 655.205 778.936C661.472 787.603 667.072 794.536 667.605 794.536C668.805 794.536 674.405 788.803 674.405 787.469C674.405 786.936 663.205 772.136 652.539 758.669C651.339 757.069 651.605 757.069 654.272 758.536C656.139 759.469 660.272 762.136 663.605 764.536C673.205 771.336 684.805 777.469 686.405 776.536C687.072 776.136 688.672 773.869 689.872 771.603C691.739 768.003 691.739 767.469 689.739 765.203C687.739 762.936 656.005 743.203 642.672 735.869C638.272 733.336 637.339 732.403 638.672 731.069C640.272 729.736 661.472 717.069 728.405 677.869C768.939 654.136 849.739 608.269 912.672 573.336C933.072 562.003 969.605 541.603 993.739 528.136C1018.01 514.536 1056.41 493.203 1079.07 480.536C1101.87 467.869 1143.87 444.536 1172.41 428.536C1201.07 412.536 1231.47 395.603 1240.14 390.803C1248.67 386.003 1255.74 381.203 1255.74 380.269C1255.74 379.336 1250.27 364.803 1243.74 348.136L1231.74 317.869L1218.27 303.203C1195.87 278.936 1141.87 218.136 1118.41 190.936C1101.47 171.336 1094.67 164.536 1089.07 161.203C1082.14 157.203 1064.54 147.736 1035.74 132.269C1022.67 125.336 1004.14 115.203 947.739 84.1361C929.739 74.2694 905.472 60.9361 893.739 54.5361L872.405 42.9361L810.405 32.0027C776.272 26.0027 721.472 16.4027 688.405 10.5361C655.472 4.66939 627.472 -0.130608 626.405 0.00272486C625.339 0.00272486 613.605 2.13606 600.405 4.53606ZM654.539 17.4694L679.339 21.7361L678.939 31.6027L678.539 41.4694L661.072 42.0027C647.472 42.4027 642.405 43.0694 637.739 45.0694C621.872 52.1361 618.672 76.4027 632.005 88.8027C639.072 95.4694 642.139 95.8694 684.805 95.8694C723.205 95.8694 724.805 96.0027 728.272 98.6694C732.272 101.869 732.805 107.069 729.472 110.803C727.472 112.936 724.805 113.203 699.872 113.203C673.872 113.203 672.005 113.336 666.405 116.136C652.005 123.603 652.005 144.936 666.405 152.136C670.672 154.403 678.405 154.536 769.472 154.536C878.005 154.536 873.072 154.936 878.405 146.136C881.872 140.669 881.739 132.403 878.405 126.803C873.872 119.336 870.005 118.536 837.339 118.536C816.539 118.536 807.872 118.136 806.672 116.936C804.405 114.669 804.672 109.203 807.339 106.269C809.339 104.003 813.472 103.869 882.939 103.869H956.405L1003.74 129.603C1029.74 143.869 1059.34 159.736 1069.34 165.069C1081.21 171.336 1088.67 176.136 1090.54 178.669L1093.21 182.536H1034.01C967.205 182.536 965.739 182.669 955.339 191.869C946.005 200.136 942.805 212.269 947.072 222.803C948.005 225.069 946.272 225.203 923.072 225.203C895.072 225.203 891.605 226.003 885.472 234.136C881.339 239.469 879.872 250.269 882.272 257.469C884.672 264.669 891.872 270.803 899.339 272.003C902.805 272.536 920.672 272.803 938.939 272.536C957.205 272.269 972.939 272.403 973.872 272.803C975.072 273.203 975.339 274.803 974.805 277.336C973.739 282.536 976.405 288.269 980.939 290.936C984.405 292.936 990.805 293.203 1043.34 293.203H1101.74L1106.54 296.403C1109.21 298.269 1112.94 300.136 1114.67 300.536C1117.61 301.336 1118.27 300.803 1119.47 297.469L1120.81 293.469L1156.67 293.336H1192.41L1205.61 308.136C1217.87 321.869 1223.74 330.136 1223.74 334.003C1223.74 334.803 1216.01 340.536 1206.67 346.803C1190.01 357.869 1189.47 358.136 1182.94 357.603C1178.27 357.203 1173.47 358.003 1166.01 360.403C1139.74 369.203 1117.34 359.603 1114.81 338.803C1112.27 316.936 1135.87 300.803 1155.74 310.803C1159.61 312.803 1162.67 315.736 1164.54 319.069C1168.01 325.336 1170.14 323.203 1166.94 316.536C1162.67 307.469 1147.74 302.003 1136.14 305.069C1121.07 309.203 1111.47 321.069 1111.47 335.603C1111.47 359.069 1134.54 372.669 1161.74 365.069C1167.61 363.469 1175.07 361.869 1178.41 361.603L1184.41 361.069L1178.14 365.469C1174.81 367.869 1167.61 372.669 1162.14 376.136C1150.01 383.869 1065.74 438.803 984.272 492.269C965.472 504.536 950.005 514.403 949.739 514.269C949.605 514.003 948.805 512.003 947.872 509.603C945.339 503.203 940.805 499.736 933.605 498.803C928.939 498.136 926.939 497.203 926.672 495.469C925.872 491.603 934.405 489.203 952.939 487.869C976.139 486.269 988.272 481.469 997.472 470.136C1003.87 462.403 1006.41 455.603 1006.41 446.269C1006.41 434.536 1001.47 426.136 991.472 421.069C988.272 419.469 986.405 417.603 986.405 415.869C986.405 411.069 981.072 399.069 977.339 395.603C972.139 390.536 961.472 385.603 953.739 384.669C947.605 383.869 938.405 385.469 931.472 388.536C929.872 389.203 929.072 388.936 929.072 387.603C929.072 384.536 920.805 375.603 916.272 373.736C910.672 371.336 898.672 371.469 894.405 373.736C891.472 375.336 890.539 375.336 885.872 372.936C883.072 371.469 877.605 370.003 873.739 369.603C864.405 368.669 853.472 373.469 848.272 380.803C844.672 385.869 844.539 385.869 835.205 385.869C823.872 386.003 816.005 389.469 811.339 396.536C809.072 400.136 807.472 401.203 804.405 401.203C799.072 401.203 789.205 406.269 786.005 410.669C784.672 412.536 783.205 416.669 782.805 419.736C782.139 424.269 781.605 425.203 779.872 424.403C761.072 416.803 746.005 413.869 730.939 415.069C712.405 416.403 690.939 424.803 678.805 435.203L673.605 439.736L660.272 437.736C653.072 436.803 636.405 435.869 623.339 435.869H599.605L588.672 424.803C571.605 407.603 553.739 399.869 530.672 399.869C506.139 399.869 482.672 411.603 467.205 431.736L461.205 439.469L446.805 440.269C438.272 440.669 429.205 442.003 424.405 443.469L416.272 446.136L409.739 440.269C406.005 437.069 399.472 432.536 394.939 430.269L386.672 426.003L390.672 420.936L394.805 416.003L397.605 420.269C403.205 428.536 417.339 433.736 418.805 428.003C419.205 426.403 420.805 425.203 423.205 424.936C427.072 424.536 427.072 424.403 427.072 415.603C427.072 408.536 426.539 406.003 424.005 402.669C421.205 398.803 421.072 398.403 423.339 397.736C430.805 395.336 433.472 393.736 437.072 389.736C442.539 383.469 443.472 378.936 440.005 376.403C437.872 374.936 437.339 373.603 437.872 370.669C438.539 367.603 438.139 366.403 435.872 365.203C430.805 362.536 420.805 362.136 414.805 364.403L409.072 366.403V361.469C409.072 355.336 405.205 346.936 400.539 342.669C397.205 339.603 396.939 339.603 394.539 341.736C392.405 343.736 391.605 343.736 389.205 342.269C382.939 338.403 376.405 348.136 376.405 361.203V369.869L370.139 369.469C358.672 368.536 348.672 374.136 351.605 379.603C352.672 381.603 352.539 382.669 351.072 383.869C350.005 384.803 349.072 386.269 349.072 387.203C349.072 389.603 359.072 398.269 363.072 399.336C366.672 400.269 367.339 402.403 364.805 404.936C363.872 405.869 362.805 409.736 362.405 413.603L361.739 420.536L350.405 421.336C331.072 422.669 316.672 428.936 302.272 442.269C297.872 446.269 292.539 452.136 290.405 455.203L286.539 460.803H274.139C259.739 460.936 253.472 462.269 239.605 468.803L229.472 473.469L222.005 468.536L214.672 463.603L217.872 458.936C226.405 446.403 222.139 429.203 208.805 422.669C203.339 420.136 200.672 419.869 173.339 419.869H143.739L122.805 406.803C111.205 399.603 98.1386 391.736 93.7386 389.203C89.3386 386.669 85.2053 384.136 84.4053 383.603C83.7386 382.936 72.0053 375.603 58.5386 367.203C44.9386 358.803 33.472 351.469 32.9386 350.936C30.672 348.669 36.672 336.536 44.8053 326.936C53.2053 317.069 53.3386 317.069 59.3386 317.469C64.272 317.736 66.0053 318.669 68.272 321.603C70.9386 325.203 70.9386 325.469 68.672 329.336C67.472 331.603 66.8053 334.003 67.2053 334.803C67.872 335.736 76.672 336.003 93.6053 335.603C119.072 334.936 128.005 335.736 121.072 337.869C115.472 339.603 114.272 341.069 116.005 344.403C119.472 351.069 127.205 358.936 132.939 361.603C136.272 363.203 139.205 364.536 139.472 364.669C139.739 364.803 138.139 367.469 135.872 370.536C131.605 376.403 128.672 387.603 129.339 394.803C129.739 398.936 130.139 399.203 135.339 399.603C140.672 400.003 140.939 400.136 141.339 404.936C141.739 409.869 141.739 409.869 147.072 409.469C154.939 408.803 165.472 403.469 169.872 398.003C173.872 392.936 175.739 392.003 175.739 394.936C175.739 398.403 185.072 407.603 192.005 411.069C200.939 415.603 203.472 415.469 204.539 410.803C206.005 403.869 205.872 404.003 210.939 405.469C213.605 406.269 216.139 406.536 216.672 406.136C219.472 403.336 219.339 386.403 216.405 379.469C215.472 377.336 217.205 377.203 241.072 377.203H266.672L270.672 373.203C274.805 369.069 275.339 364.669 272.405 358.136C271.605 356.136 272.272 355.869 276.805 355.869C284.539 355.869 288.805 358.136 290.539 363.469C291.739 367.203 291.605 368.536 289.739 371.336C288.539 373.336 288.005 375.336 288.672 375.869C289.205 376.536 296.139 377.203 304.005 377.469C316.939 377.869 318.539 378.136 321.739 381.203C326.939 386.003 329.072 390.936 329.072 398.003C329.072 404.803 325.472 412.136 320.672 414.936C319.072 415.736 310.405 416.803 301.205 417.203C285.339 418.003 284.672 418.136 281.605 421.736C279.872 423.736 278.405 426.936 278.405 428.936C278.539 433.336 281.605 437.869 283.739 436.536C284.939 435.869 284.939 435.203 283.872 434.136C283.072 433.336 282.405 431.069 282.405 429.069C282.405 422.803 286.405 421.203 302.139 421.203C314.005 421.203 316.805 420.803 321.339 418.269C335.872 410.136 336.805 388.269 322.939 377.736C318.539 374.269 316.672 373.869 306.139 373.469L294.405 372.936V367.336C294.405 364.269 293.472 360.403 292.272 358.669C288.272 353.069 282.805 351.869 259.739 351.869C240.272 351.869 238.405 351.603 238.405 349.469C238.405 348.269 236.539 346.136 234.272 344.803L230.139 342.536L233.072 338.003L235.872 333.336L232.405 331.069C224.272 325.736 211.872 323.736 204.539 326.536C201.072 327.736 201.072 327.736 201.072 320.669C201.072 312.136 199.205 306.403 194.139 298.803C189.739 292.403 188.539 292.003 184.005 296.136L180.805 299.203L178.139 295.469C176.672 293.469 174.672 291.869 173.739 291.869C171.205 291.869 162.539 302.003 159.605 308.403C158.272 311.336 157.072 316.136 157.072 318.803C157.072 321.603 156.805 323.869 156.539 323.869C156.272 323.869 153.872 322.936 151.339 321.869C144.672 319.069 133.605 319.336 126.672 322.536C121.605 324.803 121.072 325.469 121.872 328.536L122.672 331.869H97.872H73.072V326.669C73.072 319.869 69.072 314.936 62.4053 313.603L57.072 312.536L88.8053 275.469L120.405 238.403L152.405 238.269C170.005 238.269 193.072 238.136 203.739 238.136C214.405 238.003 225.605 238.536 228.672 239.069C231.739 239.736 235.339 239.736 236.672 239.203C238.005 238.536 260.005 238.136 285.472 238.003L332.005 237.869L334.539 234.669C335.872 232.936 337.072 229.869 337.072 227.869C337.072 216.803 334.139 215.869 299.072 215.869C266.672 215.869 264.939 215.469 262.272 206.669C261.072 202.536 261.205 200.936 263.072 197.336C266.672 190.269 271.605 188.936 295.605 189.336C313.472 189.603 317.072 189.336 321.472 187.203C335.605 180.536 338.672 158.003 326.939 147.736C319.739 141.469 317.872 141.203 277.472 141.203C245.472 141.203 239.472 140.936 241.072 139.469C242.139 138.403 256.005 130.536 271.739 121.736C287.472 113.069 313.072 98.9361 328.405 90.4027L356.405 74.8027L357.205 81.0694C357.739 84.5361 359.072 89.2027 360.272 91.4694C361.472 93.8694 362.405 96.0027 362.405 96.2694C362.405 96.5361 359.072 97.6027 354.805 98.4027C349.072 99.7361 345.872 101.469 340.805 106.136C337.339 109.469 334.405 113.069 334.405 114.003C334.405 114.936 336.005 116.936 338.005 118.536C341.472 121.203 341.472 121.336 339.339 125.069C338.139 127.203 337.072 129.603 337.072 130.403C337.072 131.203 340.272 133.469 344.139 135.469C349.605 138.269 352.939 139.069 359.739 139.203H368.405L368.005 148.136C367.472 155.469 368.005 158.269 370.805 164.403C374.539 172.403 376.939 173.603 381.472 169.603C383.872 167.336 384.139 167.336 387.072 171.069C389.339 173.869 390.805 174.536 392.805 174.003C397.739 172.403 406.005 161.603 407.739 154.536L409.339 148.136L415.739 151.336C420.539 153.736 424.272 154.536 430.539 154.536C441.472 154.536 443.072 153.469 441.872 147.469C440.805 142.003 441.072 141.869 449.472 140.669C455.205 139.736 455.739 140.003 455.739 142.403C455.739 146.536 457.872 146.936 463.605 143.869C472.939 139.203 477.605 132.269 480.405 119.203L481.339 115.203L484.405 121.603C489.739 132.669 498.939 139.869 507.739 139.869C511.072 139.869 511.739 139.336 511.739 136.669C511.739 134.136 512.539 133.336 515.472 132.936C518.405 132.669 519.205 131.869 519.472 128.269C520.272 119.736 512.005 108.136 500.672 102.269L495.072 99.3361L502.005 98.4027C515.605 96.6694 527.739 87.8694 527.739 79.8694C527.739 77.2027 526.939 76.0027 524.939 75.4694C522.672 74.8027 522.272 74.0027 522.672 71.2027C523.605 66.9361 520.805 65.2027 513.072 65.2027C506.005 65.2027 499.205 68.4027 492.805 74.8027C490.005 77.6027 487.472 79.8694 487.205 79.8694C486.939 79.8694 487.339 77.3361 488.005 74.1361C490.539 63.3361 486.272 47.6027 479.739 43.6027C475.872 41.0694 476.405 40.2694 482.805 39.2027C490.272 38.0027 584.005 20.5361 604.405 16.6694C613.205 14.9361 622.539 13.4694 625.072 13.3361C627.605 13.2027 640.939 15.0694 654.539 17.4694ZM724.139 29.6027C749.739 34.2694 756.272 35.8694 757.339 37.7361C759.739 42.1361 757.872 53.8694 753.872 59.0694C749.205 65.2027 743.205 66.9361 728.005 66.4027C713.872 65.7361 709.605 63.4694 706.539 54.9361C704.805 50.1361 704.939 49.2027 707.205 44.4027C708.805 41.0694 711.472 38.4027 714.672 36.8027C719.072 34.6694 720.005 34.6694 724.139 36.2694C730.405 38.9361 733.072 45.4694 730.005 50.6694C727.472 55.2027 729.339 57.2027 732.272 52.9361C738.405 44.2694 731.339 32.0027 720.405 31.8694C709.605 31.8694 702.405 39.4694 702.405 50.8027C702.405 56.5361 703.072 58.0027 707.605 62.9361L712.939 68.5361L804.005 69.2027L895.072 69.8694L921.739 84.5361L948.405 99.2027L878.139 99.8694C810.005 100.536 807.739 100.669 805.205 103.203C803.605 104.669 802.139 107.736 801.605 110.136C800.939 113.736 801.472 115.069 804.805 118.536L808.805 122.536H838.672C871.739 122.536 872.939 122.803 876.539 131.336C879.072 137.203 877.605 143.203 872.805 147.203L868.805 150.536H769.072H669.339L665.205 147.203C658.272 141.336 657.072 132.003 662.139 124.136C666.405 117.603 668.939 117.203 708.672 117.203C749.205 117.203 751.739 116.803 757.472 109.069C760.939 104.136 760.939 94.8027 757.339 88.9361C752.405 81.0694 750.672 80.6694 712.805 79.8694L678.405 79.2027L673.605 74.4027C663.072 63.8694 667.605 49.2027 682.939 44.5361C684.672 44.0027 684.939 43.3361 684.139 42.1361C681.605 39.0694 680.939 32.9361 682.405 28.4027C684.405 22.5361 684.272 22.5361 724.139 29.6027ZM839.739 50.0027C865.605 54.4027 869.205 55.3361 876.805 59.6027C881.339 62.2694 885.072 64.9361 885.072 65.4694C885.072 66.0027 855.739 66.2694 819.739 66.1361C783.872 66.0027 754.405 65.7361 754.405 65.6027C754.405 65.4694 755.872 63.0694 757.739 60.4027C761.472 54.8027 763.072 48.2694 762.005 41.8694C761.605 39.4694 761.472 37.2027 761.872 36.9361C762.139 36.5361 773.339 38.4027 786.672 40.8027C800.139 43.2027 824.005 47.3361 839.739 50.0027ZM473.072 43.8694C471.872 46.1361 471.205 46.2694 469.072 44.9361C465.872 42.9361 466.939 41.2027 471.205 41.2027C474.139 41.2027 474.272 41.6027 473.072 43.8694ZM462.272 47.2027C458.139 54.0027 458.539 65.6027 462.939 75.3361C464.805 79.4694 466.405 83.0694 466.405 83.3361C466.405 83.6027 464.139 82.5361 461.472 80.8027C454.405 76.4027 448.405 74.5361 440.939 74.5361C435.472 74.5361 434.405 74.1361 434.405 72.0027C434.405 64.4027 411.072 69.3361 403.339 78.5361L400.139 82.2694L398.539 75.7361C397.205 70.8027 395.339 68.0027 390.939 64.0027C385.872 59.6027 385.339 58.6694 387.072 57.2027C388.805 55.7361 453.872 43.2027 462.005 42.6694L464.939 42.5361L462.272 47.2027ZM670.405 45.8694C670.405 46.2694 669.472 48.0027 668.405 49.7361C662.805 58.2694 663.339 68.1361 670.005 76.0027C676.272 83.3361 679.072 83.8694 713.739 83.8694C748.405 83.8694 751.205 84.4027 755.072 91.8694C758.405 98.4027 757.605 103.603 752.539 108.669C748.405 112.803 747.205 113.203 740.405 113.203C733.605 113.203 732.939 112.936 733.872 110.803C736.005 106.136 734.672 99.3361 731.072 96.1361C727.205 92.8027 730.272 93.0694 677.739 92.6694C649.472 92.5361 643.739 92.2694 640.405 90.2694C629.739 84.4027 624.539 72.9361 627.605 62.2694C629.605 55.6027 636.672 48.4027 642.805 46.6694C647.339 45.3361 670.405 44.6694 670.405 45.8694ZM481.605 50.9361C485.739 56.5361 486.139 70.5361 482.539 82.5361C480.939 87.6027 479.072 91.8694 478.405 91.8694C476.672 91.8694 469.472 81.0694 465.472 72.4027C462.805 66.4027 462.272 63.4694 462.672 57.7361C463.472 48.9361 465.205 46.5361 469.339 49.0694C471.605 50.5361 472.405 50.4027 474.139 48.6694C476.805 46.0027 478.139 46.4027 481.605 50.9361ZM388.939 66.1361C396.405 73.3361 397.872 79.6027 395.339 95.0694L393.472 107.203L390.405 100.536C388.672 96.8027 386.939 92.0027 386.405 89.8694C385.872 87.2027 384.672 85.7361 382.805 85.4694C379.072 84.9361 377.872 88.6694 381.072 91.6027C383.605 94.0027 389.339 105.336 388.405 106.269C388.139 106.536 383.472 104.669 377.872 102.136C365.072 96.0027 361.072 90.6694 361.072 79.6027C361.072 72.4027 361.339 71.8694 365.072 69.8694C367.339 68.6694 369.739 68.1361 370.405 68.5361C371.072 68.9361 372.005 68.4027 372.672 67.4694C374.139 65.0694 379.872 61.2027 382.005 61.2027C382.939 61.2027 386.005 63.4694 388.939 66.1361ZM518.672 72.8027C518.272 76.5361 518.805 77.2027 521.605 78.0027C525.872 79.0694 525.872 80.0027 521.605 85.2027C515.872 91.8694 508.672 94.8027 496.139 95.3361C482.139 96.0027 481.339 94.6694 488.939 84.6694C497.472 73.3361 506.405 67.7361 515.072 68.2694C518.672 68.5361 519.072 68.9361 518.672 72.8027ZM431.472 77.4694L431.072 83.2027L436.139 83.6027C440.539 84.0027 441.072 84.4027 441.072 87.6027C440.939 92.8027 436.672 101.203 431.872 105.869C427.872 109.603 426.805 109.869 414.005 110.536C406.539 110.936 400.139 111.069 399.872 110.936C398.805 110.269 409.472 99.8694 411.205 99.8694C413.739 99.8694 414.405 96.2694 412.272 94.5361C410.805 93.2027 410.005 93.2027 408.405 94.5361C407.205 95.4694 406.672 96.5361 407.072 96.9361C407.872 97.8694 399.739 106.536 398.139 106.536C396.939 106.536 398.005 97.4694 400.005 90.8027C403.072 80.5361 415.072 72.0027 426.139 71.8694H432.005L431.472 77.4694ZM452.005 79.8694C460.272 82.9361 472.405 91.7361 472.405 94.5361C472.405 97.3361 459.472 101.336 450.005 101.336C445.739 101.336 441.872 101.069 441.605 100.803C441.205 100.403 441.872 96.8027 443.072 92.6694C444.272 88.4027 444.939 84.2694 444.672 83.3361C444.272 82.2694 441.739 81.0694 439.205 80.6694C436.539 80.1361 434.672 79.2027 435.072 78.4027C436.405 76.4027 444.539 77.0694 452.005 79.8694ZM495.739 104.136C504.005 108.403 508.139 111.336 511.339 115.603C516.672 122.536 517.339 128.803 512.805 129.469C511.072 129.736 509.605 131.069 509.072 132.936C508.272 136.403 508.005 136.536 502.539 135.469C498.005 134.536 491.205 128.003 487.739 121.336C484.805 115.469 480.939 101.203 481.872 99.6027C482.939 97.8694 483.739 98.1361 495.739 104.136ZM477.072 109.869C477.072 125.469 472.139 136.269 462.672 141.069C460.005 142.536 459.605 142.269 458.405 139.069C457.339 136.269 456.405 135.736 453.872 136.403C445.739 138.403 449.605 122.269 459.472 112.669C465.739 106.536 474.139 100.003 476.139 99.8694C476.672 99.8694 477.072 104.403 477.072 109.869ZM379.605 106.403C390.939 112.269 390.539 113.736 377.339 112.936C369.472 112.536 368.405 112.803 368.005 115.069C367.205 118.669 370.272 120.003 373.872 117.736C375.605 116.536 379.205 115.869 382.805 116.136L388.672 116.536L378.672 125.736C369.205 134.669 368.539 135.069 361.072 135.603C355.339 136.003 351.872 135.469 347.205 133.469C343.872 131.869 341.072 130.136 341.072 129.469C341.072 128.803 342.405 126.536 344.005 124.536L346.805 120.936L343.605 118.403C341.872 117.069 340.005 115.869 339.472 115.869C337.205 115.869 338.539 112.136 342.139 108.803C347.339 103.736 354.005 101.336 362.405 101.336C368.272 101.336 371.739 102.403 379.605 106.403ZM456.539 110.669C452.405 115.203 448.539 120.536 448.139 122.669C447.205 127.603 446.272 127.469 443.205 122.536C441.872 120.269 438.539 116.936 435.605 114.936L430.405 111.603L434.405 107.869C438.139 104.403 439.072 104.136 446.139 104.803C450.272 105.203 455.872 104.936 458.405 104.136C460.939 103.336 463.339 102.669 463.605 102.669C463.872 102.536 460.672 106.136 456.539 110.669ZM431.339 116.269C436.005 118.803 441.472 124.536 444.272 130.136C447.472 136.536 447.072 138.269 442.139 138.803C437.872 139.203 437.739 139.469 437.739 145.203V151.203L431.872 151.603C428.539 151.869 423.472 151.069 420.539 150.003C414.672 147.736 407.739 142.136 407.739 139.469C407.739 138.536 405.872 134.003 403.739 129.469C401.472 124.803 399.739 120.669 399.739 120.269C399.739 119.069 409.739 125.736 412.805 128.936C415.605 131.869 416.139 132.003 417.872 130.269C420.405 127.736 418.939 123.869 415.339 123.869C412.139 123.869 401.072 117.603 401.072 115.869C401.072 112.803 425.339 113.203 431.339 116.269ZM391.072 126.136C390.539 130.403 389.605 134.403 388.939 135.069C388.272 135.869 387.739 137.469 387.739 138.936C387.739 140.669 388.539 141.336 390.672 140.936C393.339 140.536 393.605 139.736 393.872 131.469C394.005 126.403 394.539 122.003 394.805 121.603C395.205 121.203 397.739 125.336 400.405 130.669C404.805 139.336 405.339 141.203 404.805 148.669C404.272 157.469 400.139 165.336 394.272 169.069C391.605 170.669 391.072 170.536 388.672 167.336C385.872 163.469 383.472 162.936 381.072 165.869C376.939 170.803 372.272 164.936 370.805 153.203C369.605 143.469 373.072 135.869 382.805 126.403C387.205 122.003 391.072 118.536 391.339 118.536C391.739 118.536 391.472 122.003 391.072 126.136ZM249.605 145.203H262.672L260.805 148.136C254.272 158.269 255.072 168.669 263.072 175.736C281.205 191.603 306.405 167.736 290.939 149.203L287.472 145.203H302.139C315.072 145.203 317.205 145.603 321.072 148.269C333.472 156.536 333.872 174.136 322.005 183.069C318.539 185.603 316.005 185.869 293.339 186.536C276.672 186.936 267.472 187.736 265.472 188.936C258.405 192.936 256.139 205.869 261.205 212.403C266.272 218.803 268.005 219.203 300.405 219.869L330.939 220.536L332.939 224.003C334.672 227.203 334.672 227.869 332.672 231.069L330.405 234.536H286.939C246.272 234.536 243.739 234.403 245.739 232.269C248.805 229.336 247.472 218.803 243.072 211.869L239.872 206.803L243.872 205.203C251.339 202.136 257.339 192.136 254.939 186.936C254.405 185.603 253.872 183.469 253.739 182.269C253.072 176.536 244.405 172.403 235.872 173.736L231.072 174.403V166.003C231.072 159.069 230.405 156.669 227.872 153.069L224.672 148.803L227.739 146.269C229.605 144.669 232.005 144.003 233.605 144.403C235.205 144.803 242.272 145.203 249.605 145.203ZM284.539 147.336C289.072 150.403 291.739 156.003 291.739 162.669C291.739 167.069 290.939 168.936 287.205 172.669C283.339 176.536 281.739 177.203 276.139 177.203C268.672 177.203 264.672 174.936 261.605 168.936C258.405 162.803 259.872 155.203 265.205 149.736C268.805 146.003 270.539 145.203 275.339 145.203C278.539 145.203 282.672 146.136 284.539 147.336ZM225.205 154.803C227.872 159.336 228.139 168.403 225.739 177.603L224.672 181.469L228.805 179.336C233.205 177.069 243.205 176.536 246.272 178.403C248.272 179.603 251.739 188.269 251.739 192.003C251.739 195.736 242.805 202.536 237.872 202.536C235.472 202.536 233.072 202.936 232.672 203.469C232.139 203.869 234.139 206.803 237.072 210.003C244.539 218.136 246.272 229.469 240.005 230.269C238.139 230.536 236.805 232.003 236.272 234.136C235.472 237.203 234.939 237.469 229.872 236.669C222.272 235.469 214.405 229.603 210.405 222.136C208.539 218.669 206.672 215.869 206.139 215.869C205.605 215.869 204.272 217.603 203.205 219.736C200.139 225.603 190.939 232.803 184.405 234.403C175.205 236.669 173.072 236.403 173.072 232.536C173.072 230.136 172.139 228.803 169.605 227.869C166.405 226.669 166.139 226.003 166.805 221.736C167.739 216.003 172.939 208.803 179.205 204.803C181.605 203.203 183.739 201.469 183.739 200.936C183.739 200.536 180.805 199.069 177.339 198.003C173.739 196.803 169.205 194.003 167.072 191.869L163.472 188.136L168.539 181.869C174.005 175.203 182.939 169.203 187.205 169.203C188.672 169.203 192.005 170.669 194.539 172.536C197.205 174.269 199.739 175.469 200.139 175.069C200.539 174.669 200.539 172.003 200.139 169.069C199.605 165.869 200.005 163.069 201.205 161.736C202.805 159.736 219.205 150.803 221.472 150.536C222.005 150.536 223.605 152.536 225.205 154.803ZM197.072 166.536C197.072 169.603 195.339 170.003 193.205 167.336C192.005 165.869 192.005 165.336 193.339 164.803C196.405 163.469 197.072 163.869 197.072 166.536ZM1100.54 189.736C1102.54 192.936 1102.41 193.203 1097.34 197.736C1092.14 202.403 1090.14 206.136 1088.54 213.469L1087.74 217.069L1083.21 214.403C1077.61 211.203 1066.94 209.869 1062.01 211.736C1058.54 213.069 1058.27 213.736 1058.54 219.469C1058.94 225.336 1058.81 225.736 1054.81 227.069C1048.27 229.336 1047.47 230.669 1049.21 236.003C1051.47 242.403 1055.34 247.469 1061.07 251.736L1066.14 255.469L1063.61 259.469C1062.14 261.736 1060.67 266.669 1060.14 270.403C1059.34 277.203 1059.34 277.203 1063.61 278.003C1067.07 278.803 1067.74 279.469 1067.74 282.669C1067.74 286.403 1067.87 286.536 1075.07 286.536C1082.67 286.536 1088.54 284.403 1091.61 280.669C1094.01 277.736 1095.34 278.003 1096.14 281.469C1096.41 283.203 1097.21 285.603 1097.74 286.803C1098.67 289.069 1095.47 289.203 1041.47 289.203C976.139 289.203 977.739 289.469 978.672 279.336C979.072 276.403 979.739 272.803 980.272 271.469C981.339 269.336 978.939 269.203 940.139 269.203C892.672 269.203 892.139 269.069 886.539 258.136C880.539 246.003 886.405 232.803 899.472 229.203C902.805 228.403 914.939 227.869 929.205 227.869C942.405 228.003 953.605 227.736 954.005 227.336C954.405 226.936 953.472 225.069 951.872 223.069C945.872 215.469 949.339 200.536 958.672 193.203C966.805 186.936 968.539 186.669 1035.34 186.669L1098.41 186.536L1100.54 189.736ZM170.005 198.669C172.805 200.269 175.339 201.869 175.605 202.136C175.872 202.269 174.539 203.736 172.539 205.336C167.739 209.069 163.605 217.603 163.339 224.269C163.072 229.203 163.472 229.869 166.139 230.269C167.739 230.536 169.072 231.603 169.072 232.669C169.072 234.269 165.205 234.536 146.939 234.536C134.405 234.536 125.072 234.003 125.339 233.336C125.605 232.669 133.739 222.803 143.605 211.203C160.272 191.603 161.472 190.536 163.205 192.936C164.272 194.403 167.339 197.069 170.005 198.669ZM1113.07 204.536C1118.67 211.869 1118.81 212.003 1117.87 220.003C1117.07 228.003 1117.21 228.136 1120.14 227.336C1130.54 224.269 1130.67 224.269 1139.47 234.269C1144.01 239.336 1147.74 244.136 1147.74 244.936C1147.74 245.736 1145.61 248.003 1142.94 250.136C1138.94 253.069 1136.41 253.869 1128.94 254.269C1123.87 254.669 1119.74 255.069 1119.74 255.336C1119.74 255.736 1121.87 257.869 1124.54 260.136C1127.07 262.403 1130.14 266.003 1131.21 268.003C1133.07 271.869 1133.74 282.136 1132.27 287.603C1131.47 290.403 1130.81 290.536 1125.74 289.736C1120.27 288.936 1119.87 289.203 1117.87 293.069C1115.21 298.003 1114.81 298.136 1108.94 294.136C1102.94 290.003 1098.67 283.603 1097.61 276.403C1097.21 273.203 1096.41 270.536 1095.87 270.536C1095.47 270.536 1094.01 272.403 1092.81 274.669C1090.14 279.336 1080.14 284.269 1074.67 283.603C1071.74 283.336 1070.94 282.403 1070.67 278.803C1070.27 275.336 1069.74 274.536 1066.94 274.536C1064.41 274.536 1063.74 273.869 1063.74 271.336C1063.74 266.536 1066.14 260.936 1070.01 256.936L1073.34 253.336L1068.27 251.203C1061.74 248.536 1056.01 243.069 1053.47 237.469C1051.21 232.003 1051.87 230.936 1057.87 229.736L1062.54 228.936L1062.14 222.003L1061.74 215.203L1068.81 214.803C1074.67 214.403 1077.21 215.069 1083.07 218.403C1086.94 220.536 1090.54 222.003 1090.94 221.603C1091.34 221.069 1091.74 218.936 1091.74 216.669C1091.87 207.869 1099.21 197.203 1105.21 197.203C1106.41 197.203 1110.01 200.536 1113.07 204.536ZM1125.34 218.136C1128.67 221.069 1128.41 222.536 1124.41 222.536C1121.74 222.536 1121.07 221.869 1121.07 219.203C1121.07 215.336 1122.01 215.069 1125.34 218.136ZM213.205 232.136C214.405 234.269 213.605 234.536 205.072 234.536C200.005 234.536 195.739 234.403 195.739 234.136C195.739 233.869 198.005 231.203 200.805 228.269L205.739 222.803L208.805 226.269C210.539 228.269 212.405 230.936 213.205 232.136ZM1175.87 275.469L1187.87 289.203H1161.74H1135.61L1136.54 282.669C1137.47 275.603 1135.61 268.136 1131.47 262.269L1128.94 258.669L1132.67 257.869C1138.81 256.536 1146.14 252.936 1148.67 250.269C1151.34 247.203 1148.94 245.069 1175.87 275.469ZM184.805 300.803C188.405 297.336 188.672 297.336 190.672 299.469C195.339 304.803 197.605 311.336 197.739 319.336C197.739 328.136 196.005 331.469 184.939 343.869L179.605 349.869L180.539 341.203C181.072 336.403 182.005 332.269 182.539 332.136C184.405 331.336 183.872 328.403 181.739 326.536C179.072 324.403 175.205 327.336 176.539 330.403C177.472 332.936 177.205 348.136 176.139 349.203C175.739 349.603 174.805 348.803 173.872 347.469C173.072 346.003 169.605 340.403 166.139 334.803C162.539 329.203 159.739 323.336 159.739 321.869C159.739 315.603 163.872 305.603 168.539 300.536L173.339 295.203L177.072 299.869L180.939 304.536L184.805 300.803ZM148.405 324.003C151.605 324.936 155.605 327.603 158.405 330.403C163.072 335.469 172.539 350.269 171.605 351.069C170.272 352.269 157.072 346.003 157.072 344.269C157.072 343.069 156.005 342.536 154.139 342.803C152.139 343.069 151.072 344.136 151.072 345.736C151.072 347.603 152.672 348.669 157.072 349.869C160.405 350.803 164.939 352.269 167.072 353.203C171.072 354.936 170.939 354.936 160.405 357.069C154.539 358.269 148.405 360.003 146.939 360.936C142.272 363.469 133.072 359.603 125.872 351.869C122.539 348.269 119.739 344.403 119.739 343.336C119.739 342.136 121.872 340.403 124.405 339.336C129.739 337.069 129.872 336.403 126.939 332.136C124.139 328.136 125.339 325.603 130.672 324.003C136.805 322.269 142.139 322.269 148.405 324.003ZM224.672 330.669C231.205 332.669 232.272 334.803 228.805 339.203L225.872 342.936L228.672 345.069C230.139 346.269 232.539 347.869 233.872 348.669C236.272 350.003 236.139 350.403 232.805 354.803C226.539 363.069 208.805 369.603 204.405 365.336C203.605 364.669 198.539 362.269 193.072 360.136C187.472 357.869 184.005 355.869 185.072 355.469C193.872 352.536 196.405 352.003 198.939 352.669C200.805 353.069 202.672 352.536 203.739 351.203C205.205 349.469 205.205 348.669 203.339 346.936C201.339 344.936 200.939 344.936 198.805 346.803C196.272 349.069 185.205 352.536 184.139 351.336C183.339 350.669 194.405 337.336 199.339 332.936C204.272 328.403 214.139 327.603 224.672 330.669ZM389.605 346.669C392.272 347.869 393.472 347.869 395.072 346.536C396.672 345.203 397.472 345.203 399.339 346.669C402.005 348.936 406.405 358.269 406.405 361.869C406.405 367.069 403.605 373.869 399.605 378.536L395.472 383.203L396.272 375.469C396.939 369.203 396.672 367.603 394.939 366.936C393.872 366.536 391.872 367.069 390.805 368.269C389.072 370.003 388.939 370.803 390.272 372.403C391.205 373.469 391.739 375.869 391.472 377.736L391.072 381.069L385.872 376.269C381.072 371.736 380.672 370.936 380.139 362.669C379.605 355.469 380.005 353.069 382.272 349.469C385.472 344.536 385.205 344.669 389.605 346.669ZM266.405 357.203C271.605 360.003 272.005 368.936 267.205 372.136C264.672 373.869 211.472 373.469 212.005 371.603C212.272 370.803 215.339 369.336 218.672 368.269C222.005 367.336 227.339 364.269 230.539 361.336L236.405 356.003L250.139 355.869C257.739 355.869 265.072 356.403 266.405 357.203ZM164.805 367.203C159.605 372.003 157.339 375.069 157.872 376.403C158.272 377.603 159.472 378.536 160.405 378.536C162.272 378.536 165.339 375.336 164.405 374.403C164.139 374.003 166.272 371.069 169.205 367.869L174.539 361.869L173.739 374.536C172.672 388.936 171.339 392.403 163.739 398.936C158.672 403.203 147.205 407.869 145.605 406.136C144.805 405.336 144.005 401.736 143.872 398.136C143.739 396.403 142.539 395.869 138.405 395.869H133.072V389.469C133.072 381.869 136.672 373.869 142.139 368.669C147.205 364.003 158.405 360.003 166.405 360.003H172.405L164.805 367.203ZM196.805 365.469C206.405 370.003 209.739 373.069 213.205 380.536C215.739 386.136 216.539 397.869 214.539 401.069C213.605 402.536 212.539 402.536 209.072 401.336C203.605 399.469 202.405 400.269 202.405 406.003C202.405 411.869 200.005 412.003 190.405 406.136C184.672 402.803 182.405 400.403 179.472 394.536C176.139 387.603 175.872 386.403 176.672 374.803C177.072 368.136 177.872 362.536 178.272 362.536C179.605 362.536 187.072 375.069 187.205 377.736C187.472 380.936 190.539 382.803 192.672 380.936C195.205 378.936 194.805 376.136 191.872 374.669C189.605 373.469 182.405 362.669 182.405 360.536C182.405 359.336 187.205 360.936 196.805 365.469ZM31.472 365.069C33.472 366.403 42.9386 372.136 52.4053 377.869C62.0053 383.469 70.272 388.936 70.8053 390.003C71.3386 391.069 72.5386 391.869 73.472 391.869C74.9386 391.869 94.1386 403.203 117.072 417.603C122.539 421.069 137.605 430.536 150.405 438.403C163.205 446.403 173.605 453.603 173.472 454.403C173.205 455.203 174.005 455.869 175.072 455.869C176.139 455.869 177.072 456.536 177.072 457.336C177.072 458.003 177.605 458.403 178.272 457.869C180.139 456.803 184.805 459.469 246.005 498.003C262.405 508.136 278.139 518.003 281.072 519.869C284.005 521.736 295.472 528.936 306.405 535.869C327.205 549.069 337.072 555.203 358.805 568.269C366.005 572.669 372.139 576.669 372.539 577.336C372.939 578.003 371.739 580.936 370.005 583.869L366.939 589.069L338.272 573.736C296.805 551.336 228.805 514.936 201.072 500.269C194.805 496.936 189.072 493.736 188.405 493.069C187.605 492.536 179.205 488.136 169.739 483.336C160.139 478.536 148.272 472.403 143.072 469.469C130.272 462.536 107.872 450.669 86.4053 439.469C76.5386 434.403 67.872 429.469 67.072 428.669C66.4053 427.869 65.2053 427.203 64.4053 427.203C62.0053 427.069 48.9386 419.736 49.6053 418.803C49.872 418.269 48.8053 417.736 47.3386 417.603C44.8053 417.469 25.6053 407.603 16.1386 401.736L13.072 399.869L15.872 392.803C17.3386 389.069 20.4053 380.669 22.672 374.136C24.9386 367.736 27.072 362.536 27.472 362.536C27.7386 362.536 29.6053 363.603 31.472 365.069ZM431.472 367.469C434.139 368.136 434.539 368.936 433.872 372.003C433.339 374.803 433.872 376.269 436.005 377.736C442.672 382.536 432.405 393.069 419.739 394.269C413.205 394.803 411.072 396.536 414.939 398.003C418.272 399.336 423.739 409.069 424.672 415.203L425.472 421.203H421.339C418.005 421.203 416.939 421.869 416.272 424.536C415.472 427.736 415.339 427.736 410.672 425.736C404.005 423.069 401.072 420.136 398.139 413.469C396.805 410.403 395.072 407.869 394.405 407.869C393.739 407.869 392.672 409.869 391.872 412.269C390.939 414.803 388.539 418.403 386.405 420.536C382.539 424.269 382.405 424.269 374.805 422.536C370.539 421.603 366.539 420.269 365.872 419.736C363.739 417.869 366.539 408.003 370.539 403.736C375.339 398.536 375.339 397.203 370.805 397.203C366.272 397.203 357.072 393.069 354.539 390.003C352.939 388.136 353.072 387.469 354.939 385.336C356.539 383.603 356.939 381.736 356.272 379.336C355.605 376.269 356.005 375.603 360.272 373.869C365.872 371.469 368.005 371.469 374.539 373.203C379.872 374.669 390.805 383.469 389.605 385.336C388.672 386.936 382.805 386.936 381.739 385.203C380.539 383.203 377.472 383.603 376.672 385.736C376.272 386.803 376.805 388.669 377.739 390.136C379.205 392.003 379.872 392.269 381.205 390.803C382.139 390.003 384.939 389.203 387.339 389.203H391.872L389.605 393.469C388.272 395.869 386.539 398.536 385.472 399.203C382.939 401.069 384.672 405.203 387.872 405.203C389.472 405.203 390.405 404.269 390.405 402.536C390.405 399.469 393.072 393.203 394.405 393.203C396.005 393.203 398.005 396.269 398.939 400.136C399.472 402.669 400.672 403.869 402.539 403.869C406.939 403.869 407.072 400.136 402.539 396.003C400.272 393.869 398.405 391.203 398.405 390.136C398.405 387.736 404.805 386.269 408.139 388.003C411.072 389.603 413.072 388.536 413.072 385.069C413.072 382.003 409.472 380.269 407.339 382.403C406.539 383.203 404.539 383.869 402.805 383.869H399.739L403.205 378.536C406.405 373.736 410.805 369.869 415.739 367.603C418.272 366.403 427.472 366.269 431.472 367.469ZM1240.14 371.203C1241.34 373.869 1242.41 376.269 1242.41 376.536C1242.41 377.203 1222.01 389.069 1207.07 397.203C1201.21 400.403 1194.67 404.003 1192.41 405.203C1153.07 427.203 1137.07 436.136 1127.07 441.869C1120.54 445.603 1104.94 454.403 1092.41 461.203C1080.01 468.003 1057.74 480.269 1043.07 488.536C969.739 529.736 953.605 538.536 952.272 538.536C951.739 538.536 953.872 536.669 956.805 534.536C959.872 532.269 962.672 530.536 963.072 530.536C963.339 530.536 968.005 527.603 973.339 524.003C978.672 520.536 986.805 515.736 991.339 513.336C995.872 511.069 1004.27 506.403 1010.01 503.069C1015.74 499.603 1022.27 495.869 1024.41 494.536C1034.67 488.669 1054.27 477.203 1058.81 474.536C1061.47 472.936 1063.74 470.669 1063.74 469.603C1063.74 468.536 1064.54 467.869 1065.47 468.269C1066.27 468.536 1069.21 466.669 1071.74 464.136C1074.27 461.603 1079.47 458.136 1083.07 456.403C1086.81 454.803 1090.67 452.536 1091.61 451.336C1092.67 450.136 1094.41 449.469 1095.87 449.869C1097.07 450.269 1098.54 450.003 1099.07 449.203C1099.47 448.536 1099.07 447.869 1098.14 447.869C1097.21 447.869 1097.61 447.069 1099.07 446.003C1103.87 442.669 1127.47 430.403 1128.54 430.669C1131.21 431.336 1154.41 420.003 1154.41 418.136C1154.41 417.469 1151.74 418.536 1148.41 420.269C1145.07 422.136 1142.41 423.203 1142.41 422.536C1142.41 421.069 1160.01 410.536 1181.34 399.336C1186.67 396.536 1193.74 392.269 1197.07 389.869C1200.41 387.603 1208.81 382.403 1215.74 378.536C1222.67 374.669 1230.27 370.269 1232.41 368.936C1237.61 365.869 1237.61 365.736 1240.14 371.203ZM884.405 376.003C889.739 378.669 890.272 378.669 896.272 376.669C904.672 373.736 908.805 374.003 915.739 377.469C919.872 379.736 922.539 382.269 924.672 386.403C926.405 389.736 928.005 392.669 928.405 392.936C928.672 393.336 932.139 392.269 936.005 390.536C948.539 385.203 965.605 388.403 974.539 398.136C979.472 403.469 982.405 409.603 982.405 415.069C982.405 419.203 983.072 420.003 989.605 423.603C1006.41 433.203 1008.27 452.803 993.739 468.936C984.805 478.936 975.339 482.536 954.539 484.136C945.205 484.803 934.539 486.536 930.405 487.869L923.205 490.269L918.805 486.403C916.272 484.269 913.605 482.536 912.805 482.536C911.739 482.536 911.605 482.136 912.539 481.203C913.339 480.403 920.939 478.269 929.605 476.536C949.739 472.269 959.739 468.803 968.539 463.203C977.339 457.469 982.539 449.869 983.339 441.469C984.405 430.403 976.139 424.269 968.005 430.003C963.472 433.203 959.205 432.003 958.672 427.336C958.405 424.803 958.939 423.069 960.272 422.269C965.072 419.603 961.472 412.136 953.472 408.003C949.872 406.136 937.072 406.136 932.272 407.869C930.272 408.669 926.272 411.203 923.472 413.469C916.272 419.203 912.139 417.869 908.939 408.669C907.605 405.203 905.472 401.469 904.139 400.403C899.605 396.669 891.072 393.203 886.539 393.203C879.739 393.203 870.939 397.869 869.072 402.669C867.739 405.603 866.805 406.403 865.205 405.736C854.672 401.069 842.405 408.003 842.405 418.669C842.405 423.203 839.872 426.536 836.405 426.536C834.672 426.536 832.805 425.869 832.272 425.069C831.739 424.136 829.072 423.869 824.672 424.403C818.672 425.203 817.739 425.069 814.272 421.736C811.205 418.803 809.739 418.269 805.605 418.936C800.139 419.869 796.405 422.669 793.605 428.269C792.005 431.336 791.205 431.736 789.072 430.536C786.939 429.469 786.405 427.736 786.405 422.536C786.405 416.803 787.072 415.069 790.805 410.936C794.805 406.669 796.272 406.003 802.939 405.469C809.605 404.936 810.805 404.403 812.405 401.069C813.472 399.069 816.672 395.603 819.339 393.603C823.739 390.269 825.205 389.869 835.472 389.736C845.205 389.736 846.939 389.336 848.005 387.069C850.405 382.536 856.272 376.936 860.405 375.069C866.539 372.269 877.872 372.803 884.405 376.003ZM900.139 401.603C903.339 404.003 905.205 406.803 906.139 410.936C907.872 417.736 910.005 419.869 915.339 420.403C918.405 420.803 919.072 421.469 918.805 424.403C917.739 438.403 896.539 452.403 857.605 464.936C841.739 470.003 836.139 471.336 829.872 471.069C824.272 470.803 821.605 470.136 820.805 468.669C820.005 467.203 820.139 466.269 821.339 465.869C822.272 465.603 829.339 463.069 837.072 460.403C866.539 450.403 880.672 440.936 886.405 427.603C890.405 418.269 889.739 412.536 882.672 398.003C881.339 395.336 895.739 398.269 900.139 401.603ZM882.405 405.203C885.739 411.869 885.872 421.203 882.539 427.603C879.205 434.269 869.739 442.803 860.805 447.336C854.805 450.403 820.939 462.536 818.405 462.536C817.872 462.536 816.805 461.069 816.005 459.336C814.672 456.269 814.939 456.003 826.139 452.003C847.472 444.403 857.072 436.803 857.072 427.603C857.072 422.536 854.672 417.736 850.939 415.736C846.939 413.736 846.939 412.536 850.672 410.003C854.539 407.336 860.272 407.336 864.405 410.003C868.672 412.803 870.672 412.003 871.205 407.203C871.605 403.069 876.405 398.003 878.539 399.336C879.205 399.736 880.939 402.403 882.405 405.203ZM553.739 406.669C565.472 410.269 577.605 418.003 586.805 427.869L594.939 436.536L588.672 437.736C582.539 438.803 582.405 438.669 575.472 432.669C548.405 408.803 510.539 409.603 485.205 434.403C477.605 442.003 477.072 442.269 472.405 441.203C469.739 440.536 467.205 439.736 466.805 439.336C465.605 438.136 478.272 424.136 485.605 418.536C496.405 410.403 507.605 406.136 525.072 403.336C530.939 402.403 545.472 404.136 553.739 406.669ZM944.272 414.669C948.672 437.069 934.139 453.069 897.072 465.869C879.205 472.003 856.139 478.536 852.139 478.536C850.405 478.536 847.472 477.469 845.872 476.269C842.805 473.869 842.939 473.869 864.272 466.403C888.539 458.003 894.139 455.336 906.139 446.936C915.872 440.003 921.872 431.603 923.205 423.069C924.272 415.336 930.139 410.936 939.205 410.669C942.805 410.536 943.472 411.069 944.272 414.669ZM954.405 412.536C958.805 414.803 959.605 418.536 956.405 421.203C953.472 423.603 954.005 429.203 957.339 432.803C960.672 436.269 964.805 436.803 968.539 433.869C972.672 430.669 977.739 431.336 979.605 435.336C983.472 443.736 974.405 457.069 960.272 463.736C956.672 465.469 946.272 468.669 937.072 470.803C927.872 472.936 916.672 475.869 912.005 477.336C907.472 478.669 900.805 479.869 897.205 479.869C892.672 479.869 888.405 481.069 882.939 483.869C875.339 487.603 875.072 487.736 872.805 485.203C871.472 483.869 869.339 482.136 868.139 481.336C866.805 480.669 866.005 479.869 866.405 479.603C866.805 479.336 875.472 476.403 885.739 473.336C922.405 462.003 941.739 449.469 947.072 433.336C949.339 426.536 949.339 418.403 947.072 412.803C945.872 409.869 949.072 409.736 954.405 412.536ZM850.939 420.136C853.872 424.269 853.605 430.803 850.272 435.069C846.939 439.203 837.339 444.403 824.539 448.669C813.339 452.536 810.939 452.669 809.072 449.336C807.205 445.736 807.072 445.869 813.739 443.336C819.739 440.936 827.739 433.336 827.739 429.869C827.739 427.469 828.272 427.469 833.872 429.469C840.139 431.736 845.072 428.269 845.072 421.869C845.072 416.403 847.872 415.603 850.939 420.136ZM545.472 420.536C549.739 421.603 555.739 423.736 558.805 425.336C565.072 428.536 575.739 436.803 575.739 438.536C575.739 439.069 573.072 440.003 569.872 440.403C564.805 441.203 562.805 440.669 554.405 436.269C545.072 431.336 544.272 431.203 531.205 431.203C515.739 431.203 509.339 433.469 498.405 442.536L492.005 447.869L487.205 445.869C482.939 444.003 482.539 443.469 483.739 441.203C485.605 437.869 497.205 428.536 504.005 425.069C516.405 418.803 532.005 417.069 545.472 420.536ZM765.605 423.069C782.405 428.803 800.139 441.869 809.205 455.336C812.672 460.269 818.672 472.003 818.139 472.536C815.739 474.536 808.405 477.336 808.139 476.269C806.672 472.003 797.472 458.403 792.672 453.469C778.405 438.536 762.805 431.736 741.339 430.803C724.405 430.136 714.805 432.003 701.739 438.536C692.405 443.203 691.472 443.469 685.739 442.136C682.405 441.336 679.739 440.269 679.739 439.736C679.739 436.003 704.672 423.336 717.739 420.403C730.672 417.469 752.805 418.669 765.605 423.069ZM813.872 426.003C816.672 428.136 819.472 429.203 821.072 428.803C824.672 427.869 824.539 431.069 820.939 434.669C818.005 437.603 808.272 442.403 805.205 442.536C802.272 442.536 795.739 435.736 795.739 432.803C795.739 429.469 802.805 422.536 806.405 422.536C808.005 422.536 811.339 424.136 813.872 426.003ZM209.205 426.936C217.472 432.403 221.072 445.603 216.539 454.403C212.672 461.736 211.605 461.869 200.272 454.803C165.872 433.603 153.605 426.003 152.539 425.069C151.739 424.403 163.072 423.869 178.005 423.869C203.472 423.869 204.939 424.003 209.205 426.936ZM373.072 426.003C383.739 428.403 399.072 435.869 406.272 442.003C409.339 444.669 411.739 447.203 411.739 447.603C411.739 448.136 409.605 449.603 407.072 450.803L402.405 453.203L394.272 447.869C383.205 440.669 373.205 437.203 361.205 436.269C341.339 434.803 324.939 441.069 310.139 456.003L301.339 464.936L295.872 463.603C292.805 462.803 290.405 461.603 290.405 460.803C290.405 460.136 295.605 454.269 302.139 448.003C310.539 439.603 316.272 435.203 322.805 432.003C338.939 424.269 356.672 422.136 373.072 426.003ZM550.939 438.536C554.405 440.136 557.072 441.869 557.072 442.403C557.072 444.403 542.272 446.803 535.605 445.869C527.205 444.669 518.005 446.936 511.205 451.736L505.872 455.469L501.472 452.936C499.072 451.469 497.072 449.736 497.072 449.203C497.072 447.469 507.072 440.003 512.672 437.736C524.005 432.936 540.139 433.203 550.939 438.536ZM760.272 437.203C776.405 442.269 791.872 455.069 800.939 470.936L805.472 478.803L803.072 485.869C801.205 491.336 800.139 492.669 798.272 492.269C796.939 491.869 795.472 489.736 794.939 487.336C791.872 473.336 778.272 457.469 762.939 450.269C751.472 444.936 733.605 443.603 720.405 447.203C711.872 449.469 711.472 449.469 699.872 445.736C695.339 444.269 712.139 437.069 726.139 434.536C734.805 432.936 750.272 434.136 760.272 437.203ZM372.405 441.736C379.605 443.603 390.405 448.936 395.605 452.936L398.805 455.469L394.005 459.069L389.205 462.669L384.139 459.336C375.739 453.869 368.005 451.603 356.405 451.603C342.272 451.469 332.939 455.069 322.672 464.403L315.072 471.469L310.805 469.469C308.405 468.269 306.405 466.936 306.405 466.269C306.405 464.003 317.339 453.336 323.872 449.069C337.205 440.536 356.939 437.469 372.405 441.736ZM474.405 445.469C482.005 447.203 502.805 457.069 503.339 459.203C503.605 459.869 501.339 461.603 498.405 462.803C493.205 464.936 492.805 464.936 485.872 461.736C463.739 451.603 435.739 452.669 414.005 464.136C404.139 469.469 389.605 483.469 384.272 492.936C380.939 498.936 379.872 499.869 376.405 499.869C368.805 499.869 368.272 498.269 373.205 489.203C378.805 478.669 393.205 463.203 402.939 457.336C425.072 444.003 450.272 439.869 474.405 445.469ZM621.872 495.869C621.872 523.336 621.605 578.403 621.205 618.003L620.405 690.269L605.472 642.003C577.605 552.669 549.339 460.536 548.805 458.003C548.405 455.736 550.139 455.069 563.072 452.269C580.939 448.403 604.539 445.336 614.405 445.603L621.739 445.869L621.872 495.869ZM653.072 447.203C663.605 448.003 685.072 452.003 696.539 455.336L703.472 457.336L698.405 473.603C695.605 482.536 688.139 506.936 681.739 527.869C675.339 548.803 666.272 578.403 661.472 593.869C645.205 646.803 642.539 655.203 638.405 669.869C636.139 677.869 633.605 685.069 632.805 685.869C631.872 686.803 631.605 677.203 632.272 654.669C632.672 636.803 633.072 582.269 633.072 533.603V445.203L638.139 445.736C640.805 446.136 647.605 446.803 653.072 447.203ZM530.272 449.736C529.605 450.403 511.739 457.203 510.672 457.203C508.805 457.203 516.539 452.669 520.939 451.069C525.472 449.336 531.472 448.536 530.272 449.736ZM762.672 454.269C767.872 456.803 774.405 461.469 778.139 465.069C784.139 471.336 793.072 486.936 791.472 488.536C790.139 489.869 776.672 480.403 770.405 473.869C763.605 466.803 754.005 461.603 745.072 460.536C741.739 460.003 736.272 458.536 732.805 457.069C729.339 455.736 724.939 453.869 722.805 453.069C719.339 451.736 719.205 451.469 721.739 450.403C723.205 449.736 731.072 449.469 739.072 449.603C752.539 449.869 754.539 450.269 762.672 454.269ZM374.405 458.403C378.405 460.003 382.939 462.136 384.405 463.203C386.939 465.203 386.939 465.336 383.072 469.203L379.072 473.203L373.072 470.269C359.872 463.736 344.405 465.869 331.605 476.003L326.405 480.136L322.539 476.803L318.672 473.603L321.472 470.269C333.739 456.003 355.605 451.069 374.405 458.403ZM475.605 461.869C481.472 463.736 486.672 465.869 487.072 466.403C487.472 467.069 485.072 469.203 481.739 471.069C475.872 474.269 475.472 474.269 470.005 472.403C460.939 469.069 442.272 469.336 431.339 473.069C419.605 477.069 407.339 486.269 400.539 496.269C395.605 503.469 394.939 503.869 391.072 503.069C388.939 502.669 386.539 501.736 385.872 501.069C382.139 497.603 400.939 475.603 414.139 468.269C432.405 458.003 455.739 455.603 475.605 461.869ZM541.739 475.469C544.405 484.136 551.072 505.336 556.405 522.536C561.739 539.736 574.672 581.203 584.939 614.536C595.205 647.869 605.072 680.003 606.939 685.736C608.939 692.269 609.605 695.603 608.405 694.403C607.472 693.336 596.272 678.136 583.605 660.536C558.939 626.269 517.205 568.669 484.139 523.203C472.939 507.736 463.739 494.936 463.739 494.536C463.739 493.336 481.339 482.936 495.205 476.003C510.005 468.536 531.072 460.003 534.672 459.869C536.405 459.869 538.005 463.469 541.739 475.469ZM724.005 464.403C736.672 469.203 752.672 476.936 763.739 483.603C774.539 490.003 793.072 502.536 793.072 503.336C793.072 503.603 788.139 510.003 782.005 517.469C770.139 532.136 687.072 639.603 659.872 675.603C650.805 687.469 643.072 697.069 642.805 696.669C642.005 695.869 644.005 688.936 659.072 640.536C666.672 616.269 674.672 590.536 676.805 583.203C679.072 575.869 686.939 550.403 694.139 526.536C701.472 502.669 708.805 478.669 710.405 473.203C713.472 463.069 714.139 461.203 715.072 461.203C715.472 461.203 719.472 462.669 724.005 464.403ZM288.539 465.336C298.405 467.069 315.872 475.469 323.605 482.003C326.805 484.803 331.739 490.003 334.672 493.736L340.005 500.403L334.405 502.269L328.805 504.136L322.272 497.336C307.872 482.269 290.272 475.069 270.539 476.269C263.605 476.669 256.272 478.003 251.872 479.603C245.472 482.136 244.272 482.269 241.072 480.536C233.739 476.669 233.872 475.336 242.272 471.336C256.805 464.403 272.139 462.403 288.539 465.336ZM370.139 473.203C373.205 474.536 375.739 476.136 375.739 476.536C375.739 478.269 371.205 485.203 370.005 485.203C369.472 485.203 367.739 484.536 366.272 483.736C361.072 480.936 349.472 482.003 342.805 485.869L336.805 489.469L333.339 486.003C330.005 482.669 330.005 482.536 332.272 480.003C340.272 471.203 358.539 467.869 370.139 473.203ZM1059.74 471.869C1059.74 472.536 1059.07 473.203 1058.27 473.203C1057.61 473.203 1057.34 472.536 1057.74 471.869C1058.14 471.069 1058.81 470.536 1059.21 470.536C1059.47 470.536 1059.74 471.069 1059.74 471.869ZM463.739 474.669C467.339 475.469 470.405 476.536 470.405 476.936C470.405 477.469 467.872 479.336 464.672 481.203C460.405 483.736 456.405 484.669 448.272 485.336C440.005 485.869 436.005 486.936 430.672 489.869C424.005 493.469 411.472 505.203 410.272 509.069C409.739 510.403 408.672 510.269 404.672 508.403C402.005 507.069 399.739 505.469 399.739 504.803C399.739 502.536 407.872 492.003 413.339 487.203C426.939 475.603 445.872 470.803 463.739 474.669ZM842.672 478.403C846.805 481.069 849.739 482.003 852.139 481.603C858.405 480.403 864.672 482.536 870.539 487.736L876.405 492.803L881.072 489.069C889.872 482.269 900.139 480.936 910.672 485.469C915.872 487.603 918.405 489.869 921.605 494.936C925.472 501.069 926.272 501.469 931.605 501.736C936.272 502.003 938.272 502.936 941.205 506.269C947.472 513.336 946.539 516.936 936.805 523.069C932.139 525.869 927.072 529.203 925.339 530.269C922.405 532.136 922.405 532.136 923.739 528.669C925.605 523.469 925.339 517.203 923.205 516.403C922.139 516.003 920.005 516.403 918.405 517.203C914.672 519.203 908.139 517.603 906.272 514.403C905.339 512.403 905.472 510.803 907.339 507.869C909.339 504.269 909.472 503.603 907.605 501.869C903.605 497.736 888.139 496.936 882.405 500.536C881.472 501.069 877.205 501.603 872.805 501.736C864.139 501.869 862.405 503.203 862.405 510.003C862.405 512.269 861.472 514.936 860.272 516.003C857.072 518.669 853.872 515.736 852.939 509.336C851.739 500.269 848.405 498.003 834.939 497.469C821.872 496.936 818.405 498.669 818.405 505.469C818.405 507.469 818.005 509.203 817.472 509.203C815.339 509.203 800.939 496.803 802.139 496.003C802.805 495.603 803.872 493.336 804.272 491.069C805.339 486.536 813.205 478.136 818.405 476.003C820.272 475.336 825.072 474.669 829.205 474.669C835.072 474.536 837.739 475.336 842.672 478.403ZM293.472 482.803C297.739 484.136 303.472 486.669 306.272 488.403C311.739 491.869 323.739 503.203 323.739 504.936C323.739 505.469 321.605 507.069 318.805 508.403L314.005 510.669L307.872 504.669C304.539 501.336 298.139 496.936 293.739 494.936C286.539 491.603 284.272 491.203 271.739 491.203C260.139 491.203 256.939 490.803 253.472 488.536C251.072 487.203 249.072 485.469 249.072 484.936C249.072 483.869 260.805 480.269 267.072 479.469C273.739 478.669 285.339 480.003 293.472 482.803ZM364.405 487.203L369.072 489.069L366.939 493.603C364.805 498.136 364.672 498.136 354.005 498.936C344.805 499.736 343.072 499.469 341.605 497.469C338.672 493.869 340.005 491.469 346.405 488.136C353.205 484.669 358.005 484.403 364.405 487.203ZM453.072 488.403C453.072 488.669 449.739 491.336 445.739 494.403C441.605 497.469 434.005 503.869 428.672 508.536C418.939 516.936 418.939 516.936 415.739 514.536L412.672 512.136L416.672 506.669C423.739 497.069 432.272 491.869 445.739 488.803C449.339 488.003 453.072 487.736 453.072 488.403ZM1021.07 493.069C1021.07 493.736 1020.01 494.536 1018.81 495.069C1017.47 495.469 1015.47 496.269 1014.41 496.669C1013.34 497.069 1013.87 496.136 1015.74 494.669C1019.34 491.736 1021.07 491.203 1021.07 493.069ZM293.072 498.536C300.139 502.136 308.672 508.803 309.605 511.336C310.139 512.536 308.672 514.003 305.739 515.469C301.205 517.603 300.939 517.603 298.005 514.803C296.405 513.336 291.739 510.536 287.605 508.669C279.605 505.203 265.072 496.269 265.072 494.936C265.072 494.536 270.005 494.536 276.139 494.803C284.005 495.203 288.672 496.269 293.072 498.536ZM831.739 502.536C835.205 506.003 835.339 514.536 831.872 518.669L829.205 521.869L824.539 517.336C820.672 513.603 820.005 512.136 820.672 508.669C821.339 504.803 825.339 499.869 827.872 499.869C828.539 499.869 830.272 501.069 831.739 502.536ZM1007.74 500.536C1007.74 500.803 1005.34 502.403 1002.41 503.869C999.472 505.336 997.072 506.269 997.072 505.869C997.072 505.603 999.339 504.136 1002.14 502.669C1007.74 499.603 1007.74 499.603 1007.74 500.536ZM489.205 549.469C508.539 576.136 536.272 614.403 550.805 634.536C565.472 654.669 579.339 673.869 581.872 677.203C599.739 701.336 611.472 717.869 611.072 718.269C610.805 718.536 590.939 707.203 566.805 693.069C542.805 678.936 516.139 663.469 507.739 658.536C499.339 653.603 479.205 641.869 463.072 632.269C446.939 622.803 422.005 608.136 407.739 599.869C393.472 591.603 381.605 584.669 381.339 584.403C380.539 583.869 394.405 562.136 402.005 552.003C406.139 546.536 414.005 537.336 419.605 531.469C429.472 521.069 451.472 501.336 453.339 501.203C453.739 501.203 470.005 522.936 489.205 549.469ZM846.139 503.336C848.139 504.669 849.072 506.669 849.072 509.869C849.072 512.669 850.272 515.736 852.539 518.403C855.205 521.603 855.605 522.936 854.539 525.069C852.672 528.403 845.339 534.536 843.072 534.536C842.005 534.536 839.205 532.269 836.539 529.603L831.872 524.669L834.805 520.669C837.072 517.469 837.739 514.803 837.605 508.803C837.472 501.869 837.739 501.203 840.272 501.203C841.872 501.203 844.539 502.136 846.139 503.336ZM904.005 503.603C905.072 504.669 905.072 505.603 903.739 507.203C902.672 508.536 902.405 511.069 902.939 514.403C904.539 524.803 897.472 540.536 886.139 551.336C880.672 556.669 866.805 566.536 864.939 566.536C864.405 566.536 862.805 564.669 861.339 562.269L858.672 558.003L864.139 554.536C867.205 552.536 872.805 547.603 876.672 543.469C885.472 533.869 889.339 524.003 889.072 512.003C888.939 507.069 888.939 502.669 888.939 502.003C889.072 500.403 902.272 501.869 904.005 503.603ZM391.072 506.936C400.939 510.403 409.205 514.269 413.739 517.603C416.405 519.603 416.405 519.736 412.672 523.603L408.805 527.603L400.005 523.203C388.005 517.203 376.272 514.403 362.939 514.269C348.405 514.269 338.672 516.403 325.472 522.536L314.672 527.603L309.605 524.269C304.805 520.936 304.805 520.669 307.205 518.803C312.139 515.069 328.539 507.869 338.405 505.203C352.672 501.336 377.605 502.136 391.072 506.936ZM885.605 508.003C888.405 522.269 876.939 542.803 861.205 551.603L856.272 554.403L850.672 547.069C845.072 539.869 843.872 537.203 846.405 537.203C848.805 537.203 856.805 529.203 858.539 524.936C859.472 522.536 861.472 519.603 862.805 518.536C864.272 517.336 865.472 514.536 865.605 512.136C865.872 506.403 867.205 505.469 875.739 504.803C879.739 504.536 883.472 504.269 883.872 504.136C884.405 504.003 885.072 505.736 885.605 508.003ZM818.805 526.003C826.005 533.203 835.472 543.736 840.139 549.469C848.805 560.536 858.405 575.336 858.405 577.869C858.405 578.669 842.405 589.203 822.939 601.203C803.339 613.336 756.405 642.536 718.539 666.136C680.672 689.736 649.472 708.803 649.205 708.536C648.672 708.003 650.539 705.603 691.872 651.869C776.272 542.136 801.472 510.669 803.605 511.869C804.939 512.536 811.739 518.803 818.805 526.003ZM377.605 519.203C388.005 521.336 405.072 528.803 405.072 531.203C405.072 532.003 403.605 534.136 401.739 535.869L398.539 538.936L390.539 535.336C381.339 531.203 371.605 529.203 361.205 529.203C352.805 529.203 338.939 532.136 333.205 535.069C329.739 536.936 329.072 536.803 324.672 533.736C321.872 531.869 319.739 530.136 319.739 529.736C319.739 528.003 338.139 520.803 346.805 519.203C359.605 516.803 366.539 516.803 377.605 519.203ZM922.405 521.336C922.405 522.136 921.205 525.603 919.605 529.203C917.205 534.669 915.205 536.803 905.339 543.469C898.939 547.736 892.939 551.736 891.872 552.403C890.805 553.069 892.005 550.936 894.672 547.736C900.539 540.536 903.205 535.469 905.205 527.336C906.672 521.203 906.939 520.936 910.939 521.603C913.205 522.003 916.272 521.869 917.739 521.203C921.472 519.603 922.405 519.603 922.405 521.336ZM954.939 531.203C953.605 532.269 951.872 533.069 951.072 533.069C950.405 533.069 950.939 532.269 952.272 531.203C953.739 530.136 955.472 529.203 956.272 529.203C956.939 529.203 956.405 530.136 954.939 531.203ZM379.072 535.069C386.539 537.069 395.739 541.203 395.739 542.669C395.739 543.069 394.405 545.203 392.805 547.336C391.205 549.469 389.872 551.336 389.739 551.469C389.605 551.736 387.205 550.669 384.272 549.336C375.472 545.069 363.739 543.336 354.272 545.069C346.539 546.403 345.739 546.269 340.139 542.936C336.939 541.069 334.672 539.069 335.339 538.403C339.872 534.003 367.205 531.869 379.072 535.069ZM948.672 540.803C947.472 542.003 946.005 542.536 945.472 542.003C944.939 541.469 945.339 540.536 946.405 539.869C949.739 537.736 951.072 538.403 948.672 540.803ZM936.939 546.936C936.672 547.069 935.205 548.136 933.739 549.203C931.205 551.069 931.205 551.069 932.939 548.803C933.872 547.603 935.339 546.536 936.139 546.536C936.939 546.536 937.205 546.669 936.939 546.936ZM373.072 549.336C376.272 550.003 380.939 551.603 383.205 552.669L387.472 554.669L384.005 560.536C382.005 563.869 379.872 566.536 379.205 566.536C378.405 566.536 371.739 562.803 364.272 558.269C355.605 552.936 351.205 549.603 352.139 548.936C354.405 547.469 366.005 547.736 373.072 549.336ZM929.072 551.869C925.872 553.869 924.139 553.336 926.939 551.203C928.405 550.136 929.872 549.603 930.272 550.003C930.672 550.403 930.139 551.203 929.072 551.869Z" fill="#8F76E8"/>
<path d="M473.072 213.603C473.072 214.536 475.206 216.403 477.739 217.603C482.272 219.736 490.406 229.336 490.406 232.536C490.406 234.536 496.139 237.203 500.406 237.203C507.206 237.203 510.139 226.003 505.072 219.469C503.606 217.603 499.606 215.203 496.139 214.003C488.406 211.336 473.072 211.069 473.072 213.603Z" fill="#8F76E8"/>
<path d="M782.139 230.536C779.472 232.003 770.539 234.269 762.139 235.736C736.672 240.136 734.272 240.269 728.405 237.203C725.472 235.736 722.405 234.536 721.472 234.536C716.805 234.536 722.005 249.336 728.539 254.403C732.805 257.736 735.872 257.869 741.072 255.203C745.472 252.936 770.805 246.536 775.472 246.536C778.405 246.536 778.272 246.803 773.205 256.936C760.139 283.069 732.272 312.003 699.739 333.336C689.739 340.003 707.472 336.003 722.939 328.269C737.339 321.069 747.339 313.869 760.005 301.469L771.605 290.269L775.605 293.069C782.139 297.736 790.939 308.669 797.072 319.603C804.539 332.936 807.339 335.869 812.005 335.869C816.805 335.869 822.405 330.536 822.405 326.136C822.405 317.469 820.539 313.736 811.872 305.203C805.205 298.669 799.872 294.936 790.005 290.136L776.939 283.736L780.805 278.803C782.805 276.136 787.872 268.669 791.739 262.269C795.739 255.869 800.405 249.869 802.139 248.936C808.939 245.336 808.539 242.803 800.539 235.069C792.405 227.069 789.872 226.536 782.139 230.536Z" fill="#8F76E8"/>
<path d="M511.072 239.736C508.005 242.536 480.405 248.936 466.272 250.136C459.472 250.669 456.272 250.403 452.938 248.669C443.872 244.136 444.405 252.936 453.872 262.269C460.805 269.203 459.605 269.336 484.805 260.403C494.538 257.069 502.805 254.536 503.338 254.936C504.272 256.003 493.738 268.669 483.738 278.403C473.738 288.136 455.472 302.136 441.738 310.536C429.072 318.403 425.872 321.203 430.005 321.203C438.272 321.203 460.005 311.603 478.805 299.469C484.538 295.869 489.338 293.069 489.472 293.336C489.738 293.603 489.472 299.469 489.072 306.269C488.538 316.403 487.872 319.069 485.872 320.536C483.605 322.269 483.605 322.669 485.738 329.069C490.538 343.869 498.272 349.336 503.338 341.736C506.005 337.603 506.138 329.203 503.872 298.536L502.672 281.869L517.205 267.469C525.205 259.603 531.738 252.269 531.738 251.203C531.738 249.203 517.472 237.203 515.072 237.203C514.272 237.203 512.538 238.269 511.072 239.736Z" fill="#8F76E8"/>
<path d="M565.072 270.536C565.072 276.003 569.072 283.469 574.939 289.069L579.739 293.736L586.272 292.003C597.872 289.069 616.806 287.736 654.272 287.203C679.072 286.803 691.339 286.136 692.539 285.069C695.339 282.803 694.806 279.336 690.939 275.469C684.939 269.469 680.272 268.669 659.206 270.536C636.539 272.403 601.206 274.136 588.406 274.003C580.806 273.869 577.872 273.203 572.806 270.136C569.339 268.136 566.272 266.536 565.872 266.536C565.472 266.536 565.072 268.403 565.072 270.536Z" fill="#8F76E8"/>
<path d="M512.272 282.803C511.339 284.269 511.072 284.003 520.272 291.336C523.872 294.136 530.005 301.069 534.005 306.669C537.872 312.269 542.005 317.336 543.205 317.736C550.405 320.536 555.739 316.536 555.739 308.403C555.739 296.936 541.339 286.803 519.339 282.669C515.472 282.003 512.672 282.003 512.272 282.803Z" fill="#8F76E8"/>
<path d="M1186.4 320.669C1186.4 332.136 1178.94 340.803 1166.14 344.003C1157.87 346.003 1150.94 344.536 1146.14 339.869C1142.27 335.869 1141.34 331.069 1143.74 326.536C1144.54 324.936 1144.67 323.736 1143.87 323.203C1142 322.136 1139.47 327.469 1139.47 332.536C1139.47 350.269 1170.27 353.736 1183.6 337.603C1188.14 332.003 1190.8 323.736 1189.74 318.403C1188.4 312.403 1186.4 313.869 1186.4 320.669Z" fill="#8F76E8"/>
<path d="M92.1395 350.003C82.9395 354.669 80.0062 365.203 85.3395 374.669C91.8729 386.269 107.74 386.536 115.206 375.069C118.14 370.803 118.006 360.803 115.206 356.536C110.273 349.069 99.7395 346.136 92.1395 350.003ZM108.94 355.336C116.406 361.469 115.606 373.736 107.606 377.869C97.2062 383.336 86.4062 377.336 86.4062 366.269C86.5395 353.869 99.6062 347.469 108.94 355.336Z" fill="#8F76E8"/>
<path d="M210.005 174.002C209.605 174.402 209.605 177.736 210.005 181.202C210.939 188.936 208.672 190.936 205.739 185.202C203.605 181.202 199.739 179.736 199.739 182.936C199.739 184.002 200.939 185.869 202.405 187.202C203.872 188.536 205.072 190.136 205.072 190.802C205.072 192.936 198.939 191.869 196.672 189.202C193.739 185.736 190.139 187.069 190.672 191.736C191.072 194.669 191.605 195.202 195.072 194.802C200.672 194.402 205.072 195.602 205.072 197.602C205.072 199.736 199.472 205.202 197.339 205.202C195.072 205.202 195.339 209.869 197.605 211.736C199.072 212.936 200.005 212.802 201.605 211.202C202.805 210.002 203.739 208.269 203.739 207.469C203.739 206.536 204.939 204.536 206.139 202.802C208.405 200.002 208.672 199.869 210.405 201.869C211.339 203.069 212.539 206.269 212.939 208.936C213.605 212.669 214.405 213.869 216.405 213.869C218.139 213.869 219.205 212.802 219.472 210.802C219.739 209.202 219.205 207.869 218.405 207.869C217.605 207.869 216.005 205.736 214.939 203.069C212.139 196.402 214.272 194.002 222.005 194.936C228.539 195.602 231.872 193.336 229.072 189.869C228.139 188.802 226.672 187.869 225.739 187.869C224.805 187.869 223.339 188.802 222.405 189.869C221.472 190.936 219.072 191.869 216.939 191.869C213.472 191.869 213.072 191.469 213.072 187.469C213.072 185.069 214.005 181.869 215.072 180.269C216.139 178.669 216.672 176.536 216.272 175.336C215.472 173.202 211.605 172.402 210.005 174.002Z" fill="#8F76E8"/>
<path d="M983.207 202.536C974.807 205.069 967.74 215.469 967.74 225.069C967.74 230.936 971.607 239.736 975.874 243.869C987.74 255.069 1009.74 254.136 1021.34 241.736C1028.41 234.003 1032.54 219.069 1029.61 211.336C1027.87 206.803 1026.41 209.603 1026.41 217.203C1026.41 230.136 1020.94 239.869 1010.41 245.203C1000.27 250.269 990.14 249.736 981.074 243.469C967.874 234.669 968.274 213.736 981.607 207.336C993.074 201.869 1006.41 208.669 1006.41 219.869C1006.41 223.869 999.34 230.536 995.207 230.536C993.34 230.536 991.74 231.069 991.74 231.869C991.74 232.536 993.874 233.203 996.54 233.203C1003.47 233.203 1009.07 227.336 1009.07 219.869C1009.07 206.403 997.207 198.403 983.207 202.536Z" fill="#8F76E8"/>
<path d="M1100.01 221.469C1099.07 222.402 1098.94 223.736 1099.74 225.202C1100.41 226.536 1100.54 230.136 1100.01 233.336L1098.94 239.202L1096.01 233.736C1092.94 227.736 1089.47 225.336 1088.27 228.536C1087.74 229.602 1089.21 232.269 1091.61 234.669C1093.87 236.936 1095.74 239.336 1095.74 240.136C1095.74 242.269 1087.61 240.136 1084.41 237.202C1079.87 232.936 1074.67 234.136 1076.54 239.069C1077.07 240.269 1078.94 241.202 1081.07 241.202C1083.07 241.202 1086.94 242.136 1089.74 243.336L1094.67 245.336L1091.07 249.202C1088.94 251.469 1085.74 253.202 1083.21 253.469C1080.14 253.736 1079.07 254.536 1079.07 256.536C1079.07 259.736 1084.67 261.069 1085.87 258.136C1086.81 255.602 1096.81 248.536 1097.87 249.602C1098.27 250.002 1097.61 252.136 1096.54 254.402C1093.47 260.136 1093.74 262.802 1097.47 262.269C1100.01 261.869 1100.41 261.202 1100.01 256.802C1099.74 254.136 1100.01 251.869 1100.67 251.869C1102.27 251.869 1106.41 260.536 1106.41 263.736C1106.41 266.669 1109.74 269.736 1111.74 268.536C1113.74 267.336 1113.34 262.802 1111.21 261.602C1110.14 261.069 1108.01 257.869 1106.54 254.536L1103.87 248.536L1107.34 246.802C1109.47 245.602 1112.67 245.202 1116.41 245.736C1121.07 246.536 1122.27 246.269 1122.94 244.402C1124.41 240.802 1121.74 239.202 1117.34 241.069C1115.21 242.002 1111.47 242.536 1109.07 242.269L1104.67 241.869L1108.27 237.469C1110.27 235.202 1112.81 233.202 1113.87 233.202C1114.94 233.202 1115.74 232.002 1115.74 230.536C1115.74 229.069 1114.94 227.869 1113.87 227.869C1111.87 227.869 1108.01 231.869 1109.87 231.869C1111.34 231.869 1104.94 237.069 1103.47 237.202C1101.61 237.202 1102.41 229.869 1104.54 226.802C1106.14 224.402 1106.27 223.336 1105.07 221.869C1103.07 219.469 1102.14 219.336 1100.01 221.469Z" fill="#8F76E8"/>
<path d="M1109.87 250.403C1109.47 250.936 1110 252.536 1110.94 253.869C1112.8 256.536 1117.74 255.736 1116.8 252.936C1116.14 251.069 1110.67 248.936 1109.87 250.403Z" fill="#8F76E8"/>
<path d="M145.072 439.069C145.072 439.336 146.006 440.003 147.206 440.403C148.272 440.803 148.806 440.669 148.406 439.869C147.606 438.536 145.072 438.003 145.072 439.069Z" fill="#8F76E8"/>
<path d="M154.406 444.403C154.406 444.67 155.34 445.336 156.54 445.736C157.606 446.136 158.14 446.003 157.74 445.203C156.94 443.87 154.406 443.336 154.406 444.403Z" fill="#8F76E8"/>
<path d="M1231.74 372.536C1229.87 373.603 1229.07 374.403 1229.87 374.536C1230.54 374.536 1232.41 373.603 1233.87 372.536C1237.07 370.136 1236.01 370.003 1231.74 372.536Z" fill="#8F76E8"/>
<path d="M1216.67 380.669C1214.54 381.869 1213.07 383.069 1213.47 383.469C1214.27 384.136 1222.41 380.269 1222.41 379.203C1222.41 378.136 1220.54 378.536 1216.67 380.669Z" fill="#8F76E8"/>
<path d="M1204.81 388.003C1202.01 389.469 1199.74 390.936 1199.74 391.203C1199.74 391.603 1202.14 390.669 1205.07 389.203C1208.01 387.736 1210.41 386.136 1210.41 385.869C1210.41 384.936 1210.41 384.936 1204.81 388.003Z" fill="#8F76E8"/>
<path d="M1165.07 410.536C1163.21 412.003 1162.27 413.203 1162.81 413.203C1164.27 413.203 1171.74 409.336 1171.74 408.536C1171.74 407.069 1168.14 408.136 1165.07 410.536Z" fill="#8F76E8"/>
<path d="M1081.07 459.869C1080 460.536 1079.74 461.203 1080.4 461.203C1081.2 461.203 1082.67 460.536 1083.74 459.869C1084.8 459.203 1085.2 458.536 1084.4 458.536C1083.74 458.536 1082.14 459.203 1081.07 459.869Z" fill="#8F76E8"/>
</svg>
