<svg width="636" height="637" viewBox="0 0 636 637" fill="none" xmlns="http://www.w3.org/2000/svg">
<path d="M263.22 0.618788C256.954 1.28545 245.087 4.75212 243.22 6.61879C242.287 7.55212 242.954 7.68545 245.22 7.01879C249.354 5.81879 248.954 6.21879 240.154 11.5521C236.154 13.8188 233.354 15.1521 233.887 14.4855C234.42 13.5521 233.887 13.4188 232.554 13.8188C231.354 14.3521 230.687 15.5521 231.087 16.4855C231.487 17.5521 231.087 18.3521 230.154 18.3521C229.22 18.3521 226.554 21.4188 224.154 25.1521C215.22 38.7521 212.554 68.4855 212.82 151.285L212.954 211.552H166.154C140.287 211.552 106.42 211.552 90.6871 211.552C74.9538 211.685 60.9538 211.419 59.6204 210.885C58.1538 210.485 51.8871 210.885 45.6204 211.819C36.4204 213.152 32.8204 214.485 26.4204 218.619C20.9538 222.085 18.5538 224.485 18.2871 226.619C18.2871 228.352 18.0204 230.485 18.0204 231.285C17.8871 232.219 16.8204 234.219 15.4871 235.685C14.2871 237.152 13.2204 238.885 13.2204 239.419C13.2204 239.952 11.6204 241.552 9.62042 242.885C7.48709 244.085 6.95375 244.885 8.28709 244.485C10.6871 243.685 11.2204 245.819 9.35375 248.752C8.55375 250.219 8.02042 250.085 7.22042 248.085C6.28709 245.819 6.15375 245.819 5.22042 248.485C4.55375 249.952 3.75375 254.752 3.22042 259.152C2.68709 263.419 1.62042 268.352 1.08709 270.085C0.287086 272.085 0.420419 272.885 1.22042 272.352C2.02042 271.952 2.55375 272.485 2.55375 273.685C2.55375 274.885 2.02042 275.419 1.22042 275.019C0.420419 274.485 -0.112914 275.952 0.0204192 278.619C0.0204192 282.085 0.287086 282.485 1.08709 280.485C1.88709 278.352 2.28709 278.219 2.82042 279.952C3.75375 282.352 5.08709 301.685 6.02042 328.352C7.22042 365.285 7.88709 371.019 12.0204 383.285C13.7538 388.752 15.3538 391.285 16.4204 390.885C17.3538 390.485 19.6204 392.352 21.3538 394.885C23.0871 397.552 25.4871 399.685 26.6871 399.685C27.8871 399.685 29.4871 401.019 30.4204 402.752C32.8204 407.152 40.4204 411.819 47.6204 413.285C56.9538 415.152 93.3538 414.885 94.5538 413.019C95.2204 411.819 95.7538 411.819 96.4204 412.885C97.7538 415.019 101.087 414.752 103.487 412.219C104.954 410.885 105.887 410.619 106.42 411.552C107.754 413.552 134.554 413.952 137.887 411.952C140.287 410.619 140.287 410.485 138.154 410.352C136.82 410.352 136.154 409.685 136.554 409.019C137.62 407.152 145.22 407.285 145.22 409.152C145.22 410.219 145.754 410.219 146.954 409.152C148.287 408.219 159.62 407.952 184.687 408.219C204.42 408.485 221.487 409.019 222.687 409.285C223.887 409.552 225.887 410.885 227.22 412.085C229.354 414.352 229.354 414.619 227.354 416.885C225.887 418.485 225.354 420.619 225.887 422.485C226.287 424.219 226.954 432.885 227.22 441.685C228.687 478.619 229.22 485.952 230.687 490.619C231.62 493.419 232.82 495.685 233.487 495.685C234.154 495.685 233.754 497.019 232.687 498.619C231.22 500.752 231.087 502.085 232.154 504.085C232.954 505.552 233.22 509.419 232.687 513.152C232.154 516.752 232.287 521.285 232.687 523.285C233.62 526.619 233.754 526.619 234.687 524.352C235.22 522.885 235.754 518.885 235.754 515.419C235.887 512.085 236.42 509.019 237.22 508.752C238.687 508.219 239.487 451.685 238.02 449.285C237.487 448.352 237.754 447.685 238.42 447.685C239.22 447.685 239.887 446.219 239.887 444.352C239.887 442.485 239.354 441.019 238.554 441.019C237.887 441.019 237.22 439.952 237.22 438.619C237.22 436.752 237.487 436.619 238.554 438.352C239.487 439.819 239.887 438.219 239.887 433.019C239.887 427.419 239.487 426.219 238.42 427.685C237.354 429.152 237.22 428.752 237.887 425.685C239.087 419.419 238.554 403.285 236.954 401.419C235.887 400.085 228.554 399.685 206.687 399.685C176.82 399.685 167.354 398.219 182.687 396.219L191.22 395.019L181.22 394.352C175.754 393.952 143.354 393.552 109.354 393.285C39.3538 392.885 42.2871 393.419 35.8871 382.085L32.5538 376.352V321.019C32.5538 268.619 32.6871 265.285 35.2204 258.485C36.8204 254.219 39.6204 250.085 41.7538 248.485C45.3538 245.685 46.0204 245.685 146.82 245.952L248.154 246.219L247.22 191.952C245.354 85.1521 245.754 48.0855 249.354 41.5521C250.287 39.8188 253.62 37.0188 256.954 35.5521C262.02 33.0188 266.554 32.4855 287.087 31.4188C313.754 30.2188 365.887 31.1521 377.087 33.1521C384.82 34.4855 387.887 36.4855 391.754 42.8855C394.687 47.5521 395.354 58.2188 396.687 115.685C397.087 135.152 397.62 151.285 397.887 151.685C398.154 152.085 398.554 160.752 398.687 170.885C398.954 184.885 399.487 189.419 400.82 189.952C403.22 190.885 404.42 189.552 403.087 187.419C401.754 185.419 401.487 173.019 402.82 173.819C404.82 175.019 405.22 171.552 403.354 169.552C400.554 166.885 400.687 165.419 403.62 163.819C404.82 163.019 405.087 162.352 404.287 162.352C403.087 162.352 402.82 160.885 403.354 157.952C404.02 153.285 405.354 93.8188 405.087 73.0188C404.82 51.9521 405.22 47.1521 407.22 42.2188C407.62 40.8855 407.354 39.5521 406.42 38.8855C405.354 38.2188 405.087 38.4855 405.887 39.6855C406.554 40.8855 406.42 41.1521 405.354 40.4855C404.554 39.9521 404.154 38.8855 404.687 38.2188C405.087 37.4188 404.554 35.8188 403.354 34.6188C396.687 27.5521 391.887 21.8188 391.887 21.0188C391.887 19.5521 386.02 17.6855 380.287 17.1521C379.354 17.0188 378.554 16.0855 378.554 15.0188C378.554 13.5521 376.954 13.0188 372.954 12.7521C369.754 12.7521 365.087 12.4855 362.554 12.3521C359.354 12.2188 357.754 11.5521 357.487 9.95212C357.087 8.21879 355.62 7.68545 351.487 7.55212C339.887 7.28545 336.287 6.75212 332.287 4.75212C329.754 3.41879 327.487 3.15212 326.154 3.95212C324.954 4.61879 323.754 4.48545 323.22 3.68545C322.82 3.01879 323.087 2.35212 323.887 2.35212C324.687 2.35212 325.087 1.81879 324.687 1.15212C323.887 -0.047879 274.154 -0.447879 263.22 0.618788ZM27.8871 222.485C27.8871 223.152 26.9538 223.685 25.8871 223.685C23.8871 223.685 23.2204 222.085 24.6871 220.619C25.7538 219.552 27.8871 220.752 27.8871 222.485ZM172.554 398.085C172.154 398.485 171.087 398.085 170.154 397.152C168.954 395.819 169.087 395.685 170.954 396.485C172.287 396.885 172.954 397.685 172.554 398.085ZM117.22 409.019C117.22 409.685 116.954 410.352 116.687 410.352C116.287 410.352 115.62 409.685 115.22 409.019C114.82 408.219 115.087 407.685 115.754 407.685C116.554 407.685 117.22 408.219 117.22 409.019ZM134.554 410.352C134.554 411.019 134.287 411.685 134.02 411.685C133.62 411.685 132.954 411.019 132.554 410.352C132.154 409.552 132.42 409.019 133.087 409.019C133.887 409.019 134.554 409.552 134.554 410.352ZM238.154 433.285C237.754 434.352 237.354 433.952 237.354 432.485C237.22 431.019 237.62 430.219 238.02 430.752C238.42 431.152 238.554 432.352 238.154 433.285Z" fill="black"/>
<path d="M399.887 214.619C399.887 229.285 400.287 235.819 401.22 234.885C402.82 233.285 404.02 205.819 402.953 197.952C402.553 195.285 401.753 193.019 401.087 193.019C400.42 193.019 399.887 202.752 399.887 214.619Z" fill="black"/>
<path d="M466.286 233.685C466.02 233.819 456.553 234.485 445.22 234.885C433.886 235.419 423.886 235.952 422.953 235.952C422.153 236.085 421.753 236.885 422.153 237.819C423.22 240.752 485.22 241.152 495.62 238.219C500.286 236.885 501.086 236.352 499.22 235.419C497.353 234.352 467.353 232.752 466.286 233.685Z" fill="black"/>
<path d="M211.62 395.285C212.554 395.685 213.754 395.552 214.154 395.152C214.687 394.752 213.887 394.352 212.42 394.485C210.954 394.485 210.554 394.885 211.62 395.285Z" fill="black"/>
<path d="M216.954 395.285C217.888 395.685 219.088 395.552 219.488 395.152C220.021 394.752 219.221 394.352 217.754 394.485C216.288 394.485 215.888 394.885 216.954 395.285Z" fill="black"/>
<path d="M371.934 636.316C378.201 635.65 390.067 632.183 391.934 630.316C392.867 629.383 392.201 629.25 389.934 629.916C385.801 631.116 386.201 630.716 395.001 625.383C399.001 623.116 401.801 621.783 401.267 622.45C400.734 623.383 401.267 623.516 402.601 623.116C403.801 622.583 404.467 621.383 404.067 620.45C403.667 619.383 404.067 618.583 405.001 618.583C405.934 618.583 408.601 615.516 411.001 611.783C419.934 598.183 422.601 568.45 422.334 485.65L422.201 425.383H469.001C494.867 425.383 528.734 425.383 544.467 425.383C560.201 425.25 574.201 425.516 575.534 426.05C577.001 426.45 583.267 426.05 589.534 425.116C598.734 423.783 602.334 422.45 608.734 418.316C614.201 414.85 616.601 412.45 616.867 410.316C616.867 408.583 617.134 406.45 617.134 405.65C617.267 404.716 618.334 402.716 619.667 401.25C620.867 399.783 621.934 398.05 621.934 397.516C621.934 396.983 623.534 395.383 625.534 394.05C627.667 392.85 628.201 392.05 626.867 392.45C624.467 393.25 623.934 391.116 625.801 388.183C626.601 386.716 627.134 386.85 627.934 388.85C628.867 391.116 629.001 391.116 629.934 388.45C630.601 386.983 631.401 382.183 631.934 377.783C632.467 373.516 633.534 368.583 634.067 366.85C634.867 364.85 634.734 364.05 633.934 364.583C633.134 364.983 632.601 364.45 632.601 363.25C632.601 362.05 633.134 361.516 633.934 361.916C634.734 362.45 635.267 360.983 635.134 358.316C635.134 354.85 634.867 354.45 634.067 356.45C633.267 358.583 632.867 358.716 632.334 356.983C631.401 354.583 630.067 335.25 629.134 308.583C627.934 271.65 627.267 265.916 623.134 253.65C621.401 248.183 619.801 245.65 618.734 246.05C617.801 246.45 615.534 244.583 613.801 242.05C612.067 239.383 609.667 237.25 608.467 237.25C607.267 237.25 605.667 235.916 604.734 234.183C602.334 229.783 594.734 225.116 587.534 223.65C578.201 221.783 541.801 222.05 540.601 223.916C539.934 225.116 539.401 225.116 538.734 224.05C537.401 221.916 534.067 222.183 531.667 224.716C530.201 226.05 529.267 226.316 528.734 225.383C527.401 223.383 500.601 222.983 497.267 224.983C494.867 226.316 494.867 226.45 497.001 226.583C498.334 226.583 499.001 227.25 498.601 227.916C497.534 229.783 489.934 229.65 489.934 227.783C489.934 226.716 489.401 226.716 488.201 227.783C486.867 228.716 475.534 228.983 450.467 228.716C430.734 228.45 413.667 227.916 412.467 227.65C411.267 227.383 409.267 226.05 407.934 224.85C405.801 222.583 405.801 222.316 407.801 220.05C409.267 218.45 409.801 216.316 409.267 214.45C408.867 212.716 408.201 204.05 407.934 195.25C406.467 158.316 405.934 150.983 404.467 146.316C403.534 143.516 402.334 141.25 401.667 141.25C401.001 141.25 401.401 139.916 402.467 138.316C403.934 136.183 404.067 134.85 403.001 132.85C402.201 131.383 401.934 127.516 402.467 123.783C403.001 120.183 402.867 115.65 402.467 113.65C401.534 110.316 401.401 110.316 400.467 112.583C399.934 114.05 399.401 118.05 399.401 121.516C399.267 124.85 398.734 127.916 397.934 128.183C396.467 128.716 395.667 185.25 397.134 187.65C397.667 188.583 397.401 189.25 396.734 189.25C395.934 189.25 395.267 190.716 395.267 192.583C395.267 194.45 395.801 195.916 396.601 195.916C397.267 195.916 397.934 196.983 397.934 198.316C397.934 200.183 397.667 200.316 396.601 198.583C395.667 197.116 395.267 198.716 395.267 203.916C395.267 209.516 395.667 210.716 396.734 209.25C397.801 207.783 397.934 208.183 397.267 211.25C396.067 217.516 396.601 233.65 398.201 235.516C399.267 236.85 406.601 237.25 428.467 237.25C458.334 237.25 467.801 238.716 452.467 240.716L443.934 241.916L453.934 242.583C459.401 242.983 491.801 243.383 525.801 243.65C595.801 244.05 592.867 243.516 599.267 254.85L602.601 260.583V315.916C602.601 368.316 602.467 371.65 599.934 378.45C598.334 382.716 595.534 386.85 593.401 388.45C589.801 391.25 589.134 391.25 488.334 390.983L387.001 390.716L387.934 444.983C389.801 551.783 389.401 588.85 385.801 595.383C384.867 597.116 381.534 599.916 378.201 601.383C373.134 603.916 368.601 604.45 348.067 605.516C321.401 606.716 269.267 605.783 258.067 603.783C250.334 602.45 247.267 600.45 243.401 594.05C240.467 589.383 239.801 578.716 238.467 521.25C238.067 501.783 237.534 485.65 237.267 485.25C237.001 484.85 236.601 476.183 236.467 466.05C236.201 452.05 235.667 447.516 234.334 446.983C231.934 446.05 230.734 447.383 232.067 449.516C233.401 451.516 233.667 463.916 232.334 463.116C230.334 461.916 229.934 465.383 231.801 467.383C234.601 470.05 234.467 471.516 231.534 473.116C230.334 473.916 230.067 474.583 230.867 474.583C232.067 474.583 232.334 476.05 231.801 478.983C231.134 483.65 229.801 543.116 230.067 563.916C230.334 584.983 229.934 589.783 227.934 594.716C227.534 596.05 227.801 597.383 228.734 598.05C229.801 598.716 230.067 598.45 229.267 597.25C228.601 596.05 228.734 595.783 229.801 596.45C230.601 596.983 231.001 598.05 230.467 598.716C230.067 599.516 230.601 601.116 231.801 602.316C238.467 609.383 243.267 615.116 243.267 615.916C243.267 617.383 249.134 619.25 254.867 619.783C255.801 619.916 256.601 620.85 256.601 621.916C256.601 623.383 258.201 623.916 262.201 624.183C265.401 624.183 270.067 624.45 272.601 624.583C275.801 624.716 277.401 625.383 277.667 626.983C278.067 628.716 279.534 629.25 283.667 629.383C295.267 629.65 298.867 630.183 302.867 632.183C305.401 633.516 307.667 633.783 309.001 632.983C310.201 632.316 311.401 632.45 311.934 633.25C312.334 633.916 312.067 634.583 311.267 634.583C310.467 634.583 310.067 635.116 310.467 635.783C311.267 636.983 361.001 637.383 371.934 636.316ZM607.267 414.45C607.267 413.783 608.201 413.25 609.267 413.25C611.267 413.25 611.934 414.85 610.467 416.316C609.401 417.383 607.267 416.183 607.267 414.45ZM462.601 238.85C463.001 238.45 464.067 238.85 465.001 239.783C466.201 241.116 466.067 241.25 464.201 240.45C462.867 240.05 462.201 239.25 462.601 238.85ZM517.934 227.916C517.934 227.25 518.201 226.583 518.467 226.583C518.867 226.583 519.534 227.25 519.934 227.916C520.334 228.716 520.067 229.25 519.401 229.25C518.601 229.25 517.934 228.716 517.934 227.916ZM500.601 226.583C500.601 225.916 500.867 225.25 501.134 225.25C501.534 225.25 502.201 225.916 502.601 226.583C503.001 227.383 502.734 227.916 502.067 227.916C501.267 227.916 500.601 227.383 500.601 226.583ZM397.001 203.65C397.401 202.583 397.801 202.983 397.801 204.45C397.934 205.916 397.534 206.716 397.134 206.183C396.734 205.783 396.601 204.583 397.001 203.65Z" fill="black"/>
<path d="M235.268 431.316C235.268 416.65 234.868 410.116 233.934 411.05C232.334 412.65 231.134 440.116 232.201 447.983C232.601 450.65 233.401 452.916 234.068 452.916C234.734 452.916 235.268 443.183 235.268 431.316Z" fill="black"/>
<path d="M168.868 412.25C169.135 412.116 178.601 411.45 189.935 411.05C201.268 410.516 211.268 409.983 212.201 409.983C213.001 409.85 213.401 409.05 213.001 408.116C211.935 405.183 149.935 404.783 139.535 407.716C134.868 409.05 134.068 409.583 135.935 410.516C137.801 411.583 167.801 413.183 168.868 412.25Z" fill="black"/>
<path d="M423.534 250.65C422.601 250.25 421.401 250.383 421.001 250.783C420.467 251.183 421.267 251.583 422.734 251.45C424.201 251.45 424.601 251.05 423.534 250.65Z" fill="black"/>
<path d="M418.2 250.65C417.267 250.25 416.067 250.383 415.667 250.783C415.133 251.183 415.933 251.583 417.4 251.45C418.867 251.45 419.267 251.05 418.2 250.65Z" fill="black"/>
<path d="M401.668 112.916C401.668 111.05 401.401 110.383 401.001 111.316C400.735 112.116 400.735 113.716 401.001 114.65C401.401 115.45 401.668 114.783 401.668 112.916Z" fill="black"/>
<path d="M403.268 85.7163C403.268 81.5829 402.468 81.1829 401.534 84.9163C401.134 86.3829 401.401 87.9829 402.068 88.3829C402.734 88.7829 403.268 87.5829 403.268 85.7163Z" fill="black"/>
<path d="M402.6 74.1163C403.134 73.3163 403.267 72.5163 402.867 72.1163C402.6 71.7163 401.934 72.383 401.534 73.583C400.6 75.8496 401.4 76.2496 402.6 74.1163Z" fill="black"/>
</svg>
