<svg width="695" height="666" viewBox="0 0 695 666" fill="none" xmlns="http://www.w3.org/2000/svg">
<path d="M507.151 0.0874978C481.551 2.75416 460.751 7.82083 444.618 15.4208C408.884 32.0875 376.084 63.9542 358.751 98.6208C353.818 108.754 345.418 131.288 346.351 132.221C346.618 132.621 349.951 126.888 353.684 119.688C365.018 97.6875 375.818 83.0208 396.484 61.9542C409.418 48.6208 428.084 35.6875 446.218 27.2875C504.484 0.487498 569.018 8.4875 614.084 48.2208C645.551 75.9542 665.151 112.754 669.818 153.021C671.818 170.221 670.884 202.221 667.951 215.954C663.951 234.354 656.218 257.954 654.351 257.954C653.951 257.954 653.951 256.888 654.484 255.554C656.218 251.021 659.151 230.488 659.151 222.221C659.151 197.821 654.218 173.421 644.351 149.021C636.218 128.888 632.218 122.088 621.684 109.154C608.884 93.5542 597.951 84.8875 575.951 73.1542C554.351 61.6875 534.484 56.7542 510.218 56.6208C491.818 56.6208 479.418 58.6208 461.684 64.6208C431.551 74.7542 410.618 87.8208 386.351 111.954C371.551 126.621 368.351 130.754 348.218 161.288C336.084 179.554 323.818 196.888 320.751 199.554C313.684 205.954 301.151 207.954 292.218 203.954C290.484 203.288 289.818 203.554 289.818 205.288C289.818 209.421 294.351 215.421 300.751 219.421C317.151 229.954 342.084 226.488 355.151 211.688C357.818 208.621 365.951 194.488 373.151 180.354C390.884 145.554 397.018 134.888 405.151 124.488C418.484 107.821 432.618 97.6875 451.151 91.1542C458.884 88.4875 462.618 88.2208 483.818 88.0875C511.151 87.9542 521.284 89.6875 536.884 97.4208C561.551 109.688 577.284 127.688 589.018 156.888C590.351 160.488 592.351 163.288 593.284 163.288C594.884 163.288 596.751 168.354 598.218 176.621C598.484 178.488 598.884 176.621 599.018 172.354C599.151 163.021 596.351 147.821 592.084 135.421C590.218 130.221 589.151 125.954 589.684 125.954C590.218 125.954 594.351 130.354 599.151 135.554C611.284 149.421 621.551 171.154 627.951 196.621L632.751 215.821L632.218 241.954C631.551 267.421 631.551 268.221 626.618 283.688C616.218 317.288 602.484 340.088 574.351 370.754C550.884 396.221 546.218 400.621 507.951 433.021C431.418 497.688 408.084 520.221 385.418 551.421C380.484 558.221 387.151 545.954 396.618 530.888C409.818 509.821 425.151 488.354 433.684 478.754C437.684 474.354 456.884 454.088 476.484 433.954C532.218 376.488 540.084 367.421 555.684 341.421C564.884 326.221 565.951 323.821 562.351 325.154C560.618 325.821 560.351 325.421 560.884 323.154C561.818 319.421 560.884 320.488 553.284 332.354C549.818 337.554 542.484 347.554 537.018 354.354C527.018 366.621 493.284 402.754 484.484 410.488C481.951 412.754 471.818 422.621 461.818 432.221C449.418 444.488 443.684 449.288 443.418 447.821C442.884 445.421 453.018 434.488 460.751 429.021C463.551 427.154 465.418 425.154 465.018 424.488C464.618 423.821 463.684 423.554 463.018 423.954C462.351 424.488 461.818 424.354 461.818 423.688C461.818 423.154 464.351 421.554 467.551 420.088C470.618 418.754 472.351 417.421 471.418 417.021C467.018 415.288 448.218 426.488 438.618 436.354C434.084 441.021 432.884 441.688 429.284 441.021C421.551 439.554 421.418 438.888 426.351 432.354C436.884 418.621 452.618 408.221 470.484 403.421C474.884 402.221 478.618 400.488 478.884 399.554C479.284 397.288 477.018 397.554 472.884 400.221C470.884 401.554 466.884 402.488 463.018 402.488C459.284 402.488 457.151 402.888 458.218 403.554C459.284 404.221 459.284 404.621 458.351 404.621C456.218 404.621 453.418 401.021 454.351 399.421C454.884 398.621 453.951 397.421 452.484 396.621C451.018 395.821 450.084 394.621 450.484 393.821C451.018 393.154 450.351 392.621 449.284 392.621C448.218 392.621 446.884 391.421 446.484 389.954C445.684 387.554 444.218 386.754 441.551 387.154C440.884 387.154 440.484 386.354 440.484 385.154C440.484 384.088 439.951 383.421 439.284 383.821C438.618 384.221 435.151 383.288 431.684 381.688C428.084 380.088 425.951 378.621 426.884 378.221C427.818 377.954 429.418 378.354 430.351 379.154C431.284 379.954 433.151 380.354 434.351 379.821C435.551 379.421 436.484 379.688 436.484 380.488C436.484 381.288 437.818 381.954 439.284 381.954C440.884 381.954 443.151 383.021 444.351 384.354C445.551 385.688 447.551 387.154 448.884 387.688C450.218 388.221 452.218 390.354 453.551 392.621C455.818 396.621 459.151 399.021 459.151 396.488C459.151 394.221 446.751 382.621 439.951 378.621C434.884 375.688 431.684 374.754 425.284 374.621C419.418 374.488 417.284 373.954 417.551 372.754C417.818 371.288 415.018 371.021 404.751 371.554C392.618 371.954 390.618 372.488 381.284 377.021C374.618 380.354 368.618 384.754 363.951 389.421C357.018 396.488 356.751 396.621 351.284 395.821C348.218 395.288 345.818 394.221 345.818 393.288C345.818 390.354 358.751 377.154 366.751 371.821C396.618 351.954 432.218 353.954 458.484 376.754C466.484 383.688 466.484 383.688 461.151 377.954C458.218 374.621 455.151 371.554 454.218 370.888C453.284 370.354 451.684 369.021 450.618 367.954C449.551 366.888 447.684 365.954 446.618 365.954C445.418 365.954 444.484 365.554 444.484 364.888C444.484 363.954 439.818 362.088 426.751 358.221C422.484 356.888 419.284 355.554 419.684 355.154C420.084 354.888 417.551 354.354 414.218 354.221C409.818 354.088 407.551 353.288 406.218 351.288C404.351 348.754 400.884 347.288 402.351 349.821C402.751 350.488 402.218 351.421 401.018 351.821C398.084 353.021 397.951 352.888 398.751 349.954C399.151 348.488 400.218 347.288 401.284 347.288C402.218 347.288 402.751 346.488 402.351 345.421C401.951 344.354 400.351 343.954 398.484 344.354C395.818 344.754 394.884 344.221 393.818 341.288C392.084 336.754 393.018 335.421 395.418 339.154C396.351 340.754 397.951 341.954 398.884 341.954C400.351 341.954 400.218 341.421 398.751 339.288C394.751 333.554 387.951 326.888 387.551 328.221C387.018 329.554 386.484 329.421 374.218 324.754C371.818 323.821 370.084 322.354 370.218 321.554C370.351 320.754 368.751 319.288 366.751 318.221C364.084 316.888 363.284 315.954 364.351 314.888C365.284 313.954 367.018 314.488 370.084 316.888C372.484 318.621 376.484 320.888 378.884 321.821C381.151 322.888 383.151 324.088 383.151 324.754C383.151 325.421 383.818 325.954 384.618 325.954C390.218 325.954 371.284 314.354 358.351 309.821C350.084 307.021 322.218 304.221 319.818 306.088C319.151 306.621 315.151 307.688 311.151 308.354C307.151 309.154 302.751 310.221 301.551 310.621C299.818 311.288 299.151 310.888 299.151 309.421C299.151 308.221 298.218 307.288 297.018 307.288C295.951 307.288 295.418 306.621 295.818 305.954C296.218 305.154 295.818 304.621 294.884 304.621C293.684 304.621 293.684 304.221 295.151 303.288C298.218 301.288 299.151 301.688 299.151 304.621C299.151 306.088 299.684 307.288 300.351 307.288C301.018 307.288 302.751 307.688 304.084 308.088C305.418 308.621 303.018 305.421 298.618 300.888C287.551 289.421 276.218 284.488 259.951 283.554C238.884 282.488 223.284 288.221 210.484 301.554C202.484 309.954 202.484 309.954 197.551 308.488C194.751 307.821 192.484 306.754 192.484 306.354C192.484 303.954 199.018 295.021 205.018 289.554C208.751 285.954 210.484 283.688 209.018 284.488C204.751 286.621 191.551 299.954 192.218 301.688C192.351 302.354 191.418 303.421 189.818 303.954C188.351 304.354 187.418 305.421 187.818 306.088C188.351 306.754 187.684 307.288 186.618 307.288C184.884 307.288 184.751 306.754 186.084 303.954C186.884 302.088 188.084 300.621 188.751 300.621C189.284 300.621 189.818 299.688 189.818 298.488C189.818 297.288 191.151 294.488 192.751 292.221C194.351 289.954 195.018 288.488 194.218 289.021C193.418 289.554 190.484 293.288 187.818 297.421C185.151 301.421 181.551 305.288 180.084 305.954C178.484 306.621 177.818 307.154 178.618 307.154C179.551 307.288 180.618 308.221 181.018 309.421C181.684 311.288 181.151 311.554 176.484 310.888C173.684 310.488 170.218 309.288 169.151 308.088C167.951 306.888 167.284 305.954 167.818 305.954C168.351 305.954 167.818 305.021 166.618 303.954C164.084 301.421 162.351 301.288 164.351 303.821C166.351 306.088 165.151 306.888 158.218 308.088C153.418 308.754 152.484 308.488 150.618 305.688C149.418 303.821 145.951 300.354 142.751 297.954C139.684 295.421 138.218 294.621 139.551 296.088C140.751 297.688 141.418 299.288 140.884 299.688C140.484 300.221 140.751 300.621 141.684 300.621C142.618 300.621 145.418 302.754 148.084 305.288C152.084 309.154 152.618 310.221 151.151 311.954C150.218 313.154 150.084 313.954 150.884 313.954C151.684 313.954 152.484 313.421 152.751 312.754C153.018 312.088 155.018 311.288 157.151 311.021C159.418 310.621 160.484 310.621 159.551 310.888C158.618 311.154 158.351 312.354 158.751 313.421C159.151 314.621 158.618 315.288 157.151 315.288C152.884 315.288 137.684 323.954 131.284 329.954C127.818 333.288 127.151 334.088 129.818 331.821C142.218 321.288 157.018 315.554 173.818 314.354C195.418 312.888 217.818 321.821 233.018 337.954C237.818 343.154 241.818 348.088 241.818 349.154C241.818 350.221 239.684 351.288 236.351 351.821C231.018 352.621 230.618 352.488 222.618 344.888C209.684 332.488 196.884 327.288 179.151 327.288C163.818 327.288 144.484 333.554 138.751 340.354C137.418 342.088 137.551 342.221 139.951 340.888C142.484 339.554 143.018 339.688 143.684 342.354C144.218 344.354 143.284 346.354 140.751 349.154C137.684 352.488 138.084 352.354 143.284 348.221C146.618 345.554 152.884 341.688 157.284 339.688C164.218 336.354 166.751 335.954 178.618 335.954C191.018 335.954 192.484 336.221 200.618 340.354C205.284 342.754 211.418 346.754 214.084 349.154C219.151 353.821 224.084 361.954 221.818 361.954C221.151 361.954 220.484 361.021 220.484 359.954C220.484 357.288 219.284 357.421 214.351 360.488L210.084 363.021L205.818 358.621C192.884 345.288 167.684 344.221 152.484 356.488C150.618 357.954 149.684 359.554 150.218 360.221C150.884 360.754 151.684 360.621 152.218 359.821C153.951 357.154 168.218 351.021 171.418 351.554C173.951 351.954 173.151 352.754 167.151 355.421C163.151 357.288 159.018 359.821 157.951 361.021C157.018 362.221 155.684 363.021 155.284 362.621C154.751 362.354 154.218 362.888 154.218 363.954C154.218 366.621 154.618 366.488 159.551 362.754C171.151 354.221 186.484 354.754 198.618 363.954L203.418 367.554L199.151 371.954L194.884 376.354L190.218 373.154C186.618 370.754 183.684 369.954 178.351 369.954C174.484 369.954 170.884 370.621 170.484 371.288C169.951 372.221 171.418 372.488 174.751 371.954C181.284 371.021 187.551 372.754 187.951 375.688C188.084 376.888 187.818 377.688 187.151 377.288C185.018 375.954 173.818 375.421 173.818 376.754C173.818 377.421 175.284 377.954 177.151 377.954C181.684 377.954 187.151 380.754 187.151 383.021C187.151 386.354 180.618 393.954 177.684 393.954C174.884 393.954 174.218 395.954 176.618 397.421C177.684 397.954 177.551 398.621 176.351 399.421C173.018 401.421 167.684 400.621 164.484 397.688C161.818 395.288 161.418 395.154 162.218 397.154C162.751 398.488 163.151 399.821 163.151 400.088C163.151 400.488 163.818 400.354 164.751 399.821C165.818 399.154 165.951 399.554 165.418 401.288C164.484 403.421 165.151 403.554 173.418 402.754C195.551 400.754 223.951 413.421 237.018 431.021C239.684 434.621 241.818 437.954 241.818 438.221C241.818 438.621 239.418 439.688 236.484 440.621L231.018 442.354L222.884 434.221C212.484 423.554 199.018 416.621 187.018 415.688C180.751 415.288 179.018 415.421 180.484 416.488C182.218 417.821 182.218 417.954 180.484 417.954C177.284 418.088 184.351 422.754 190.351 424.621C193.418 425.554 198.484 427.688 201.818 429.288C208.084 432.488 220.484 442.621 220.484 444.621C220.484 445.288 218.351 447.021 215.951 448.621C211.284 451.421 211.284 451.421 213.951 454.088C217.284 457.421 219.284 457.288 226.884 453.421C252.218 440.621 286.084 447.688 309.418 470.754C314.884 476.088 319.018 481.021 318.618 481.821C318.218 482.488 315.284 483.421 312.351 483.954C307.018 484.888 306.618 484.621 299.951 478.221C287.151 465.688 272.484 459.288 256.618 459.288C245.018 459.288 229.018 463.421 230.484 466.088C230.884 466.621 232.084 466.888 233.151 466.488C234.484 465.954 234.751 466.488 234.218 468.754C233.418 471.554 233.684 471.688 237.951 470.488C240.484 469.821 248.218 469.288 255.151 469.288C265.018 469.421 269.418 469.954 275.151 472.354C282.084 475.154 296.484 486.088 296.484 488.754C296.484 489.421 294.218 491.021 291.284 492.488L286.218 495.154L283.284 492.088C277.818 486.354 267.418 481.688 258.351 480.888C252.351 480.488 249.818 480.754 249.818 481.821C249.818 482.621 250.751 483.688 251.818 484.088C252.884 484.621 253.818 485.688 253.818 486.754C253.818 487.821 254.618 488.621 255.684 488.621C259.284 488.621 271.818 494.221 275.684 497.421L279.418 500.754L276.484 503.954C273.951 506.621 273.684 507.554 275.151 509.288C277.418 511.954 280.351 511.821 283.684 508.754C285.284 507.288 291.018 503.821 296.484 500.888C322.884 486.754 350.751 488.088 376.884 504.888C382.351 508.354 383.551 508.621 385.551 507.154C386.751 506.221 388.084 505.154 388.351 505.021C388.618 504.888 388.084 503.821 387.151 502.621C386.218 501.554 385.818 499.688 386.351 498.621C387.684 494.888 408.484 486.354 408.484 489.421C408.484 489.821 405.018 494.888 400.618 500.621C391.284 513.021 380.084 531.021 371.151 547.688C355.684 576.888 343.684 633.954 348.484 655.021C351.684 669.021 354.618 669.288 353.951 655.421C353.818 650.354 354.218 645.154 354.884 643.821C355.684 642.354 357.284 636.488 358.484 630.621C361.284 617.421 369.018 598.754 378.751 581.954C401.284 542.888 443.418 501.154 495.151 466.888C501.418 462.754 509.551 457.288 513.151 454.621C516.884 451.954 527.684 444.221 537.284 437.554C589.951 400.754 608.218 385.021 633.018 354.754C666.618 313.821 674.884 297.421 689.284 242.621C693.418 227.154 693.951 222.754 694.751 201.821C695.551 176.221 694.484 164.888 689.018 143.954C679.151 106.088 663.284 77.5542 637.551 51.4208C604.351 17.9542 569.684 2.62083 521.818 0.220831C516.351 -0.0458355 509.684 -0.0458355 507.151 0.0874978ZM273.818 288.621C275.418 289.688 275.018 289.954 272.218 289.954C270.218 289.954 268.218 289.288 267.818 288.621C266.751 286.888 271.151 286.888 273.818 288.621ZM236.084 290.621C236.084 291.688 235.284 292.754 234.218 293.154C232.484 293.821 231.818 291.154 233.418 289.554C234.884 288.088 236.084 288.488 236.084 290.621ZM228.484 293.154C228.484 294.088 227.284 295.288 225.684 295.688C223.018 296.354 223.018 296.354 225.284 293.821C227.951 290.754 228.484 290.754 228.484 293.154ZM276.751 295.554C284.751 299.288 296.484 309.154 296.484 312.088C296.484 313.821 289.951 317.954 287.151 317.954C286.351 317.954 283.818 316.088 281.418 313.954C273.951 306.888 266.484 304.088 255.284 304.088C243.818 304.221 236.084 306.888 228.218 313.821C225.551 316.088 223.151 317.954 222.751 317.954C222.351 317.954 219.818 316.621 217.151 315.154L212.351 312.221L218.084 306.354C223.818 300.488 234.218 294.488 242.218 292.488C244.618 291.954 251.551 291.554 257.818 291.688C266.884 291.954 270.618 292.754 276.751 295.554ZM287.151 295.288C287.151 295.954 286.884 296.621 286.618 296.621C286.218 296.621 285.551 295.954 285.151 295.288C284.751 294.488 285.018 293.954 285.684 293.954C286.484 293.954 287.151 294.488 287.151 295.288ZM221.818 297.821C221.818 298.488 220.618 299.288 219.151 299.688C216.484 300.354 215.684 299.288 217.418 297.554C218.618 296.221 221.818 296.488 221.818 297.821ZM294.351 298.621C295.284 301.288 291.284 303.021 289.818 300.488C289.151 299.554 289.018 298.221 289.284 297.688C290.484 295.954 293.551 296.488 294.351 298.621ZM215.418 304.888C214.484 305.821 213.818 305.954 213.818 305.154C213.818 304.354 214.218 303.288 214.751 302.888C215.151 302.354 215.951 302.221 216.351 302.621C216.618 303.021 216.218 304.088 215.418 304.888ZM248.484 307.288C248.484 307.954 247.151 308.621 245.551 308.621C243.018 308.621 242.884 308.354 244.484 307.288C247.018 305.554 248.484 305.554 248.484 307.288ZM240.484 309.954C239.418 310.621 238.218 310.888 237.951 310.488C237.551 310.088 238.084 309.288 239.151 308.621C240.218 307.954 241.418 307.688 241.684 308.088C242.084 308.488 241.551 309.288 240.484 309.954ZM168.484 309.954C168.484 310.621 167.151 311.288 165.551 311.288C163.018 311.288 162.884 311.021 164.484 309.954C167.018 308.221 168.484 308.221 168.484 309.954ZM188.484 309.954C188.484 310.621 188.218 311.288 187.951 311.288C187.551 311.288 186.884 310.621 186.484 309.954C186.084 309.154 186.351 308.621 187.018 308.621C187.818 308.621 188.484 309.154 188.484 309.954ZM273.818 311.421C273.818 313.021 268.884 313.021 267.951 311.421C267.551 310.888 267.551 309.954 267.951 309.554C269.018 308.621 273.818 310.088 273.818 311.421ZM353.951 309.954C355.818 310.088 361.818 316.621 360.084 316.621C359.151 316.621 357.818 316.221 357.284 315.688C356.884 315.154 355.418 314.621 354.084 314.488C352.884 314.354 350.351 313.688 348.484 313.154C346.618 312.621 341.018 311.954 335.818 311.821C330.751 311.554 326.218 311.421 325.818 311.288C325.418 311.288 326.084 310.621 327.151 309.954C328.751 308.888 339.418 308.888 353.951 309.954ZM323.151 311.288C323.151 312.221 313.684 313.954 312.618 313.154C312.484 313.021 312.484 312.221 312.884 311.688C313.818 310.221 323.151 309.821 323.151 311.288ZM208.484 315.421C208.484 316.888 204.884 317.021 203.951 315.421C203.551 314.888 203.551 313.954 203.951 313.554C205.018 312.488 208.484 313.954 208.484 315.421ZM266.884 314.621C272.084 316.888 277.818 321.554 277.818 323.688C277.818 324.488 275.951 326.754 273.684 328.754L269.418 332.488L265.551 329.288C260.484 325.021 251.418 324.754 244.884 328.754L240.351 331.554L235.684 327.954L230.884 324.221L234.751 320.354C242.084 313.021 256.751 310.488 266.884 314.621ZM285.951 321.821C286.884 323.421 287.551 323.554 287.951 322.221C288.751 320.488 292.484 319.954 292.484 321.554C292.351 322.621 282.751 329.421 277.684 331.954C276.351 332.621 275.151 333.821 275.151 334.621C275.151 335.954 267.551 344.621 266.484 344.621C266.218 344.621 266.218 343.688 266.618 342.621C267.151 341.554 267.951 340.621 268.751 340.621C269.418 340.621 269.684 340.088 269.284 339.421C268.751 338.754 269.284 337.954 270.084 337.554C271.018 337.288 269.818 336.621 267.551 336.088C265.151 335.554 262.884 334.488 262.484 333.821C261.951 333.154 259.951 332.621 257.818 332.621C255.684 332.621 253.684 332.088 253.284 331.421C252.084 329.554 256.351 328.488 259.151 329.954C260.484 330.754 262.884 331.288 264.351 331.288C265.951 331.288 267.018 331.954 266.884 332.754C266.618 333.554 268.084 334.354 270.084 334.488C271.951 334.621 273.284 334.221 273.018 333.688C272.618 333.154 272.884 332.621 273.684 332.621C274.484 332.621 276.751 331.021 278.751 328.888C280.751 326.888 282.884 325.421 283.418 325.554C285.551 326.354 284.351 324.221 280.218 320.088C277.818 317.688 275.684 315.021 275.418 314.088C275.018 312.088 283.951 318.754 285.951 321.821ZM309.151 313.954C308.084 315.688 296.351 320.754 294.751 320.221C293.951 319.954 295.551 318.754 298.218 317.554C300.884 316.221 303.418 314.621 303.818 313.954C304.218 313.154 305.818 312.621 307.284 312.621C308.751 312.621 309.551 313.154 309.151 313.954ZM231.418 317.954C228.084 321.021 227.151 321.288 227.151 318.888C227.151 317.021 232.618 313.821 233.684 314.754C234.084 315.021 233.018 316.488 231.418 317.954ZM353.684 317.288C359.951 319.288 368.084 323.154 372.751 326.488C381.418 332.354 395.818 347.821 394.484 349.954C394.084 350.621 391.818 351.821 389.284 352.621C384.884 354.088 384.618 353.954 376.218 345.554C365.951 335.154 356.884 330.354 343.151 327.954C321.818 324.221 301.684 330.354 287.151 345.154C283.018 349.421 278.618 352.621 277.151 352.621C272.351 352.621 268.484 351.021 268.484 349.154C268.484 348.088 272.884 342.888 278.218 337.421C285.951 329.688 290.218 326.621 299.551 322.088C314.084 315.288 318.218 314.221 332.084 314.088C340.351 313.954 345.551 314.754 353.684 317.288ZM229.018 326.088C228.618 326.754 228.884 327.288 229.684 327.288C230.484 327.288 231.684 328.488 232.484 329.954C234.751 334.221 230.751 331.821 227.951 327.288C226.084 323.954 225.951 323.421 227.684 324.088C228.884 324.488 229.418 325.421 229.018 326.088ZM251.151 331.154C251.151 333.021 249.418 334.354 245.151 336.088C241.818 337.288 238.751 338.088 238.351 337.688C237.551 336.754 246.218 331.288 248.351 331.288C249.284 331.288 249.551 330.621 249.151 329.954C248.751 329.154 249.018 328.621 249.684 328.621C250.484 328.621 251.151 329.821 251.151 331.154ZM168.484 331.288C168.484 331.954 167.551 332.621 166.484 332.621C165.418 332.621 164.484 333.154 164.484 333.954C164.484 334.621 163.684 335.288 162.618 335.288C161.551 335.288 157.951 336.488 154.484 337.954C147.951 340.754 144.618 340.354 147.284 337.154C148.084 336.221 149.418 335.688 150.084 336.088C150.751 336.488 152.351 335.954 153.684 334.754C155.151 333.421 157.018 332.888 158.484 333.421C160.351 334.221 160.618 333.954 159.818 332.621C159.151 331.554 159.284 331.154 160.218 331.688C160.884 332.221 163.018 332.088 164.751 331.421C166.351 330.621 167.951 330.088 168.218 330.088C168.351 329.954 168.484 330.488 168.484 331.288ZM322.484 331.154C321.684 331.954 319.018 332.888 316.484 333.288C313.951 333.688 312.218 333.688 312.618 333.288C313.151 332.888 314.884 332.221 316.484 331.954C318.084 331.688 319.818 331.021 320.218 330.621C320.618 330.221 321.551 329.954 322.351 329.954C323.151 329.954 323.151 330.354 322.484 331.154ZM391.151 334.221C391.151 335.021 390.351 334.888 389.151 333.954C388.084 333.021 387.151 332.088 387.151 331.821C387.151 331.554 388.084 331.688 389.151 332.088C390.218 332.621 391.151 333.554 391.151 334.221ZM201.818 335.288C201.818 335.954 201.551 336.621 201.284 336.621C200.884 336.621 200.218 335.954 199.818 335.288C199.418 334.488 199.684 333.954 200.351 333.954C201.151 333.954 201.818 334.488 201.818 335.288ZM259.951 335.954C264.218 337.688 264.484 338.088 263.018 340.888C261.018 344.888 256.351 349.954 254.884 349.954C253.284 349.954 251.151 347.688 248.084 343.021C244.884 338.088 245.151 337.154 250.218 335.554C252.484 334.888 254.618 334.221 254.884 334.088C255.018 333.954 257.284 334.888 259.951 335.954ZM309.018 335.954C308.484 337.021 307.551 337.954 306.618 337.954C305.818 337.954 303.684 338.354 301.818 338.754C298.618 339.554 298.618 339.554 301.151 337.554C302.618 336.488 305.018 335.288 306.484 334.888C307.951 334.621 309.284 334.221 309.418 334.088C309.551 334.088 309.418 334.888 309.018 335.954ZM352.484 339.554C360.351 343.154 373.818 353.554 373.818 355.821C373.818 356.621 371.418 358.488 368.484 359.821L363.151 362.354L358.751 358.354C350.884 350.888 343.684 348.088 331.818 348.088C319.684 347.954 310.884 351.154 303.684 358.088L299.551 362.088L294.618 359.288C291.951 357.688 289.818 355.821 289.818 355.288C289.818 353.421 300.884 344.488 307.418 341.154C316.484 336.488 322.351 335.421 334.484 335.821C342.618 336.088 346.884 336.888 352.484 339.554ZM213.151 340.621C213.551 341.288 213.418 341.954 212.618 341.954C211.951 341.954 210.884 341.288 210.484 340.621C210.084 339.821 210.218 339.288 211.018 339.288C211.684 339.288 212.751 339.821 213.151 340.621ZM220.484 347.288C220.484 349.688 217.951 348.754 216.484 345.821C215.018 343.288 215.151 343.154 217.684 344.621C219.284 345.421 220.484 346.621 220.484 347.288ZM294.484 344.621C294.084 345.288 293.151 345.954 292.351 345.954C291.684 345.954 291.151 345.288 291.151 344.621C291.151 343.821 292.084 343.288 293.284 343.288C294.351 343.288 294.884 343.821 294.484 344.621ZM247.151 347.954C248.618 349.688 248.484 349.821 246.618 349.154C245.418 348.754 244.484 347.821 244.484 347.154C244.484 345.421 245.284 345.688 247.151 347.954ZM264.484 347.954C264.484 349.021 263.551 349.954 262.484 349.954C260.351 349.954 259.818 348.354 261.418 346.888C262.884 345.288 264.484 345.821 264.484 347.954ZM377.151 351.288C379.284 353.554 379.284 353.954 377.551 353.288C376.351 352.754 375.018 351.554 374.618 350.488C373.684 347.954 374.351 348.088 377.151 351.288ZM227.151 353.954C229.551 356.221 231.151 358.354 230.751 358.888C229.951 359.554 221.818 351.821 221.818 350.488C221.818 349.288 223.018 350.088 227.151 353.954ZM188.484 352.621C190.084 353.554 189.818 353.821 187.418 353.554C185.818 353.554 184.484 352.888 184.484 352.354C184.484 350.888 186.084 351.021 188.484 352.621ZM250.884 353.288C250.618 353.954 249.818 354.621 248.884 354.754C248.084 354.888 247.684 354.221 248.084 353.154C248.884 351.021 251.684 351.154 250.884 353.288ZM261.818 352.621C261.818 353.288 261.284 353.954 260.484 353.954C259.818 353.954 259.151 353.288 259.151 352.621C259.151 351.821 259.818 351.288 260.484 351.288C261.284 351.288 261.818 351.821 261.818 352.621ZM268.484 353.954C268.484 354.621 267.951 355.288 267.151 355.288C266.484 355.288 265.818 354.621 265.818 353.954C265.818 353.154 266.484 352.621 267.151 352.621C267.951 352.621 268.484 353.154 268.484 353.954ZM245.818 355.554C245.818 356.088 243.951 356.621 241.684 356.621C239.551 356.621 237.951 356.088 238.351 355.554C238.618 355.021 240.484 354.488 242.351 354.488C244.218 354.488 245.818 355.021 245.818 355.554ZM395.151 355.821C395.151 356.221 394.618 356.888 393.818 357.288C393.151 357.688 392.484 357.421 392.484 356.754C392.484 355.954 393.151 355.288 393.818 355.288C394.618 355.288 395.151 355.554 395.151 355.821ZM342.751 358.621C345.418 359.821 349.684 362.221 352.084 364.088L356.484 367.421L352.484 371.554L348.484 375.688L342.751 372.621C335.284 368.354 325.951 368.354 320.351 372.488L316.218 375.554L312.084 371.554C308.618 367.954 308.218 367.154 309.818 365.288C315.951 357.954 332.884 354.488 342.751 358.621ZM271.551 360.088C279.551 362.088 292.218 367.688 298.218 371.954C303.018 375.288 319.151 391.688 319.151 393.421C319.151 394.221 316.618 395.421 313.551 396.088L307.818 397.288L299.684 389.154C294.618 383.954 288.218 379.288 282.351 376.488C273.418 372.088 272.884 371.954 255.818 371.954H238.351L228.218 377.021C221.284 380.354 215.418 384.621 210.218 389.954C202.484 397.821 202.484 397.954 197.418 396.488C194.751 395.821 192.484 394.354 192.484 393.554C192.484 392.621 195.684 388.354 199.418 383.954C217.818 363.421 247.151 353.688 271.551 360.088ZM208.484 366.221C208.484 367.554 209.284 368.621 210.218 368.621C212.351 368.754 206.084 373.954 203.818 373.954C202.884 373.954 201.684 374.754 201.418 375.554C200.884 376.754 200.618 376.754 200.618 375.688C200.484 374.888 201.818 373.021 203.551 371.688C206.751 369.021 207.951 365.954 205.818 365.954C205.151 365.954 203.951 364.754 203.151 363.288C201.818 360.888 201.951 360.754 205.151 362.221C207.018 363.021 208.484 364.754 208.484 366.221ZM368.484 366.488C368.484 366.888 367.951 367.554 367.151 367.954C366.484 368.354 365.818 368.088 365.818 367.421C365.818 366.621 366.484 365.954 367.151 365.954C367.951 365.954 368.484 366.221 368.484 366.488ZM196.484 379.421C196.484 378.488 197.018 378.221 197.818 378.621C198.618 379.154 198.484 380.088 197.551 381.154C196.084 382.621 195.551 382.488 194.218 380.754C192.884 379.021 192.618 379.021 192.484 380.488C192.484 381.554 192.084 382.088 191.684 381.554C191.284 381.154 191.284 380.088 191.818 379.288C192.484 378.221 193.284 378.221 194.618 379.421C196.084 380.621 196.484 380.621 196.484 379.421ZM336.351 379.421C338.618 380.221 340.484 381.421 340.484 382.088C340.484 384.621 333.684 393.954 331.951 393.954C331.018 393.954 328.484 391.421 326.484 388.354L322.884 382.888L325.951 380.488C329.684 377.554 330.751 377.421 336.351 379.421ZM264.618 380.621C274.751 382.488 284.618 387.688 292.084 394.888L298.351 401.021L292.618 403.554L286.884 405.954L281.284 401.288C278.218 398.754 273.418 395.821 270.751 394.621C257.151 389.021 239.684 391.554 229.684 400.754L223.951 405.954L218.218 403.821C215.018 402.621 212.484 401.154 212.484 400.621C212.484 399.154 221.818 391.021 227.684 387.288C233.551 383.688 247.018 379.554 253.284 379.421C255.551 379.288 260.751 379.954 264.618 380.621ZM420.351 380.754C433.284 383.688 451.151 395.554 451.151 401.021C451.151 402.088 448.751 403.554 445.684 404.488C440.484 406.088 440.218 405.954 435.418 401.821C420.218 388.354 394.484 388.488 381.818 401.821L378.218 405.821L372.618 403.688C369.684 402.488 367.151 401.021 367.151 400.488C367.151 398.221 378.484 388.621 384.351 385.821C397.818 379.421 408.218 377.954 420.351 380.754ZM191.151 387.421C190.218 388.888 189.284 389.821 188.884 389.421C188.484 389.021 188.884 387.821 189.818 386.621C192.218 383.821 192.884 384.088 191.151 387.421ZM267.818 403.954C270.084 404.888 273.284 407.154 275.018 409.154C278.084 412.488 278.218 412.621 275.818 415.288C272.084 419.288 268.884 419.821 265.018 416.754C259.818 412.621 250.351 413.021 244.484 417.288L239.951 420.621L235.418 416.354L231.018 411.954L235.418 408.221C243.951 401.021 257.018 399.288 267.818 403.954ZM417.151 402.088C423.018 403.688 432.351 409.821 432.484 412.088C432.484 412.754 430.751 415.154 428.618 417.154L424.884 420.754L419.818 417.421C412.751 412.621 405.418 412.354 398.218 416.888L393.818 419.554L389.951 416.354C384.884 412.488 384.884 411.154 389.951 407.421C398.351 401.154 407.418 399.421 417.151 402.088ZM345.284 403.421C349.551 404.221 358.218 407.288 364.484 410.221C373.551 414.621 377.951 417.688 386.351 426.221C397.684 437.688 397.951 439.421 389.018 441.021C385.418 441.688 384.084 441.021 377.951 434.621C369.684 426.221 360.084 419.688 352.218 417.288C328.884 410.354 304.751 416.221 288.084 432.888C281.818 439.021 279.418 440.621 276.084 440.621C273.684 440.621 271.018 440.088 269.951 439.421C268.351 438.354 268.351 437.688 270.351 434.754C275.418 426.888 287.018 417.021 297.284 411.821C314.751 402.754 328.618 400.354 345.284 403.421ZM453.818 405.154C453.818 406.088 452.618 407.288 451.151 407.688C449.418 408.088 448.484 407.688 448.484 406.354C448.484 405.288 449.151 404.888 449.818 405.288C450.618 405.688 451.151 405.421 451.151 404.754C451.151 403.954 451.818 403.288 452.484 403.288C453.284 403.288 453.818 404.088 453.818 405.154ZM437.818 409.688C437.818 411.688 437.551 411.688 436.484 409.954C434.751 407.288 434.751 405.554 436.484 406.621C437.284 407.021 437.818 408.488 437.818 409.688ZM446.351 408.088C446.751 409.154 446.618 409.688 445.818 409.288C445.018 408.888 444.484 407.954 444.484 407.154C444.484 405.288 445.418 405.688 446.351 408.088ZM190.484 419.288C191.018 420.221 190.084 420.354 187.551 419.821C182.484 418.621 181.951 417.954 186.218 417.954C188.084 417.954 190.084 418.621 190.484 419.288ZM387.818 419.288C388.218 419.954 387.951 420.621 387.284 420.621C386.484 420.621 385.818 419.954 385.818 419.288C385.818 418.488 386.084 417.954 386.351 417.954C386.751 417.954 387.418 418.488 387.818 419.288ZM196.484 421.954C196.484 422.621 195.551 422.888 194.484 422.488C193.418 421.954 192.484 421.421 192.484 421.154C192.484 420.888 193.418 420.621 194.484 420.621C195.551 420.621 196.484 421.154 196.484 421.954ZM260.218 424.088C261.818 425.154 263.151 426.888 263.151 427.954C263.151 430.488 256.618 437.954 254.351 437.954C252.751 437.954 245.818 428.754 245.818 426.621C245.818 425.688 253.818 422.088 255.818 421.954C256.618 421.954 258.618 422.888 260.218 424.088ZM415.284 424.488L418.351 427.021L414.751 432.488C409.818 439.821 408.218 439.554 402.484 430.754C399.951 427.021 399.951 426.888 403.018 424.488C407.018 421.288 411.284 421.288 415.284 424.488ZM347.151 426.221C357.418 428.754 373.818 439.954 373.818 444.621C373.818 445.154 371.818 446.621 369.284 447.954L364.751 450.354L359.018 445.421C351.551 439.021 337.551 434.621 328.351 435.688C319.951 436.754 310.218 441.021 304.884 446.221C300.351 450.621 297.151 450.621 291.951 446.621C289.418 444.621 289.418 444.488 294.618 439.154C307.284 426.221 326.884 421.288 347.151 426.221ZM459.151 425.954C459.151 426.621 458.618 427.288 457.818 427.288C457.151 427.288 456.484 426.621 456.484 425.954C456.484 425.154 457.151 424.621 457.818 424.621C458.618 424.621 459.151 425.154 459.151 425.954ZM419.818 441.954C420.218 442.621 419.684 443.288 418.484 443.288C417.284 443.288 416.751 442.621 417.151 441.954C417.551 441.154 418.218 440.621 418.484 440.621C418.751 440.621 419.418 441.154 419.818 441.954ZM342.484 447.421C347.551 449.021 355.151 454.221 355.151 456.088C355.151 458.488 346.884 465.421 346.218 463.554C344.084 457.821 328.484 456.088 321.018 460.754L316.484 463.554L312.484 460.621C310.351 459.021 308.484 457.288 308.484 456.754C308.484 456.221 310.218 454.088 312.351 452.088C318.884 445.821 331.284 443.954 342.484 447.421ZM428.618 450.088C436.084 452.754 437.018 452.754 438.084 450.754C438.751 449.554 439.818 448.621 440.484 448.621C442.751 448.621 441.818 451.821 438.618 455.288C434.351 460.088 424.884 468.354 426.884 465.821C430.218 461.421 425.418 459.954 407.951 459.954C392.484 459.954 391.418 460.088 382.884 464.354C377.818 466.754 370.084 472.221 365.284 476.754C357.018 484.354 356.484 484.621 351.284 483.821C348.218 483.288 345.818 482.354 345.818 481.688C345.818 478.754 363.018 462.621 371.418 457.688C384.351 449.954 393.551 447.421 408.084 447.421C417.418 447.288 422.484 447.954 428.618 450.088ZM239.151 467.288C239.151 467.954 238.884 468.621 238.618 468.621C238.218 468.621 237.551 467.954 237.151 467.288C236.751 466.488 237.018 465.954 237.684 465.954C238.484 465.954 239.151 466.488 239.151 467.288ZM337.551 468.088C341.018 470.488 340.618 474.088 336.084 478.888C332.351 483.021 330.484 482.754 327.284 477.154C323.684 471.154 323.818 469.421 327.551 467.554C331.684 465.554 334.084 465.688 337.551 468.088ZM421.684 469.821C423.151 470.754 422.751 471.954 419.818 475.821C416.218 480.488 415.951 480.621 407.284 480.621C397.284 480.621 390.218 483.288 382.884 489.821L378.084 494.088L373.284 491.688C370.618 490.488 368.484 488.754 368.484 487.954C368.484 484.354 382.084 474.088 391.151 470.888C397.684 468.621 418.618 467.954 421.684 469.821ZM382.618 502.221C382.751 503.554 382.084 504.621 381.018 504.621C379.951 504.621 379.151 504.354 379.151 504.088C379.151 503.821 378.751 502.488 378.351 501.288C377.684 499.554 378.084 499.154 379.818 499.421C381.151 499.688 382.351 501.021 382.618 502.221Z" fill="black"/>
<path d="M140.483 15.954C98.35 23.2873 63.6833 43.2873 41.55 73.154C28.8833 90.2207 28.6167 92.4873 40.75 80.354C81.55 39.554 137.417 23.0207 190.483 36.0873C237.283 47.6873 274.883 78.754 302.083 128.221C305.017 133.554 309.95 140.754 313.017 144.221C318.35 150.087 319.017 150.354 325.683 150.354C333.683 150.221 334.217 149.821 336.35 143.154C339.283 133.954 332.883 114.354 321.15 96.6207C312.617 83.8207 288.617 59.0207 275.417 49.554C262.883 40.4873 243.417 30.0873 230.483 25.4207C202.217 15.2873 166.35 11.554 140.483 15.954Z" fill="black"/>
<path d="M135.817 52.0877C118.883 54.4877 107.817 58.221 87.1501 68.621C62.4835 81.1544 42.0835 101.421 24.6168 130.888C18.2168 141.821 8.35014 166.888 4.48347 182.221C-1.51653 206.354 -1.51653 238.888 4.6168 273.954C12.8835 320.888 23.9501 347.421 49.4168 381.821C75.4168 416.888 105.95 443.288 154.35 472.221C177.017 485.821 181.15 488.488 213.15 509.288C231.817 521.421 252.75 537.554 265.283 549.421C273.817 557.688 288.75 576.221 297.683 589.954C302.35 596.888 307.55 603.954 309.283 605.688C311.017 607.421 314.35 612.354 316.483 616.754C320.217 623.954 324.217 627.688 322.617 622.221C322.217 621.021 321.55 618.088 321.017 615.954C320.083 611.554 315.683 598.221 313.017 591.954C312.083 589.688 308.617 584.221 305.417 579.821C302.083 575.554 297.683 568.221 295.417 563.554C293.15 559.021 289.817 553.421 287.95 551.154C286.083 548.888 284.883 546.488 285.283 545.821C285.683 545.021 283.683 541.954 280.883 538.754C278.083 535.554 272.883 529.154 269.15 524.488C252.617 503.421 220.883 473.554 185.817 445.954C144.217 413.154 134.35 403.288 113.283 372.754C90.8835 340.354 78.8835 317.021 68.4835 285.954C54.7501 245.021 54.3501 203.288 67.2835 161.554C74.6168 137.688 86.3501 117.821 104.617 98.621C116.883 85.6877 129.283 77.6877 144.617 72.4877C155.283 68.8877 159.817 68.221 174.483 67.5544C183.95 67.1544 190.617 66.4877 189.15 65.9544C187.683 65.421 186.217 63.5544 185.817 61.821C184.617 56.8877 170.883 52.7544 153.55 52.0877C145.95 51.6877 138.083 51.821 135.817 52.0877ZM62.8835 92.8877C33.9501 129.288 21.6835 168.221 23.6835 217.288C24.6168 240.354 28.4835 264.354 34.0835 281.554C36.3501 288.754 38.4835 296.088 38.6168 297.954C38.7501 299.821 39.8168 303.021 41.0168 305.288C42.2168 307.421 43.1501 309.954 43.1501 310.621C43.1501 312.088 60.6168 343.821 69.1501 357.954C88.6168 389.954 118.483 422.621 163.15 460.621C169.817 466.221 149.417 455.021 133.817 444.488C120.083 435.288 113.95 430.754 90.4835 412.754C82.2168 406.488 66.4835 389.154 54.6168 373.421C38.3501 351.688 24.8835 324.354 19.8168 303.021C18.7501 298.354 16.6168 290.354 15.1501 285.288C10.4835 269.288 8.48347 254.088 8.08347 231.288C7.68347 210.088 9.55014 188.088 12.4835 178.621C13.1501 176.354 15.5501 168.888 17.8168 161.954C24.0835 141.688 25.4168 138.621 27.8168 138.221C29.5501 137.821 29.9501 136.754 29.2835 133.821C28.6168 130.488 29.0168 129.954 31.2835 129.954C33.6835 129.954 33.8168 129.554 32.4835 127.954C31.2835 126.488 31.2835 125.688 32.7501 124.221C33.6835 123.288 35.6835 120.221 37.1501 117.554C38.6168 114.888 40.2168 112.621 40.7501 112.621C42.2168 112.621 42.0835 115.021 40.6168 115.554C40.0835 115.688 39.0168 117.421 38.4835 119.154C37.6835 121.954 38.0835 121.821 41.4168 117.821C43.5501 115.288 48.6168 108.754 52.7501 103.288C61.9501 91.1544 66.3501 85.9544 67.0168 86.621C67.2835 86.8877 65.4168 89.6877 62.8835 92.8877Z" fill="black"/>
<path d="M197.55 68.2209C198.483 68.6209 199.683 68.4876 200.083 68.0876C200.617 67.6876 199.817 67.2876 198.35 67.4209C196.883 67.4209 196.483 67.8209 197.55 68.2209Z" fill="black"/>
<path d="M475.549 141.288C465.682 143.954 455.549 149.288 447.416 156.221C440.216 162.354 431.949 173.021 432.749 175.288C433.016 175.954 436.749 173.821 441.149 170.488C451.682 162.488 459.949 158.354 470.082 155.954C491.416 150.888 510.616 156.354 525.549 171.554C540.082 186.088 545.149 201.021 547.816 236.621C548.349 242.088 549.016 244.754 552.882 255.821C553.682 257.821 555.549 260.754 557.016 262.088C558.482 263.554 559.149 264.621 558.616 264.621C558.082 264.621 558.482 265.421 559.416 266.354C561.816 269.021 570.482 265.288 574.882 259.554C577.816 255.688 578.082 254.621 576.616 252.488C575.282 250.221 575.416 249.421 577.949 247.421C580.482 245.421 580.882 243.421 581.549 231.554C582.082 218.621 582.082 217.954 579.416 217.954C575.816 217.954 569.949 208.488 564.216 193.954C552.082 162.221 537.016 148.488 507.549 141.954C493.816 138.888 485.149 138.754 475.549 141.288ZM549.149 169.954C549.549 170.621 549.282 171.288 548.616 171.288C547.816 171.288 547.149 170.621 547.149 169.954C547.149 169.154 547.416 168.621 547.682 168.621C548.082 168.621 548.749 169.154 549.149 169.954ZM553.149 177.954C553.549 178.621 553.282 179.288 552.616 179.288C551.816 179.288 551.149 178.621 551.149 177.954C551.149 177.154 551.416 176.621 551.682 176.621C552.082 176.621 552.749 177.154 553.149 177.954ZM578.616 235.954C578.482 245.021 576.482 245.821 576.482 236.888C576.482 231.421 577.149 228.621 578.482 228.621C578.749 228.621 578.749 231.954 578.616 235.954Z" fill="black"/>
<path d="M262.483 263.021C265.417 263.687 269.15 264.887 270.883 265.821C272.483 266.621 274.483 267.021 275.15 266.621C275.817 266.221 276.617 266.487 277.15 267.287C277.683 268.087 275.95 268.621 272.617 268.621C269.683 268.621 267.017 267.954 266.75 266.887C266.217 265.687 265.817 265.687 264.75 267.021C264.083 267.954 262.617 268.354 261.55 267.954C260.35 267.421 259.15 267.687 258.75 268.221C258.35 268.887 262.083 270.087 267.15 271.021C282.483 273.687 298.083 281.821 308.883 293.021C315.017 299.421 316.883 298.754 311.283 292.221C309.017 289.687 307.15 286.887 307.15 286.087C307.15 285.421 306.35 285.021 305.283 285.421C304.35 285.821 303.15 285.287 302.75 284.221C301.95 281.954 306.483 282.087 308.75 284.354C311.55 287.154 313.017 286.087 310.35 283.154C301.817 273.687 279.817 263.687 265.283 262.621C258.883 262.221 258.35 262.221 262.483 263.021ZM286.483 271.554C291.15 273.687 290.617 275.421 285.817 273.821C283.683 273.021 281.817 271.821 281.817 271.154C281.817 269.554 282.35 269.687 286.483 271.554ZM297.417 276.087C297.017 276.487 295.817 276.621 294.883 276.221C293.817 275.821 294.217 275.421 295.683 275.421C297.15 275.287 297.95 275.687 297.417 276.087ZM304.617 280.221C306.083 282.221 306.083 282.354 304.617 281.021C303.683 280.221 302.083 279.821 301.15 280.087C300.217 280.487 299.017 280.221 298.483 279.421C297.017 276.887 302.75 277.821 304.617 280.221Z" fill="black"/>
<path d="M117.55 264.221C118.483 264.621 119.683 264.488 120.083 264.088C120.617 263.688 119.817 263.288 118.35 263.421C116.883 263.421 116.483 263.821 117.55 264.221Z" fill="black"/>
<path d="M122.884 265.554C123.817 265.954 125.017 265.821 125.417 265.421C125.951 265.021 125.151 264.621 123.684 264.754C122.217 264.754 121.817 265.154 122.884 265.554Z" fill="black"/>
<path d="M123.151 269.154L114.484 270.754L119.684 271.821C122.618 272.354 129.018 274.888 133.951 277.288C139.684 280.088 142.751 281.021 142.218 279.821C141.818 278.754 141.018 277.954 140.484 277.954C138.751 277.954 126.884 272.354 127.551 271.821C128.751 270.488 137.284 270.354 138.884 271.554C139.818 272.354 140.884 272.621 141.418 272.221C142.084 271.421 133.284 267.021 132.218 267.421C131.951 267.554 127.951 268.354 123.151 269.154Z" fill="black"/>
<path d="M225.151 268.621C225.551 269.287 226.217 269.954 226.617 269.954C226.884 269.954 227.151 269.287 227.151 268.621C227.151 267.821 226.484 267.287 225.684 267.287C225.017 267.287 224.751 267.821 225.151 268.621Z" fill="black"/>
<path d="M214.484 272.621C210.884 274.754 206.35 277.821 204.484 279.421L201.15 282.221L204.75 280.087C207.017 278.754 208.617 278.487 209.15 279.287C209.684 280.087 210.617 280.354 211.284 279.821C211.95 279.421 212.217 278.487 211.817 277.821C211.284 277.154 212.484 277.154 214.484 277.954C219.15 279.687 219.55 279.687 217.55 277.421C216.617 276.354 215.284 275.821 214.484 276.221C213.817 276.487 215.284 275.021 217.817 272.754C223.55 267.687 222.884 267.554 214.484 272.621Z" fill="black"/>
<path d="M229.816 269.821C229.816 270.621 230.616 271.288 231.55 271.288C232.616 271.288 232.483 271.821 231.15 272.621C228.483 274.355 229.15 274.221 237.15 271.821C243.283 270.088 243.416 269.955 238.616 270.488C235.683 270.888 232.483 270.488 231.55 269.688C230.35 268.755 229.816 268.755 229.816 269.821Z" fill="black"/>
<path d="M246.884 269.554C247.817 269.954 249.017 269.821 249.417 269.421C249.951 269.021 249.151 268.621 247.684 268.754C246.217 268.754 245.817 269.154 246.884 269.554Z" fill="black"/>
<path d="M224.216 274.888C222.883 275.155 221.816 276.088 221.816 276.755C221.816 277.555 222.883 277.421 224.483 276.621C225.95 275.821 227.15 274.888 227.15 274.621C227.15 274.221 227.016 274.088 226.883 274.088C226.616 274.221 225.416 274.488 224.216 274.888Z" fill="black"/>
<path d="M144.484 282.487C144.484 282.754 145.551 283.821 146.884 284.754C148.884 286.487 149.018 286.354 147.284 284.221C145.551 282.087 144.484 281.421 144.484 282.487Z" fill="black"/>
<path d="M153.816 290.354C153.816 290.621 155.816 292.488 158.216 294.754L162.483 298.621L158.616 294.221C154.883 290.221 153.816 289.288 153.816 290.354Z" fill="black"/>
<path d="M166.884 295.288C168.084 297.421 169.684 299.288 170.217 299.288C170.884 299.288 170.084 297.421 168.484 295.288C164.884 290.088 163.95 290.088 166.884 295.288Z" fill="black"/>
<path d="M317.816 292.621C317.816 293.287 318.483 293.954 319.283 293.954C319.95 293.954 320.216 293.287 319.816 292.621C319.416 291.821 318.75 291.287 318.35 291.287C318.083 291.287 317.816 291.821 317.816 292.621Z" fill="black"/>
<path d="M321.816 299.154C321.816 299.821 322.483 300.887 323.15 301.287C323.95 301.687 324.483 301.554 324.483 300.754C324.483 300.087 323.95 299.021 323.15 298.621C322.483 298.221 321.816 298.354 321.816 299.154Z" fill="black"/>
<path d="M170.884 303.554C171.684 306.888 173.817 308.754 175.417 307.821C176.617 307.021 172.75 300.621 171.15 300.621C170.484 300.621 170.35 301.954 170.884 303.554Z" fill="black"/>
<path d="M140.75 307.288C143.684 310.221 146.617 312.354 147.017 311.821C147.417 311.288 147.017 310.621 146.217 310.354C145.284 309.954 144.484 309.021 144.484 308.088C144.484 307.154 142.884 305.554 140.884 304.488C138.75 303.554 136.75 302.488 136.217 302.221C135.684 301.954 137.684 304.221 140.75 307.288Z" fill="black"/>
<path d="M458.884 310.887C459.817 311.287 461.017 311.154 461.417 310.754C461.951 310.354 461.151 309.954 459.684 310.087C458.217 310.087 457.817 310.487 458.884 310.887Z" fill="black"/>
<path d="M451.15 313.288C449.284 314.354 448.484 315.154 449.15 315.154C449.95 315.154 451.95 314.354 453.817 313.288C455.684 312.221 456.617 311.421 455.817 311.421C455.15 311.421 453.017 312.221 451.15 313.288Z" fill="black"/>
<path d="M461.151 316.621C459.684 317.154 456.751 318.354 454.617 319.154C452.484 319.954 451.017 321.021 451.417 321.288C451.817 321.688 455.284 320.488 459.284 318.754C465.817 315.688 467.417 313.954 461.151 316.621Z" fill="black"/>
<path d="M124.484 322.488C124.484 322.754 125.418 323.288 126.484 323.821C127.551 324.221 128.484 323.954 128.484 323.288C128.484 322.488 127.551 321.954 126.484 321.954C125.418 321.954 124.484 322.221 124.484 322.488Z" fill="black"/>
<path d="M432.35 325.421C429.417 328.754 429.417 328.888 431.95 327.554C433.55 326.754 435.15 325.154 435.684 323.954C436.75 321.154 436.084 321.421 432.35 325.421Z" fill="black"/>
<path d="M422.618 334.754C420.618 337.287 419.684 339.021 420.751 338.621C423.018 337.687 429.151 329.954 427.551 330.087C427.018 330.087 424.751 332.221 422.618 334.754Z" fill="black"/>
<path d="M460.483 332.221C456.617 333.687 447.017 339.554 447.683 340.221C447.95 340.487 450.617 339.287 453.683 337.421C456.617 335.554 459.683 333.954 460.35 333.954C461.017 333.954 462.083 333.287 462.483 332.621C463.417 331.154 463.417 331.154 460.483 332.221Z" fill="black"/>
<path d="M431.684 335.554L429.15 338.621L432.217 336.088C433.817 334.621 435.15 333.288 435.15 333.021C435.15 331.954 434.084 332.754 431.684 335.554Z" fill="black"/>
<path d="M463.816 337.954C463.416 338.754 463.95 338.888 465.016 338.488C467.416 337.554 467.816 336.621 465.95 336.621C465.15 336.621 464.216 337.154 463.816 337.954Z" fill="black"/>
<path d="M427.15 340.754C427.15 341.421 427.817 341.688 428.484 341.288C429.284 340.888 429.817 340.221 429.817 339.821C429.817 339.554 429.284 339.288 428.484 339.288C427.817 339.288 427.15 339.954 427.15 340.754Z" fill="black"/>
<path d="M439.15 347.954C438.217 349.021 437.95 349.954 438.35 349.954C438.883 349.954 440.217 349.021 441.283 347.954C442.483 346.887 442.75 345.954 442.083 345.954C441.417 345.954 440.083 346.887 439.15 347.954Z" fill="black"/>
<path d="M409.151 351.288C409.551 351.954 410.217 352.621 410.617 352.621C410.884 352.621 411.151 351.954 411.151 351.288C411.151 350.488 410.484 349.954 409.684 349.954C409.017 349.954 408.751 350.488 409.151 351.288Z" fill="black"/>
<path d="M424.484 352.621C424.484 354.221 430.884 355.954 432.218 354.754C433.284 353.554 429.818 351.288 426.884 351.288C425.551 351.288 424.484 351.821 424.484 352.621Z" fill="black"/>
<path d="M435.016 353.554C433.283 355.688 433.416 355.821 435.55 354.088C437.683 352.354 438.35 351.288 437.283 351.288C437.016 351.288 435.95 352.354 435.016 353.554Z" fill="black"/>
<path d="M442.884 352.754C441.551 353.421 440.484 354.621 440.484 355.288C440.484 357.554 442.484 356.754 444.218 353.954C446.084 350.888 445.951 350.888 442.884 352.754Z" fill="black"/>
<path d="M142.483 361.954C142.883 362.621 143.55 363.288 143.95 363.288C144.216 363.288 144.483 362.621 144.483 361.954C144.483 361.154 143.816 360.621 143.016 360.621C142.35 360.621 142.083 361.154 142.483 361.954Z" fill="black"/>
<path d="M141.951 370.087C150.618 376.221 159.018 384.487 163.151 391.021C165.418 394.354 167.284 396.221 167.818 395.287C169.684 392.221 157.418 378.887 144.884 370.621C136.351 364.754 133.951 364.487 141.951 370.087Z" fill="black"/>
<path d="M155.951 371.821C156.351 372.888 157.684 374.088 158.884 374.621C160.617 375.288 160.617 374.888 158.484 372.621C155.684 369.421 155.017 369.288 155.951 371.821Z" fill="black"/>
<path d="M164.884 374.888C162.35 375.821 162.75 377.421 165.684 377.421C167.15 377.421 167.95 376.754 167.55 375.688C167.15 374.754 166.75 373.954 166.617 374.088C166.617 374.088 165.684 374.488 164.884 374.888Z" fill="black"/>
<path d="M166.749 384.621C167.149 386.088 168.083 387.288 168.749 387.288C169.416 387.288 170.749 389.288 171.816 391.554C172.883 393.954 173.683 394.888 173.816 393.688C173.816 391.288 168.483 382.088 166.883 381.954C166.483 381.954 166.349 383.154 166.749 384.621Z" fill="black"/>
<path d="M168.484 396.621C168.484 397.287 169.151 397.954 169.818 397.954C170.618 397.954 171.151 397.287 171.151 396.621C171.151 395.821 170.618 395.287 169.818 395.287C169.151 395.287 168.484 395.821 168.484 396.621Z" fill="black"/>
<path d="M317.818 504.221C312.084 505.421 298.751 512.088 293.951 516.221C289.418 520.088 289.418 520.088 291.684 523.554L293.951 527.154L302.084 521.821C312.218 515.288 321.151 512.621 332.351 512.621C343.551 512.621 353.818 515.421 362.084 520.621C369.818 525.421 370.084 525.421 372.218 521.954C373.684 519.554 373.418 518.754 370.484 515.821C368.618 513.954 363.018 510.621 358.084 508.221C349.951 504.354 347.818 503.954 335.151 503.821C327.418 503.688 319.684 503.821 317.818 504.221ZM361.818 512.621C361.818 513.288 361.284 513.954 360.484 513.954C359.818 513.954 359.151 513.288 359.151 512.621C359.151 511.821 359.818 511.288 360.484 511.288C361.284 511.288 361.818 511.821 361.818 512.621ZM364.484 516.621C364.484 517.288 364.218 517.954 363.951 517.954C363.551 517.954 362.884 517.288 362.484 516.621C362.084 515.821 362.351 515.288 363.018 515.288C363.818 515.288 364.484 515.821 364.484 516.621Z" fill="black"/>
<path d="M313.816 528.888C304.616 533.554 302.349 537.154 306.483 540.621C308.349 542.221 309.816 541.821 316.216 538.621C321.416 535.954 326.483 534.621 332.083 534.221C339.283 533.688 341.149 534.221 348.483 538.088C356.483 542.354 356.883 542.354 358.616 539.954C363.283 533.554 349.683 525.554 333.149 524.888C323.416 524.621 321.816 524.888 313.816 528.888Z" fill="black"/>
<path d="M320.484 550.621C316.884 554.354 316.751 554.354 328.484 554.754C333.284 554.888 338.351 555.154 339.818 555.421C341.418 555.821 342.351 555.288 342.218 554.221C341.951 553.421 342.618 552.621 343.551 552.621C344.351 552.488 343.684 551.288 341.951 549.954C338.751 547.154 332.484 546.354 332.484 548.621C332.484 549.288 334.084 549.954 336.084 549.954C337.951 549.954 339.151 550.354 338.618 550.888C338.084 551.554 333.951 551.954 329.551 552.088C321.551 552.088 321.551 552.088 324.484 549.688C326.484 548.088 326.751 547.288 325.551 547.288C324.484 547.288 322.218 548.754 320.484 550.621Z" fill="black"/>
</svg>
