<svg width="595" height="557" viewBox="0 0 595 557" fill="none" xmlns="http://www.w3.org/2000/svg">
<path d="M579.067 2.06618C579.2 4.59952 580.133 5.53285 583.067 5.79952C587.333 6.33285 587.733 8.06621 584 10.0662C581.6 11.3995 580.8 10.9995 581.2 8.33285C581.2 7.79952 580.667 7.39952 579.867 7.39952C579.067 7.39952 578.667 8.33285 579.2 9.39952C579.6 10.5995 579.2 11.3995 578 11.3995C576.933 11.3995 576 12.1995 576 13.2662C576 14.4662 574.933 14.8662 572.667 14.3329C569.067 13.6662 568.8 10.5995 572.4 10.8662C573.867 10.9995 574.4 9.93285 574.4 7.26618C574.267 2.73285 573.333 2.33285 571.067 6.06618C568.933 9.26618 548.133 24.7329 545.733 24.7329C542.8 24.7329 543.733 22.4662 548.133 18.7329C550.4 16.8662 552.133 14.9995 551.733 14.7329C551.467 14.4662 547.2 17.7995 542.4 22.0662C537.6 26.4662 533.067 30.0662 532.4 30.0662C530.133 30.0662 506.267 52.5996 488.8 71.5329C483.6 76.9996 471.067 90.0662 460.667 100.733C439.067 123 429.2 133.8 418 147.4C413.6 152.733 408.8 158.333 407.333 159.933C403.6 163.8 385.6 186.2 373.467 201.933C368 209 358.4 221.133 352.133 229C345.867 236.733 337.733 246.866 334.133 251.533C330.533 256.2 327.333 259.266 327.067 258.466C326.533 256.866 340.267 237.533 361.333 210.333C368.267 201.266 376 191.133 378.4 187.666C380.8 184.2 384.8 178.733 387.333 175.4C390 172.066 394.667 165.8 398 161.4C401.2 157 408.133 148.866 413.333 143.4C418.533 137.933 424 131.4 425.467 129C426.933 126.733 429.333 123.933 430.667 123C432.133 122.066 435.067 118.866 437.333 115.933C439.733 113.133 446.8 105 453.333 98.0662C469.467 80.5996 473.333 75.9329 469.867 77.7996C466.8 79.3996 451.733 94.9996 437.467 111.4C432 117.666 423.2 127.533 417.867 133.4C397.6 155.8 390.8 163.8 391.2 164.6C391.6 165.133 390.133 167.4 388.133 169.933C385.2 173.533 384.267 173.933 383.067 172.466C382 171.266 381.867 169.933 382.8 168.733C383.733 167 384.133 167 385.2 168.6C386.533 170.6 388.667 168.2 387.333 166.066C386.933 165.4 387.333 165.133 388.533 165.533C390 166.066 390.267 165.533 389.733 163.4C389.2 161.4 390.133 159.266 392.933 156.333C397.333 151.666 399.333 147.4 397.333 147.4C396.533 147.4 396 146.733 396 145.933C396 144.866 396.8 145 398.133 146.2C400 147.8 400.8 147.266 404.533 142.733C409.333 136.466 425.067 118.333 447.2 93.3996C461.6 77.2662 492.4 44.4662 501.067 36.3329C504.8 32.7329 508 28.8662 508 27.9329C508 24.1995 503.333 26.9995 499.467 32.9995C498.133 34.9995 496.4 36.3329 495.6 35.7995C494.8 35.3995 494.667 35.6662 495.2 36.4662C495.733 37.3995 495.467 38.0662 494.533 38.0662C491.6 38.0662 476.667 53.2662 477.067 55.9329C477.2 57.6662 476.8 58.1996 475.2 57.5329C473.467 56.8662 468.533 60.9996 456.933 72.3329C438.8 90.1996 440.533 88.4662 422.8 108.733C415.333 117.133 409.333 124.466 409.333 125C409.333 125.533 408.4 126.066 407.333 126.066C406.267 126.066 405.333 126.866 405.333 127.933C405.333 129 402.933 132.333 399.867 135.266C396.933 138.333 394.933 141.4 395.333 142.066C395.733 142.866 395.333 143.4 394.267 143.4C392.667 143.4 388.267 147.666 377.2 160.2C375.867 161.8 374.667 163.533 374.667 164.2C374.667 164.733 371.067 168.733 366.667 173.133C362.133 177.4 357.467 183.266 356.133 185.933C354.667 188.6 352.267 191.933 350.667 193.4C348.933 194.866 345.067 200.066 341.867 205C338.667 210.066 335.067 214.066 334 214.066C332.933 214.066 331.6 215.666 331.2 217.666C330.667 219.8 329.2 222.6 327.867 224.066C326.533 225.533 324.133 228.2 322.4 230.066C320.667 231.933 318.533 234.866 317.6 236.6C316 239.666 314.667 241.4 301.867 256.466C298.667 260.333 294.4 265.933 292.667 268.866C290.8 271.666 288.8 274.066 288.133 274.066C287.333 274.066 286.4 275.4 285.867 277C285.333 278.6 283.6 281.133 281.867 282.466C280.133 283.8 278.667 285.8 278.667 286.866C278.667 287.933 274.667 294.333 269.733 301.133C258.133 316.866 252.267 325.933 246.267 336.866C243.6 341.8 240.533 346.066 239.467 346.466C237.067 347.4 221.867 370.066 218.4 377.666C217.067 380.733 214.933 384.066 213.6 385C212.267 385.933 210.267 388.333 208.933 390.333C206.933 393.533 206.267 393.8 203.067 392.6C200.933 391.8 196.933 388.2 194 384.466C191.067 380.733 186.667 376.2 184.4 374.466C182 372.6 180 370.6 180 369.933C180 368.6 174.533 360.066 166.4 348.733C163.067 343.933 159.2 337.4 158 334.066C156.667 330.733 154.667 327.133 153.333 325.933C152 324.866 150 322.2 148.8 319.933C147.6 317.8 144.667 312.6 142.267 308.466C139.867 304.333 136.8 299.533 135.333 297.8C133.867 296.066 132.4 294.066 132.133 293.4C131.467 291 130.667 290.866 130.667 293.4C130.667 294.6 132.533 297.8 134.667 300.333C138.8 305 139.733 309.8 137.067 312.466C134.8 314.733 129.467 314.466 128.533 312.066C128 311 126.933 310.066 125.867 310.066C124.8 310.066 124 309.4 124 308.733C124 307.933 124.8 307.4 125.867 307.4C127.067 307.4 127.467 306.066 127.067 302.466C126.533 297.266 122 288.733 119.867 288.733C119.2 288.733 118.667 288.2 118.667 287.533C118.667 285.933 122.533 286.466 123.733 288.2C124.267 288.866 125.733 290.2 127.067 291.266C129.067 292.866 129.333 292.733 129.333 290.6C129.2 288.866 127.067 287 122.8 285C115.6 281.666 111.2 281.266 110.267 283.666C109.6 285.266 108.8 280.066 108.933 275.666C109.067 274.866 108.533 274.066 108 274.066C106.267 274.066 105.467 277.666 106.8 279C107.733 279.933 107.067 280.6 104.8 281C102.667 281.4 101.2 281 100.667 279.666C100.267 278.333 100.667 278.066 102 278.6C103.067 279 104 278.733 104 278.066C104 277.266 103.067 276.733 102 276.733C100.8 276.733 100.4 275.933 100.8 274.733C101.333 273.666 100.933 272.733 100 272.733C99.2 272.733 98.8 273.266 99.3333 273.933C100.8 276.466 93.8667 278.466 89.7333 276.866C89.6 276.733 90.4 274.6 91.4667 272.066C94.5333 264.733 94 263.4 88.2667 263.4C85.4667 263.4 82.5333 262.733 81.8667 262.066C81.0667 261.266 78.6667 260.466 76.4 260.333C74.1333 260.2 72.5333 259.666 72.9333 259C73.2 258.466 72.2667 258.066 70.8 258.066C69.4667 258.066 68 257.266 67.6 256.333C67.0667 255 66.6667 255 65.2 256.333C64.2667 257.266 61.7333 258.066 59.7333 258.066C57.2 258.066 56 258.733 56 260.2C56 261.266 56.6667 261.8 57.3333 261.4C59.6 260.066 58.8 262.733 56.4 264.733C55.0667 265.933 53.0667 266.6 51.8667 266.333C50.2667 266.066 49.8667 266.866 50.4 270.066C51.3333 276.466 49.2 277.666 35.6 278.733C28.8 279.266 22.6667 280.333 21.7333 281C20.5333 281.933 19.4667 281.666 18 280.2C13.6 275.8 12.1333 277.533 11.7333 287.933C11.4667 294.333 11.0667 295.4 9.2 295C6.93333 294.333 0 300.6 0 303.266C0 304.066 1.73333 305.533 3.73333 306.6C9.46667 309.533 11.3333 312.333 9.33333 314.733C8.4 315.8 8.13333 318.2 8.66667 320.6C9.86667 326.333 9.73333 326.733 6.4 326.866C0.666667 327.266 -1.06667 335.4 3.33333 340.733C6.53333 344.466 12.1333 355.4 10.8 355.4C10.1333 355.4 9.06667 354.733 8.66667 354.066C8.13333 353.266 7.2 353.133 6.4 353.533C5.73333 354.066 8.13333 356.066 11.7333 358.066C15.4667 360.066 20.1333 363 22.1333 364.6C24.1333 366.2 26.1333 367.133 26.5333 366.733C26.9333 366.2 26.4 365.4 25.3333 364.733C24.2667 364.066 23.8667 363.133 24.2667 362.733C25.8667 361.133 28.1333 363.533 27.8667 366.466C27.3333 372.066 28 375.533 29.3333 374.733C30.1333 374.2 30.4 373.266 30 372.6C29.4667 371.933 29.8667 371.4 30.5333 371.4C31.3333 371.4 32 371.8 32.1333 372.333C32.6667 377.933 36.1333 383.4 39.0667 383.4C39.8667 383.4 42.5333 385.666 45.2 388.333C51.4667 395.133 70.6667 420.6 70.6667 422.2C70.6667 422.866 71.6 423.8 72.6667 424.2C73.7333 424.6 75.7333 427.533 77.2 430.466C78.6667 433.533 81.6 437.933 83.7333 440.333C88.6667 445.533 100 461.8 100 463.4C100 464.066 100.8 465.133 101.733 465.666C104.133 467.133 110.667 477.666 110.667 479.933C110.667 481 111.333 482.333 112 482.733C112.8 483.266 115.067 486.066 116.933 489.133C118.8 492.2 120.8 495 121.333 495.4C121.733 495.8 124.4 499 127.067 502.6C130.667 507.266 131.733 509.933 131.2 512.2C130.533 514.6 131.2 515.666 134.533 517.4C138.933 519.666 139.467 520.733 137.2 523C135.467 524.733 139.467 529.266 141.6 527.933C142.533 527.266 142.133 526.333 140.667 525.266C137.867 523.133 138.533 521.666 141.867 522.866C143.2 523.4 144 525.266 144 527.666C144 533.8 149.6 542.066 153.867 542.066C154.933 542.066 156 543 156.4 543.933C157.2 546.066 166.4 549.266 172 549.266C174.133 549.4 175.2 550.066 174.933 551.266C174.667 552.333 175.333 553.666 176.267 554.2C179.067 556.066 180.4 555.533 178.667 553.4C176.133 550.333 180.8 549.133 184 552.066C185.333 553.266 189.333 554.6 192.933 554.866C196.4 555 201.867 555.533 204.8 555.933C208.667 556.466 210.8 556.2 211.867 554.866C212.8 553.8 217.467 552.6 222.8 552.066C228 551.533 233.733 550.333 235.6 549.4C237.467 548.333 239.733 547.933 240.533 548.2C242.933 549.133 253.733 542.733 259.867 536.733C262.933 533.8 266 531.4 266.667 531.4C267.467 531.4 268 529.266 268 526.733C268 524.2 267.467 522.066 266.667 522.066C266 522.066 265.333 520.6 265.333 518.733C265.333 515.133 266.533 514.466 268.933 516.866C270.133 518.066 270.667 517.666 271.333 515.133C271.733 513.4 272 511.4 271.867 510.6C271.733 509.933 271.733 508.2 271.867 506.733C272 504.866 272.4 504.6 273.6 505.8C275.6 507.8 281.333 501.4 281.333 497.133C281.333 495.533 282 493.8 282.667 493.4C284.667 492.2 289.333 481.933 288.533 480.6C287.333 478.6 290.8 473.8 292.8 474.6C294 475 294.667 474.466 294.667 472.733C294.667 471.4 296 469.266 297.6 468.2C299.2 467 299.867 466.066 298.933 466.066C297.733 466.066 297.467 465.133 298 463.533C298.533 461.8 298 460.466 296.4 459.533C294.133 458.333 294.133 458.066 296.8 455.4L299.6 452.466L300.4 456.6C300.933 458.866 301.733 460.733 302.267 460.733C303.467 460.733 312.4 447.4 311.2 447.4C310 447.4 307.333 450.466 306 453.4C304.933 455.933 304.8 455.933 304.4 453C304 451.4 303.2 450.066 302.533 450.066C300.667 450.066 301.067 446.066 303.067 445.933C303.867 445.8 305.6 445.666 306.667 445.533C308.8 445.4 308.667 441.666 306.533 441C303.067 439.666 307.333 433.666 314.8 429C320 425.8 322 425.266 320.667 427.4C320.267 428.066 320.4 428.733 321.067 428.733C321.867 428.733 322.133 430.066 321.733 431.666C321.2 434.2 321.333 434.333 322.533 432.733C326.133 428.066 326.8 426.066 324.667 426.866C323.333 427.4 322.667 426.866 322.667 425.4C322.667 424.2 322.133 423.666 321.333 424.066C320.667 424.466 320 423.666 320 422.2C320 420.6 320.533 419.4 321.333 419.4C322 419.4 322.267 418.466 321.867 417.4C321.333 416.2 321.867 415.4 323.2 415.4C324.4 415.4 325.333 414.466 325.333 413.4C325.333 411.4 326.667 410.866 331.333 411.4C333.467 411.666 333.6 411.4 332.133 409.533C330.533 407.666 330.8 406.6 334.533 402.066C337.6 398.2 338.533 395.933 338 393.666C337.333 391.4 337.733 390.2 339.2 389.666C340.4 389.133 341.333 387.666 341.333 386.333C341.333 383.133 342.4 382.066 344.8 383C346.267 383.533 346.4 384.2 345.2 385.533C342.8 388.466 345.733 387.666 350.8 384.066C356.133 380.066 358.667 377 358.667 374.333C358.667 372.866 358.267 372.733 356.8 373.933C355.2 375.266 354.8 374.733 354 371.533C353.6 369.266 353.6 366.866 354 366.066C354.533 365.266 353.6 363.533 352.133 362.2C348.533 359 348.533 356.733 352.133 357.666C354.8 358.466 354.933 358.066 354.133 354.866C352.8 349.4 356.267 351.133 358.133 356.733C358.933 359.266 360.267 361.533 361.067 361.8C362.533 362.2 362.4 358.733 360.933 357.266C360.4 356.733 360 355.133 360 353.8C360 352.466 359.467 351.4 358.667 351.4C358 351.4 357.333 350.466 357.333 349.4C357.333 348.333 358.267 347.4 359.333 347.4C360.533 347.4 361.333 346.2 361.333 344.6C361.333 342.2 361.867 341.933 366.667 342.6C369.867 343 372.267 342.733 372.8 341.8C373.467 340.866 373.067 340.6 371.6 341.133C369.2 342.066 367.2 338.333 369.2 336.333C369.867 335.666 371.467 336.333 373.2 338.2C374.667 339.933 376 340.6 376 339.8C376 338.866 376.933 337.266 378.133 336.2C380 334.2 380 333.933 378.133 331.933C375.733 329.666 375.333 327.4 377.2 327.4C377.867 327.4 378.667 328.466 379.067 329.933C380.133 333.933 384.667 332.466 390.533 326.333C396.267 320.333 397.067 318.733 394.4 317.666C393.467 317.266 394 316.866 395.733 316.866C399.067 316.733 399.2 316.333 397.333 312.733C396.267 310.6 396.267 310.333 398 310.866C399.067 311.266 399.6 312.2 399.2 312.866C398.133 314.733 400 314.333 402.133 312.2C404.533 309.8 404.533 308.6 402.133 309.533C401.2 309.933 400 309.266 399.6 308.2C399.067 306.866 400.4 305.266 403.467 303.4C406 301.8 407.6 299.933 407.2 299.266C406.8 298.466 405.733 298.6 404.533 299.533C403.067 300.733 402.667 300.6 402.667 298.466C402.667 297 404.933 293.4 407.733 290.466C410.667 287.533 413.333 284.2 413.733 283.266C414.267 282.2 417.2 278.066 420.4 273.8C431.2 259.533 432.533 257.133 426.133 264.066C422.667 267.666 415.6 276.466 410.267 283.4C405.067 290.333 400.267 296.333 399.867 296.733C398.267 298.066 397.467 302.066 398.8 302.066C399.467 302.066 399.333 302.866 398.4 303.933C396.933 305.533 396.267 305.533 394.933 304.2C393.467 302.733 393.733 301.666 396.267 297.666C400.267 291.133 412.667 274.2 420.8 263.8C424.4 259.4 433.333 248.066 440.667 238.733C453.2 222.866 471.333 200.866 484.667 185.4C503.467 163.666 510.667 154.333 510.667 151.266C510.667 150.466 513.333 147 516.533 143.533C523.2 136.6 538.667 117.266 538.667 115.933C538.667 115.4 537.733 115.8 536.667 116.733C535.467 117.666 534.267 118.2 534 117.8C533.2 117 536.4 110.066 537.6 110.066C540.533 110.066 552.667 96.1996 552 93.7996C551.6 92.5996 553.733 88.8662 554.667 89.3996C555.2 89.6662 556.4 88.3329 557.2 86.3329C558.8 82.8662 558.667 82.8662 553.733 87.3996C550.933 89.9329 542.267 98.1996 534.533 105.8C526.4 113.8 520 119.133 519.467 118.333C518.533 116.733 525.067 109 545.067 88.0662C583.333 48.0662 581.867 48.3329 541.067 88.7329C527.2 102.2 516 112.6 516 111.666C516 109.933 526.8 97.2662 547.867 74.4662C560.267 61.1329 560.667 60.4662 560.8 56.7329C561.2 49.3996 561.333 48.8662 563.333 49.5329C564.533 50.0662 565.733 49.1329 566.533 47.1329C568.133 42.9996 571.467 40.1995 573.467 41.5329C574.4 42.0662 574.667 41.9329 574.133 40.9995C573.6 40.1995 577.867 35.1329 584 29.2662C589.867 23.6662 594.4 18.7329 594.133 18.4662C593.467 17.7995 586.4 22.0662 585.2 23.7995C584.667 24.4662 584 24.3329 583.467 23.6662C583.067 22.8662 583.867 21.9329 585.333 21.3995C587.867 20.5995 588.8 17.3995 588.133 11.3995C587.867 9.66621 588 9.66621 589.333 11.3995C590.533 13.1329 590.8 13.1329 592 11.3995C593.733 8.86621 593.733 7.39952 592 7.39952C591.333 7.39952 590.667 5.79952 590.667 3.93285C590.667 0.599515 590.4 0.466182 585.467 1.26618C581.867 1.79952 580 1.53285 579.467 0.332849C579.067 -0.467151 578.933 0.199515 579.067 2.06618ZM584 14.0662C584 14.7329 583.733 15.3995 583.467 15.3995C583.067 15.3995 582.4 14.7329 582 14.0662C581.6 13.2662 581.867 12.7329 582.533 12.7329C583.333 12.7329 584 13.2662 584 14.0662ZM581.067 19.6662C580.267 22.0662 577.333 22.4662 577.333 20.1995C577.333 18.9995 578.267 18.0662 579.467 18.0662C580.667 18.0662 581.333 18.7329 581.067 19.6662ZM532.667 50.0662C532.267 50.7329 530.933 51.3996 529.867 51.3996C528.8 51.3996 528.267 50.7329 528.667 50.0662C529.067 49.2662 530.4 48.7329 531.467 48.7329C532.533 48.7329 533.067 49.2662 532.667 50.0662ZM434.667 102.6C434.667 103 434.133 103.666 433.333 104.066C432.667 104.466 432 104.2 432 103.533C432 102.733 432.667 102.066 433.333 102.066C434.133 102.066 434.667 102.333 434.667 102.6ZM376 179.666C376 181 376.533 181.8 377.333 181.4C378.133 181 378.267 181.533 377.867 182.6C377.2 184.2 376.4 183.8 373.733 180.733C372 178.6 370.933 176.2 371.333 175.4C372.667 173.266 376 176.466 376 179.666ZM366.667 185.266C366.667 186.733 364.133 187.266 363.333 186.066C362.933 185.4 363.467 184.733 364.533 184.733C365.733 184.733 366.667 185 366.667 185.266ZM478.4 190.066C477.467 191.533 476.267 192.733 475.867 192.733C475.333 192.733 475.2 191.533 475.6 190.066C476 188.6 477.2 187.4 478.133 187.4C479.733 187.4 479.733 187.933 478.4 190.066ZM474.667 195.266C474.667 195.8 470.8 200.066 466 204.733C461.333 209.533 457.333 214.066 457.333 214.733C457.333 215.533 456.133 216.866 454.533 217.8C452.933 218.866 452.133 219 452.667 218.2C453.067 217.4 452.933 216.733 452.267 216.733C451.467 216.733 451.6 215.4 452.4 213.4C453.333 211.533 454.667 210.066 455.467 210.066C456.4 210.066 458 208.6 459.2 206.733C460.4 204.866 462.4 203.4 463.467 203.4C465.067 203.4 465.467 202.6 464.8 200.066C464 197 464.267 196.733 467.467 197.266C470.267 197.8 470.8 197.533 470.267 195.533C469.867 193.666 470.267 193.266 472.133 193.666C473.6 194.066 474.667 194.733 474.667 195.266ZM449.733 221.533C450.133 221.933 450.133 223.266 449.733 224.333C449.067 225.933 448.8 225.933 447.867 224.466C445.867 221.4 447.333 219.133 449.733 221.533ZM445.867 229.133C445.467 230.2 444.267 231.533 443.2 231.933C441.867 232.466 441.467 232.2 442.133 231C444.933 226.066 447.6 224.733 445.867 229.133ZM341.333 230.733C341.333 231.8 340.8 232.733 340 232.733C339.333 232.733 339.067 231.8 339.467 230.733C340 229.666 340.533 228.733 340.8 228.733C341.067 228.733 341.333 229.666 341.333 230.733ZM333.333 234.066C333.333 234.733 332.667 235.4 331.867 235.4C331.2 235.4 330.933 234.733 331.333 234.066C331.733 233.266 332.4 232.733 332.8 232.733C333.067 232.733 333.333 233.266 333.333 234.066ZM434.667 235.4C434.667 236.066 434.133 236.733 433.333 236.733C432.667 236.733 432 236.066 432 235.4C432 234.6 432.667 234.066 433.333 234.066C434.133 234.066 434.667 234.6 434.667 235.4ZM436.8 240.2C436.267 241.4 435.6 242.2 435.333 241.8C434.933 241.4 434.933 240.066 435.467 238.866C436 237.666 436.667 236.866 436.933 237.266C437.333 237.666 437.333 239 436.8 240.2ZM431.2 246.333C428.133 251.266 424.267 256.466 421.6 259.4C419.067 262.2 418.667 262.333 418.667 260.066C418.667 258.733 417.733 256.466 416.4 255.133C415.2 253.666 414.933 252.733 415.733 252.733C416.667 252.733 417.333 253.266 417.333 253.933C417.333 254.466 418.667 255 420.4 254.866C422.4 254.733 423.467 253.8 423.733 251.8C424 249.933 424.8 249.133 426.133 249.666C427.2 250.066 428 249.533 428 248.333C428 246.6 429.2 245.533 431.733 244.866C432 244.733 431.733 245.533 431.2 246.333ZM59.3333 266.866C61.0667 267.533 61.2 267.933 59.7333 268.866C57.2 270.6 56 270.333 56 268.066C56 265.8 56.2667 265.666 59.3333 266.866ZM88.4 268.733C89.4667 268.733 89.4667 269.133 88.4 270.2C87.2 271.4 86.2667 271.133 84.4 269.266C82.1333 267 82.1333 266.866 84.4 267.8C85.7333 268.333 87.6 268.733 88.4 268.733ZM397.333 290.6C397.333 290.866 396.4 291.8 395.333 292.733C393.6 294.2 393.467 294.066 394.133 292.2C394.8 290.333 397.333 289.133 397.333 290.6ZM120.533 301.533C121.733 301.933 122.667 303.266 122.667 304.333C122.667 307 118.133 305.933 117.6 303C117.067 300.466 117.467 300.333 120.533 301.533ZM117.067 308.866C119.2 311.266 121.2 312.333 123.067 311.933C125.6 311.533 125.733 311.666 123.733 313.533C121.467 315.8 121.333 315.8 114.8 309.933C113.467 308.866 111.467 307.533 110.267 307C109.067 306.6 108 305.533 108 304.733C108 302.2 113.733 304.866 117.067 308.866ZM391.467 312.333C390.133 313.666 388.933 311.666 390.133 309.933C390.933 308.466 391.2 308.466 391.733 309.933C392 310.866 391.867 311.933 391.467 312.333ZM130.667 319C130.667 319.933 130.133 320.733 129.333 320.733C128.667 320.733 128 320.2 128 319.533C128 318.866 126.8 318.066 125.2 317.666C123.6 317.266 122.8 316.333 123.2 315.666C124.267 313.933 130.667 316.866 130.667 319ZM141.733 317.266C144.133 319.133 144.8 322.066 142.8 322.066C139.733 322.066 137.333 320.2 137.333 317.933C137.333 315 138.4 314.866 141.733 317.266ZM392.267 321.4C392.267 322.066 391.6 322.866 390.8 323.133C390 323.4 389.333 322.6 389.333 321.4C389.333 320.2 390 319.4 390.8 319.666C391.6 319.933 392.267 320.733 392.267 321.4ZM388 325.266C388 326.2 387.2 327.8 386.133 328.6C384.667 329.8 384.4 329.533 384.667 327.133C385.067 323.4 385.067 323.4 386.667 323.4C387.467 323.4 388 324.2 388 325.266ZM156.533 339.4C155.733 340.2 155.2 339.666 155.067 337.8C154.8 335.666 155.2 335.4 156.4 336.6C157.333 337.533 157.467 338.466 156.533 339.4ZM160 344.866C160 345.666 159.467 345.8 158.667 345.4C158 345 157.333 343.933 157.333 343.266C157.333 342.466 158 342.333 158.667 342.733C159.467 343.133 160 344.2 160 344.866ZM165.333 351.533C165.333 352.2 164.8 352.733 164 352.733C163.333 352.733 162.667 351.8 162.667 350.6C162.667 349.533 163.333 349 164 349.4C164.8 349.8 165.333 350.733 165.333 351.533ZM166.4 359.533C167.333 361.133 167.867 362.6 167.467 363C166.4 364.2 162.667 360.733 162.667 358.6C162.667 355.933 164.4 356.333 166.4 359.533ZM170 359.4C170.4 360.066 170.133 360.733 169.467 360.733C168.667 360.733 168 360.066 168 359.4C168 358.6 168.267 358.066 168.533 358.066C168.933 358.066 169.6 358.6 170 359.4ZM174.667 365.266C175.333 367 176.533 368.866 177.333 369.4C178 369.8 178.4 370.866 178 371.533C177.467 372.2 178.133 372.733 179.2 372.733C181.333 372.733 183.333 377.266 182 379.4C181.6 380.066 180.133 380.733 178.8 380.733C176.133 380.733 167.333 365.666 168.667 363.4C170.133 361 173.333 362.066 174.667 365.266ZM351.733 374.333C353.6 376.2 351.467 380.733 348.667 380.733C347.333 380.733 346.8 379.4 347.067 376.733C347.333 372.6 349.067 371.666 351.733 374.333ZM185.067 387.533C185.467 388.6 186.533 390.466 187.733 391.8C190 394.466 188.933 396.466 186.4 394.333C185.467 393.533 183.6 391.133 182.267 389C180.133 385.266 180.133 385 182.267 385.266C183.467 385.533 184.8 386.466 185.067 387.533ZM192 387.4C192 388.066 191.467 388.733 190.667 388.733C190 388.733 189.333 388.066 189.333 387.4C189.333 386.6 190 386.066 190.667 386.066C191.467 386.066 192 386.6 192 387.4ZM334.667 387.4C334.667 388.066 334 388.733 333.2 388.733C332.533 388.733 332.267 388.066 332.667 387.4C333.067 386.6 333.733 386.066 334.133 386.066C334.4 386.066 334.667 386.6 334.667 387.4Z" fill="#8F76E8"/>
<path d="M97.4669 268.333C98.4002 269.933 99.4669 271 99.8669 270.6C100.267 270.333 99.4669 269 98.1335 267.666C95.8669 265.533 95.7335 265.533 97.4669 268.333Z" fill="#8F76E8"/>
<path d="M417.334 280.733C417.334 282.333 410.934 291.666 409.067 292.866C408.134 293.4 408.134 294.066 409.067 294.6C409.734 295 411.334 293.933 412.401 292.2C413.601 290.466 415.334 288.2 416.401 287.133C418.934 284.6 420.534 279.4 418.801 279.4C418.001 279.4 417.334 279.933 417.334 280.733Z" fill="#8F76E8"/>
<path d="M129.334 300.733C129.334 302.2 129.601 303.4 129.867 303.4C130.134 303.4 130.667 302.2 131.067 300.733C131.467 299.267 131.201 298.067 130.534 298.067C129.867 298.067 129.334 299.267 129.334 300.733Z" fill="#8F76E8"/>
<path d="M129.867 307.4C129.867 308.867 130.534 309.933 131.334 309.667C132.001 309.4 132.667 308.333 132.667 307.4C132.667 306.467 132.001 305.4 131.334 305.133C130.534 304.867 129.867 305.933 129.867 307.4Z" fill="#8F76E8"/>
<path d="M471.333 328.333C467.467 329.267 456 337.133 456 338.867C456 341 459.6 341.8 481.2 344.067C491.867 345.267 509.067 347.667 519.733 349.533C530.267 351.4 539.2 352.6 539.6 352.2C539.867 351.933 538 350.6 535.333 349.267C532.533 347.933 531.067 346.6 532 346.067C532.8 345.533 533.067 344.333 532.667 343.267C531.467 339.667 533.867 337.8 537.867 339.4C542 340.867 544.933 341.133 543.6 339.8C541.867 338.067 528.4 333.8 514.667 330.6C501.333 327.533 479.6 326.467 471.333 328.333Z" fill="#8F76E8"/>
<path d="M423.066 347.4C417.999 350.333 416.666 355.666 417.733 367.266C419.866 390.733 445.466 423.266 485.466 453.133C490.133 456.6 496.666 461.533 499.999 464.066C510.266 471.933 521.733 479.933 527.866 483.666C533.199 486.733 534.133 487 536.666 485.266C539.199 483.666 539.866 483.8 543.733 487.4C546.266 489.666 547.733 492.066 547.199 493.266C546.266 495.533 556.266 503.4 560.133 503.4C561.466 503.4 563.466 504.466 564.799 505.666C568.799 509.666 584.533 521.933 585.066 521.533C585.599 521 573.333 499.533 572.133 498.733C571.599 498.466 570.666 499.8 569.733 501.533C568.933 503.4 568.799 505 569.466 505.533C570.133 505.933 570.666 505.533 570.666 504.733C570.666 503.933 571.333 503.666 571.999 504.066C572.799 504.466 573.333 505.933 573.333 507.133C573.333 509.133 573.066 509.133 571.999 507.4C571.333 506.333 570.666 505.933 570.666 506.6C570.666 507.266 569.466 506.733 567.866 505.266C565.866 503.4 565.333 501.8 565.866 498.866C566.399 496.6 567.333 494.466 568.133 493.933C569.733 493 566.666 486.333 559.333 474.866C556.799 471 553.199 464.866 551.199 461.266C543.066 446.333 539.733 441.933 536.799 442.333C534.533 442.6 533.999 442.066 533.866 438.733C533.866 436.333 533.199 434.866 532.133 435.133C531.199 435.266 530.799 434.866 531.333 434.066C532.533 432.066 511.333 400.866 500.266 388.2C481.866 367.4 464.266 354.066 447.199 347.933C436.666 344.066 428.799 343.8 423.066 347.4ZM462.933 386.466C494.666 418.066 531.999 459.933 530.133 461.8C529.599 462.2 523.999 457.266 517.599 450.733C469.999 401.533 438.666 367.8 438.666 365.933C438.666 363.4 446.399 369.933 462.933 386.466ZM514.666 422.6C514.666 422.866 513.733 423.533 512.533 423.933C511.466 424.333 510.933 424.2 511.333 423.4C512.133 422.066 514.666 421.533 514.666 422.6ZM522.266 430.333C521.866 431.266 521.599 430.6 521.599 428.733C521.599 426.866 521.866 426.2 522.266 427C522.533 427.933 522.533 429.533 522.266 430.333ZM490.399 430.333C489.866 431.933 483.999 433 483.999 431.4C483.999 429.8 485.733 428.733 488.399 428.733C489.733 428.733 490.666 429.4 490.399 430.333ZM497.466 435.266C501.599 439.4 502.399 443.933 499.599 447.666C497.999 449.666 497.733 449.666 496.266 447.266C495.333 445.8 493.999 445 493.333 445.4C492.533 445.8 491.999 445.4 491.999 444.333C491.999 441.933 487.066 440.333 486.266 442.466C485.999 443.533 485.466 443.4 484.799 442.333C484.133 441.266 485.199 440.066 487.866 439C490.133 438.066 491.599 436.866 491.066 436.333C490.666 435.8 490.933 435.4 491.733 435.4C492.533 435.4 492.933 434.466 492.533 433.4C491.333 430.333 493.199 431 497.466 435.266ZM522.266 435.666C521.866 436.733 521.466 436.333 521.466 434.866C521.333 433.4 521.733 432.6 522.133 433.133C522.533 433.533 522.666 434.733 522.266 435.666ZM479.999 441.266C479.999 442.733 477.466 443.266 476.666 442.066C476.266 441.4 476.799 440.733 477.866 440.733C479.066 440.733 479.999 441 479.999 441.266ZM483.999 447.4C483.999 448.066 483.733 448.733 483.466 448.733C483.066 448.733 482.399 448.066 481.999 447.4C481.599 446.6 481.866 446.066 482.533 446.066C483.333 446.066 483.999 446.6 483.999 447.4ZM493.466 447.933C493.466 445.533 493.599 445.533 494.533 448.066C496.133 451.933 495.466 454.6 492.933 455.133C490.133 455.666 484.799 450.733 485.999 448.733C486.799 447.533 487.333 447.533 488.133 448.866C489.066 450.333 489.333 450.066 489.333 448.066C489.466 445.4 489.466 445.4 491.333 447.933C493.333 450.6 493.333 450.6 493.466 447.933ZM506.666 456.733C506.666 457.4 505.733 458.066 504.533 458.066C503.466 458.066 502.933 457.4 503.333 456.733C503.733 455.933 504.666 455.4 505.466 455.4C506.133 455.4 506.666 455.933 506.666 456.733ZM545.466 468.333C544.266 470.333 544.133 469.933 543.999 465.933C543.999 463.266 544.399 460.733 545.066 460.2C546.533 458.6 546.933 465.8 545.466 468.333ZM554.666 470.333C554.666 470.866 553.466 471.4 551.999 471.4C549.333 471.4 548.266 467.533 550.266 465.533C551.199 464.6 554.666 468.333 554.666 470.333ZM551.199 474.866C551.733 476.2 552.933 476.6 554.666 476.066C556.133 475.666 557.333 475.8 557.333 476.466C557.333 478.333 553.866 480.866 552.933 479.8C552.399 479.4 551.999 479.8 551.999 480.733C551.999 482.066 551.466 481.8 550.266 480.2C548.666 478.066 548.399 478.066 546.799 479.933C543.999 483.266 542.266 482.466 543.333 478.466C544.666 472.866 549.599 470.6 551.199 474.866Z" fill="#8F76E8"/>
<path d="M473.334 349.8C473.334 350.6 475.467 353 478.134 355C480.801 357 486.267 361.533 490.267 365C500.534 373.8 504.667 375.4 516.534 375.4C524.534 375.4 526.401 375 525.867 373.533C525.467 372.6 526.134 371.4 527.334 370.867C529.067 370.2 529.334 369 528.667 364.733C527.734 359.533 527.867 359.4 532.267 358.467L536.667 357.533L530.001 355.933C513.867 351.8 473.334 347.4 473.334 349.8Z" fill="#8F76E8"/>
<path d="M403.199 373C400.133 376.466 396.933 383.666 394.399 392.733C391.866 401.666 392.266 439.933 395.066 454.066C398.666 472.6 400.933 482.333 403.733 490.733C405.199 495.133 408.666 505.8 411.333 514.333C414.133 523 416.533 530.066 416.933 530.066C417.333 530.066 417.333 529.133 416.933 528.066C416.399 527 416.799 525.8 417.599 525.266C418.533 524.733 418.266 523.933 416.799 523.133C415.599 522.466 414.666 521 414.666 519.933C414.666 518.866 415.199 518.2 415.866 518.733C416.533 519.133 417.466 518.866 417.866 518.2C418.399 517.533 418.133 516.6 417.333 516.066C416.533 515.533 416.266 514.6 416.666 513.933C418.133 511.666 419.733 512.733 420.533 516.866C421.333 520.866 424.133 524.733 426.399 524.733C427.066 524.733 429.199 515.933 431.199 505C433.199 494.2 435.466 482.6 436.133 479.266C436.933 475.933 437.866 463.133 438.399 450.6L439.466 428.066L429.599 413.533C424.266 405.533 418.799 396.866 417.599 394.2L415.333 389.4L414.933 399.4C414.533 407.666 416.933 468.333 417.733 471.533C417.866 472.066 417.466 472.6 416.666 472.6C415.999 472.733 414.933 470.6 414.399 467.666C412.799 457.8 410.666 423.4 410.666 405C410.666 382.333 409.466 370.066 407.333 370.066C406.533 370.066 404.666 371.4 403.199 373ZM422.666 503.4C424.266 504.466 424.133 504.733 421.733 504.733C420.133 504.733 418.399 504.066 417.999 503.4C416.933 501.666 419.999 501.666 422.666 503.4Z" fill="#8F76E8"/>
<path d="M56.0005 409.266C56.0005 411.133 60.5339 418.066 61.7339 418.066C62.4005 418.066 61.4672 416.066 59.8672 413.666C55.8672 408.066 56.0005 408.066 56.0005 409.266Z" fill="#8F76E8"/>
<path d="M325.334 418.733C325.334 419.8 326.001 420.733 326.667 420.733C327.467 420.733 328.001 419.8 328.001 418.733C328.001 417.666 327.467 416.733 326.667 416.733C326.001 416.733 325.334 417.666 325.334 418.733Z" fill="#8F76E8"/>
<path d="M110.668 490.066C110.668 490.733 112.001 492.066 113.735 492.866C116.668 494.466 116.668 494.466 114.135 491.533C111.335 488.466 110.668 488.066 110.668 490.066Z" fill="#8F76E8"/>
<path d="M120 500.6C120 501.4 120.533 502.333 121.333 502.733C122.133 503.133 122.267 502.6 121.867 501.533C120.933 499.133 120 498.733 120 500.6Z" fill="#8F76E8"/>
<path d="M126.668 509.4C126.668 510.467 127.201 511.4 128.001 511.4C128.668 511.4 128.935 510.467 128.535 509.4C128.001 508.333 127.468 507.4 127.201 507.4C126.935 507.4 126.668 508.333 126.668 509.4Z" fill="#8F76E8"/>
</svg>
