<svg width="626" height="702" viewBox="0 0 626 702" fill="none" xmlns="http://www.w3.org/2000/svg">
<path d="M298.009 1.32226C270.809 6.12226 234.942 19.7223 196.409 39.8556C175.209 50.9223 164.675 57.3223 132.675 78.3889C120.942 86.1223 102.409 97.8556 91.342 104.656C62.542 122.389 39.0754 138.256 31.342 144.922C17.8754 156.789 8.00872 175.989 5.47538 194.789C0.675383 230.122 -1.45795 305.989 1.07538 342.522C2.00872 354.256 3.60872 382.122 4.67538 404.522C8.54205 481.456 12.2754 514.256 17.8754 519.989C19.0754 521.056 20.0087 522.789 20.0087 523.722C20.0087 524.789 20.942 526.256 22.0087 527.189C23.6087 528.522 23.4754 527.456 21.342 522.656C18.2754 515.322 17.742 500.256 19.8754 476.522C21.6087 457.456 21.8754 421.722 20.6754 340.522C19.342 243.322 22.8087 193.189 32.542 174.256C39.0754 161.189 34.4087 164.656 122.409 106.656C169.609 75.4556 193.209 61.7223 225.342 46.7889C243.742 38.2556 282.809 23.1889 296.142 19.5889C307.209 16.5223 326.142 16.5223 336.009 19.5889C340.275 20.9223 343.475 21.3223 343.742 20.6556C344.009 19.8556 345.342 19.7223 347.075 20.3889C348.675 20.9223 350.809 21.1889 351.742 20.9223C352.542 20.5223 353.342 21.0556 353.342 21.8556C353.342 22.9223 351.875 23.0556 349.075 22.5223C342.142 21.0556 345.475 23.3223 370.675 36.5223C383.475 43.3223 403.342 53.8556 414.675 59.8556C437.075 71.8556 490.275 97.8556 492.275 97.8556C492.942 97.8556 495.075 98.9223 497.075 100.122L500.675 102.522L498.009 99.0556C496.675 97.1889 493.209 94.5223 490.275 93.1889C484.542 90.3889 482.809 88.5223 485.875 88.5223C487.075 88.5223 488.009 89.0556 488.009 89.8556C488.009 90.5223 488.942 91.1889 490.009 91.1889C491.075 91.1889 492.009 90.5223 492.009 89.8556C492.009 89.0556 491.475 88.5223 490.675 88.5223C490.009 88.5223 489.342 87.5889 489.342 86.3889C489.342 84.5223 489.742 84.5223 491.342 85.8556C492.542 86.7889 493.742 87.3223 494.009 86.9223C494.675 86.2556 478.675 76.5223 469.342 71.8556C462.675 68.5223 427.609 48.3889 408.542 37.1889C386.009 23.7223 355.742 8.12226 344.542 4.12226C333.075 -0.0110688 312.142 -1.21107 298.009 1.32226Z" fill="#8F76E8"/>
<path d="M302.809 51.9884C292.143 54.7884 284.409 60.1218 281.209 66.9218C276.676 76.1218 280.276 83.9884 291.743 90.2551C316.409 103.722 358.676 92.9218 358.676 73.1884C358.676 56.6551 328.276 45.1884 302.809 51.9884Z" fill="#8F76E8"/>
<path d="M222.943 98.522C193.743 104.922 188.41 127.989 213.61 139.322C219.743 142.122 222.677 142.522 236.677 142.522C251.343 142.522 253.343 142.255 260.677 138.789C270.277 134.255 273.21 131.855 275.61 126.122C280.677 113.989 268.277 101.189 247.877 97.8553C237.21 96.122 233.477 96.2553 222.943 98.522Z" fill="#8F76E8"/>
<path d="M457.21 138.388C441.477 142.655 431.343 153.855 434.543 163.588C439.21 177.588 463.477 186.255 485.61 181.855C518.943 175.455 522.81 148.655 491.877 139.055C482.543 136.122 466.677 135.855 457.21 138.388Z" fill="#8F76E8"/>
<path d="M140.144 146.522C121.877 151.722 112.544 163.722 118.41 174.922C123.744 185.322 137.61 191.188 157.077 191.188C174.01 191.188 186.41 186.122 193.077 176.522C199.61 166.788 195.21 157.188 180.81 149.855C172.677 145.855 170.277 145.188 159.477 144.922C151.61 144.655 144.81 145.322 140.144 146.522Z" fill="#8F76E8"/>
<path d="M383.342 183.989C362.275 187.189 349.209 199.189 353.209 211.589C356.275 220.922 367.209 227.589 383.075 229.989C408.675 233.722 432.009 222.655 432.009 206.789C432.009 199.589 422.409 189.989 412.009 186.789C404.142 184.389 390.009 183.055 383.342 183.989Z" fill="#8F76E8"/>
<path d="M605.342 186.522C605.342 187.588 604.409 188.522 603.342 188.522C601.876 188.522 601.342 189.988 601.342 194.122C601.476 211.722 605.476 321.455 606.676 337.589C607.876 356.522 606.542 433.589 604.809 436.255C604.409 437.055 603.476 450.389 602.809 466.122C601.476 495.189 599.342 508.122 593.476 521.189C589.342 530.255 576.542 542.789 560.142 553.722C534.276 571.055 459.742 616.122 444.009 623.855C432.009 629.722 413.342 640.522 402.009 647.989C359.476 675.855 333.742 684.389 302.942 680.789C287.209 678.922 280.009 676.122 257.209 663.589C246.676 657.722 233.476 650.655 228.009 647.855C207.342 637.322 124.942 589.722 92.6758 569.855C77.4758 560.389 59.0758 550.389 41.0758 541.589C39.3424 540.789 38.6758 541.055 38.6758 542.522C38.6758 543.589 39.4758 544.522 40.4091 544.522C42.9424 544.522 60.4091 560.789 58.8091 561.722C55.6091 563.722 79.3425 580.789 120.676 606.122C127.342 610.255 144.409 620.655 158.676 629.455C229.609 673.055 262.009 690.655 284.009 697.455C302.276 703.055 327.476 702.522 351.342 695.855C359.476 693.589 384.142 681.322 391.342 675.855C395.076 672.922 403.476 668.122 447.076 643.989C483.609 623.589 524.142 599.989 539.342 590.122C548.142 584.389 560.409 576.655 566.676 572.789C588.542 559.455 604.142 544.122 611.209 529.189C618.942 512.922 620.142 504.789 624.009 446.522C625.609 420.389 625.742 341.322 624.009 310.522C623.342 297.989 622.542 279.189 622.009 268.522C621.209 248.789 619.742 228.788 617.342 205.188C616.676 197.855 616.009 191.055 616.009 190.122C616.009 189.322 615.209 188.522 614.142 188.522C613.209 188.522 611.609 187.588 610.676 186.522C609.742 185.455 608.142 184.522 607.209 184.522C606.142 184.522 605.342 185.455 605.342 186.522Z" fill="#8F76E8"/>
<path d="M62.4098 195.189C68.0098 198.655 69.8765 198.655 64.6765 195.189C62.5431 193.722 60.1431 192.522 59.3431 192.522C58.6765 192.522 60.0098 193.722 62.4098 195.189Z" fill="#8F76E8"/>
<path d="M71.6088 200.655C72.5422 201.589 73.6088 201.989 74.0088 201.589C74.4088 201.189 73.7422 200.389 72.4088 199.989C70.5422 199.189 70.4088 199.322 71.6088 200.655Z" fill="#8F76E8"/>
<path d="M550.142 205.322C544.409 208.522 539.475 211.189 539.209 211.189C538.809 211.189 497.475 234.389 489.342 239.189C474.675 247.855 448.942 261.722 421.342 275.855C366.542 303.722 330.809 322.389 331.342 322.922C331.609 323.322 336.142 321.589 350.542 315.589C351.742 315.055 352.142 315.322 351.475 316.255C350.942 317.322 351.475 317.855 352.942 317.855C354.942 317.855 355.075 318.122 353.342 319.189C352.009 319.989 351.209 319.989 350.942 319.189C350.142 316.789 346.409 317.722 346.942 320.122C347.342 322.122 348.809 322.522 355.075 322.389C359.209 322.255 362.675 322.655 362.675 323.322C362.675 324.522 360.675 325.055 357.475 324.655C356.542 324.389 356.142 324.922 356.675 325.722C357.075 326.522 353.875 329.455 349.075 332.389C335.075 341.055 328.942 348.789 324.542 363.055C321.209 374.255 322.675 374.789 326.542 363.722C328.542 357.722 331.609 350.655 333.209 347.989C336.275 343.055 346.009 336.122 364.009 325.989C369.475 322.789 375.875 318.922 378.009 317.189C380.275 315.589 386.809 311.589 392.675 308.522C398.542 305.322 408.142 299.989 414.009 296.522C419.875 293.055 430.942 286.655 438.675 282.255C464.942 267.322 494.542 248.522 526.009 226.655C531.342 222.922 534.542 221.055 539.742 218.389C544.009 216.255 545.609 213.855 542.409 214.389C541.475 214.522 537.209 216.789 532.942 219.589C528.809 222.255 524.675 224.522 524.009 224.522C520.409 224.522 523.742 221.855 534.675 216.122C542.409 211.989 546.409 210.389 545.875 211.722C544.542 215.055 546.675 214.255 552.675 208.789C555.742 206.122 559.342 203.189 560.675 202.389C562.142 201.589 562.675 200.655 561.875 200.122C561.075 199.722 555.875 201.989 550.142 205.322ZM513.342 231.189C513.342 231.855 512.142 233.055 510.675 233.855C509.209 234.655 508.009 234.789 508.009 234.255C508.009 233.722 506.809 234.522 505.342 235.989C499.075 242.255 482.675 252.389 482.675 249.989C482.675 248.255 486.142 245.722 490.275 244.655C492.675 243.989 493.875 242.789 493.609 241.455C493.342 239.855 494.142 239.189 496.409 239.189C498.275 239.189 500.009 238.255 500.542 237.189C501.342 234.922 509.075 229.855 511.742 229.855C512.542 229.855 513.342 230.389 513.342 231.189ZM428.009 284.522C425.475 286.255 424.009 286.255 424.009 284.522C424.009 283.722 425.342 283.189 427.075 283.189C429.475 283.189 429.609 283.455 428.009 284.522Z" fill="#8F76E8"/>
<path d="M67.7429 202.922C68.9429 204.255 70.2762 205.189 70.5429 205.055C71.3429 204.389 67.8762 200.522 66.5429 200.522C65.8762 200.522 66.4095 201.589 67.7429 202.922Z" fill="#8F76E8"/>
<path d="M76.0098 203.189C76.0098 203.989 76.9431 204.522 78.0098 204.522C79.0764 204.522 80.0098 204.255 80.0098 203.989C80.0098 203.722 79.0764 203.189 78.0098 202.655C76.9431 202.255 76.0098 202.522 76.0098 203.189Z" fill="#8F76E8"/>
<path d="M72.2758 206.122C72.6758 207.055 78.1425 210.922 84.8092 214.922C105.209 227.322 108.009 229.055 134.676 245.855C148.942 254.789 165.476 264.922 171.342 268.255C177.209 271.589 190.676 279.589 201.342 285.989C223.609 299.322 262.676 321.855 263.476 321.855C265.476 321.855 263.209 319.322 258.676 316.789C255.743 315.189 253.343 313.322 253.343 312.655C253.343 310.789 259.343 308.389 264.543 308.122C267.609 307.989 268.809 307.455 267.743 306.789C257.743 300.655 233.209 286.522 224.676 281.855C218.809 278.655 208.676 273.055 202.009 269.455C189.476 262.389 186.409 260.655 168.676 251.189C162.809 247.989 155.342 243.589 152.009 241.322C146.276 237.322 83.8758 204.522 82.1425 204.522C81.7425 204.522 81.3425 205.055 81.3425 205.589C81.3425 206.255 86.1425 208.922 92.0092 211.722C97.7425 214.389 102.942 217.189 103.342 217.855C104.409 219.589 100.009 221.322 98.8092 219.722C98.4092 219.055 97.0758 218.522 96.0092 218.522C94.9425 218.522 94.1425 217.722 94.4092 216.789C94.5425 215.855 93.3425 215.189 91.3425 215.189C89.4758 215.189 88.0092 214.522 88.0092 213.855C88.0092 213.055 87.0758 212.522 86.0092 212.522C84.8092 212.522 83.6092 211.589 83.2092 210.522C82.6758 209.455 81.8758 208.922 81.2092 209.322C80.5425 209.722 80.0092 209.455 80.0092 208.922C80.0092 208.255 78.1425 207.055 75.8758 206.255C72.9425 205.055 72.0092 205.055 72.2758 206.122ZM115.342 223.989C118.142 225.722 118.276 226.389 116.809 227.989C115.342 229.455 114.276 229.322 110.542 227.455C102.676 223.455 102.542 223.189 104.409 221.322C106.142 219.322 109.476 220.122 115.342 223.989ZM135.209 236.789C134.809 237.455 133.742 237.322 132.676 236.522C131.609 235.589 130.142 235.322 129.342 235.855C128.676 236.255 128.009 235.722 128.009 234.522C128.009 232.789 127.209 232.389 124.809 233.055C118.809 234.522 115.209 231.189 118.809 227.589C120.542 225.855 136.409 234.655 135.209 236.789ZM153.342 245.989C153.342 246.655 152.809 247.189 152.009 247.189C151.342 247.189 150.676 246.255 150.676 245.055C150.676 243.989 151.342 243.455 152.009 243.855C152.809 244.255 153.342 245.189 153.342 245.989ZM183.342 261.855C192.942 267.055 194.809 268.522 194.009 269.989C193.609 270.522 194.542 270.789 196.009 270.522C197.476 270.255 199.342 270.789 200.276 271.589C201.209 272.522 205.209 274.655 209.076 276.389C214.009 278.789 215.609 279.989 214.409 280.922C213.209 281.722 213.343 281.855 215.076 281.322C216.409 280.922 219.343 281.455 221.743 282.655C225.609 284.789 225.743 284.922 223.343 286.655C222.009 287.722 220.009 288.522 219.076 288.522C218.143 288.522 217.743 289.322 218.143 290.522C218.676 291.589 219.743 292.522 220.676 292.522C221.609 292.522 223.209 293.455 224.143 294.789C226.543 297.589 202.809 284.922 193.476 278.255C193.209 278.122 193.742 277.055 194.676 275.855C195.609 274.655 195.742 273.855 194.942 273.855C194.142 273.855 193.342 274.655 192.942 275.455C191.876 278.522 173.342 267.055 173.342 263.322C173.342 262.522 174.142 261.855 175.076 261.855C175.876 261.855 174.942 260.389 172.676 258.522C168.942 255.322 168.809 255.189 172.009 256.389C173.876 257.055 178.942 259.455 183.342 261.855ZM168.009 261.322C168.009 262.389 165.476 263.055 164.809 262.122C164.409 261.455 164.942 260.922 166.009 260.922C167.076 260.922 168.009 261.189 168.009 261.322ZM232.009 288.522C232.009 289.189 230.809 289.855 229.209 289.855C227.743 289.855 226.809 290.389 227.343 291.055C227.743 291.722 227.476 292.655 226.809 293.055C225.076 294.255 223.876 291.855 224.809 289.322C225.743 287.055 232.009 286.389 232.009 288.522ZM231.343 297.855C232.409 299.589 230.676 299.589 228.009 297.855C226.276 296.789 226.276 296.522 228.276 296.522C229.476 296.522 230.943 297.055 231.343 297.855ZM239.076 298.789C236.409 299.855 237.076 301.322 240.809 303.055C243.209 304.122 244.809 304.122 246.009 303.189C247.209 302.255 248.809 302.255 251.209 303.189C256.276 305.055 255.743 307.589 250.543 306.522C247.609 305.855 246.676 305.989 247.209 307.055C247.743 307.855 249.076 308.522 250.143 308.522C251.209 308.522 252.009 309.055 252.009 309.855C252.009 310.522 251.076 311.189 250.009 311.189C248.943 311.189 248.009 310.789 248.009 310.122C248.009 309.589 246.676 308.522 244.943 307.722C236.009 303.189 233.343 301.589 233.343 300.389C233.343 299.589 234.009 299.455 234.676 299.855C235.476 300.255 236.009 299.989 236.009 299.322C236.009 298.522 237.076 297.855 238.409 297.989C239.743 297.989 240.009 298.389 239.076 298.789ZM251.343 299.189C251.743 299.855 251.609 300.522 250.809 300.522C250.143 300.522 249.076 299.855 248.676 299.189C248.276 298.389 248.409 297.855 249.209 297.855C249.876 297.855 250.943 298.389 251.343 299.189Z" fill="#8F76E8"/>
<path d="M177.344 261.855C177.344 262.522 178.01 263.188 178.81 263.188C179.477 263.188 179.744 262.522 179.344 261.855C178.944 261.055 178.277 260.522 177.877 260.522C177.61 260.522 177.344 261.055 177.344 261.855Z" fill="#8F76E8"/>
<path d="M182.409 269.455C183.343 269.855 184.543 269.722 184.943 269.322C185.476 268.922 184.676 268.522 183.209 268.655C181.743 268.655 181.343 269.055 182.409 269.455Z" fill="#8F76E8"/>
<path d="M187.743 272.122C188.677 272.522 189.877 272.388 190.277 271.988C190.81 271.588 190.01 271.188 188.543 271.322C187.077 271.322 186.677 271.722 187.743 272.122Z" fill="#8F76E8"/>
<path d="M198.01 277.855C197.61 278.522 198.143 279.188 199.21 279.188C200.41 279.188 201.343 278.522 201.343 277.855C201.343 277.055 200.81 276.522 200.143 276.522C199.343 276.522 198.41 277.055 198.01 277.855Z" fill="#8F76E8"/>
<path d="M203.875 279.589C205.608 281.722 212.008 283.455 212.008 281.722C212.008 280.389 210.942 279.722 206.142 278.655C202.808 277.855 202.408 277.989 203.875 279.589Z" fill="#8F76E8"/>
<path d="M291.475 233.188C282.675 235.588 274.809 241.322 271.609 247.588C268.942 252.655 268.942 252.788 271.475 258.922C276.942 272.122 298.942 279.988 320.809 276.522C346.942 272.255 357.875 255.055 342.809 241.455C332.675 232.255 308.809 228.522 291.475 233.188Z" fill="#8F76E8"/>
<path d="M67.3432 266.389C58.4099 270.389 55.2099 278.922 57.2099 293.322C59.7432 310.655 73.0766 331.055 86.0099 337.589C95.0766 341.989 98.9432 342.389 104.01 338.922C111.477 333.989 113.61 328.389 113.077 315.722C112.543 306.655 111.743 303.322 107.343 293.989C97.8766 273.855 79.2099 260.922 67.3432 266.389Z" fill="#8F76E8"/>
<path d="M541.208 271.189C520.942 281.855 507.475 314.922 515.875 333.455C524.675 352.655 551.742 342.655 565.075 315.189C569.075 306.922 570.008 303.322 570.408 294.389C570.942 285.322 570.542 282.789 568.142 278.122C566.542 275.055 563.608 271.722 561.342 270.522C556.142 267.855 547.075 268.122 541.208 271.189Z" fill="#8F76E8"/>
<path d="M341.475 330.655C339.875 332.522 340.009 332.655 342.542 332.255C344.142 332.122 345.475 331.322 345.475 330.522C345.609 328.389 343.475 328.522 341.475 330.655Z" fill="#8F76E8"/>
<path d="M276.01 330.522C276.01 330.789 277.343 331.855 279.076 332.655C281.743 334.122 281.876 334.122 280.143 332.122C278.41 329.989 276.01 329.055 276.01 330.522Z" fill="#8F76E8"/>
<path d="M282.676 335.722C282.676 335.989 283.609 336.922 284.676 337.855C286.409 339.322 286.542 339.189 285.876 337.322C285.209 335.455 282.676 334.255 282.676 335.722Z" fill="#8F76E8"/>
<path d="M288.01 341.455C288.01 342.389 294.543 351.455 296.143 352.522C296.543 352.922 298.41 357.322 300.143 362.389C302.41 369.455 303.343 371.055 304.143 369.055C304.676 367.722 304.81 363.722 304.41 360.389C304.01 356.655 304.41 353.055 305.476 351.055C306.943 348.255 306.81 348.122 305.076 349.455C304.01 350.389 302.676 350.789 302.276 350.255C301.743 349.855 301.343 351.189 301.343 353.322C301.21 356.789 301.076 356.922 299.743 354.655C298.676 352.789 298.676 351.455 299.743 349.722C300.943 347.989 300.676 347.055 299.076 345.589C297.476 344.389 297.076 344.389 297.876 345.455C298.41 346.522 298.01 347.189 296.676 347.189C295.476 347.189 294.943 346.522 295.343 345.855C295.743 345.055 294.943 344.522 293.476 344.522C291.876 344.522 290.676 343.589 290.676 342.522C290.676 341.455 290.143 340.522 289.343 340.522C288.676 340.522 288.01 340.922 288.01 341.455Z" fill="#8F76E8"/>
<path d="M215.21 353.855C207.476 356.922 202.943 370.522 205.343 383.189C209.876 406.922 229.21 428.522 246.143 428.522C251.343 428.522 252.943 427.855 256.143 424.389C264.41 415.589 264.676 398.922 256.81 382.255C246.943 361.589 228.01 348.655 215.21 353.855Z" fill="#8F76E8"/>
<path d="M321.209 380.122C321.209 382.922 320.943 386.388 320.676 387.855C320.409 389.322 320.009 394.922 319.876 400.122C319.743 405.455 319.076 409.855 318.543 409.855C317.876 409.855 317.209 409.055 317.209 408.122C316.943 405.855 315.343 394.922 314.809 392.388C314.809 391.855 313.743 391.188 312.676 390.655C311.076 390.122 310.809 390.922 311.343 394.655C311.609 397.455 311.343 398.922 310.676 398.522C309.876 397.988 309.343 395.988 309.343 393.855C309.343 389.722 306.809 386.788 306.543 390.788C306.409 392.522 306.143 392.255 305.343 389.855C304.009 385.588 303.876 449.055 305.209 477.188C305.876 488.922 307.343 522.788 308.676 552.522C309.876 582.255 311.209 607.455 311.609 608.522C311.876 609.588 312.276 623.322 312.409 639.055C312.543 656.655 313.209 667.855 314.009 668.122C315.609 668.655 315.476 670.788 316.409 627.855C316.809 608.788 317.876 591.055 318.676 588.522C319.609 585.322 320.143 557.455 320.143 501.188C320.143 449.055 320.809 410.788 321.743 397.455C322.676 385.855 322.943 375.988 322.409 375.722C321.743 375.322 321.343 377.322 321.209 380.122ZM306.809 407.988C306.809 414.388 306.409 419.855 306.009 420.255C305.609 420.655 305.343 415.055 305.343 407.855C305.343 400.655 305.743 395.055 306.143 395.455C306.543 395.988 306.809 401.588 306.809 407.988ZM310.676 401.855C310.676 402.522 310.009 403.188 309.209 403.188C308.543 403.188 308.276 402.522 308.676 401.855C309.076 401.055 309.743 400.522 310.143 400.522C310.409 400.522 310.676 401.055 310.676 401.855Z" fill="#8F76E8"/>
<path d="M139.209 403.189C128.942 409.722 127.609 428.122 136.142 445.855C146.809 467.855 164.542 480.255 177.876 474.655C198.809 465.855 184.409 415.455 157.342 403.322C149.742 399.855 144.409 399.855 139.209 403.189Z" fill="#8F76E8"/>
<path d="M466.275 404.655C458.542 408.788 451.209 417.188 445.475 428.522C436.409 446.655 436.675 464.255 446.409 472.655C450.542 476.388 451.742 476.788 456.942 475.988C472.809 473.855 487.075 459.722 493.209 439.988C497.875 424.922 496.409 413.988 488.675 406.255C484.942 402.522 483.342 401.855 477.875 401.855C474.009 401.988 469.209 403.055 466.275 404.655Z" fill="#8F76E8"/>
<path d="M63.7433 449.322C49.7433 456.789 53.4767 486.922 71.0767 508.922C80.01 519.855 94.1433 525.589 102.143 521.455C108.277 518.255 110.543 514.922 112.143 506.655C118.01 477.722 84.5433 437.989 63.7433 449.322Z" fill="#8F76E8"/>
<path d="M26.4093 534.655C27.2093 536.122 29.3426 538.922 31.2093 541.055C34.1426 544.389 34.676 544.522 34.676 542.389C34.676 541.055 32.5426 538.122 29.876 535.989C26.5426 533.322 25.476 532.922 26.4093 534.655Z" fill="#8F76E8"/>
<path d="M212.276 537.855C205.876 541.855 203.609 548.122 204.276 561.189C204.676 570.389 205.343 573.455 209.609 581.989C226.543 615.989 261.343 620.789 261.343 589.055C261.343 569.322 248.009 546.789 231.609 538.522C223.476 534.522 218.143 534.255 212.276 537.855Z" fill="#8F76E8"/>
<path d="M392.142 539.055C376.276 547.455 361.076 575.055 363.476 591.189C365.209 603.722 371.209 609.855 381.609 609.855C393.209 609.855 401.742 604.389 410.542 591.322C424.142 571.322 425.076 546.922 412.676 539.189C407.342 535.855 398.276 535.722 392.142 539.055Z" fill="#8F76E8"/>
<path d="M40.0098 549.855C43.6098 552.655 45.3431 553.189 45.3431 551.322C45.3431 550.122 42.2765 548.389 38.6765 547.722C37.6098 547.455 38.1431 548.522 40.0098 549.855Z" fill="#8F76E8"/>
</svg>
